{
	"asset":{
		"generator":"Khronos glTF Blender I/O v4.5.48",
		"version":"2.0"
	},
	"scene":0,
	"scenes":[
		{
			"name":"Scene",
			"nodes":[
				5
			]
		}
	],
	"nodes":[
		{
			"mesh":0,
			"name":"coffee",
			"translation":[
				0.03769059479236603,
				0.788872241973877,
				0.05081503465771675
			]
		},
		{
			"mesh":1,
			"name":"mug",
			"translation":[
				-0.3414632976055145,
				0,
				-0.46157586574554443
			]
		},
		{
			"children":[
				0,
				1
			],
			"name":"Mug1"
		},
		{
			"children":[
				2
			],
			"name":"RootNode"
		},
		{
			"children":[
				3
			],
			"name":"f5823088d6e847dd88d1c6b10b93a01f.fbx",
			"rotation":[
				0.70710688829422,
				0,
				0,
				0.7071066498756409
			]
		},
		{
			"children":[
				4
			],
			"name":"coffee_mug",
			"rotation":[
				-0.70710688829422,
				0,
				0,
				0.7071066498756409
			],
			"translation":[
				-0.0851099044084549,
				0.31052350997924805,
				0
			]
		}
	],
	"materials":[
		{
			"doubleSided":true,
			"name":"Coffee",
			"pbrMetallicRoughness":{
				"baseColorTexture":{
					"index":0
				},
				"metallicFactor":0,
				"metallicRoughnessTexture":{
					"index":1
				},
				"roughnessFactor":0.17854420840740204
			}
		},
		{
			"doubleSided":true,
			"name":"material",
			"pbrMetallicRoughness":{
				"baseColorFactor":[
					0.9480519890785217,
					0.9480519890785217,
					0.9480519890785217,
					1
				],
				"metallicFactor":0,
				"roughnessFactor":0.03830030560493469
			}
		}
	],
	"meshes":[
		{
			"name":"Mug1_Coffee_0",
			"primitives":[
				{
					"attributes":{
						"POSITION":0,
						"NORMAL":1,
						"TEXCOORD_0":2
					},
					"indices":3,
					"material":0
				}
			]
		},
		{
			"name":"Mug1_Mug_0",
			"primitives":[
				{
					"attributes":{
						"POSITION":4,
						"NORMAL":5,
						"TEXCOORD_0":6
					},
					"indices":7,
					"material":1
				}
			]
		}
	],
	"textures":[
		{
			"sampler":0,
			"source":0
		},
		{
			"sampler":0,
			"source":1
		}
	],
	"images":[
		{
			"mimeType":"image/png",
			"name":"Coffee_baseColor",
			"uri":"textures/Coffee_baseColor.png"
		},
		{
			"mimeType":"image/png",
			"name":"Coffee_metallicRoughness",
			"uri":"textures/Coffee_metallicRoughness.png"
		}
	],
	"accessors":[
		{
			"bufferView":0,
			"componentType":5126,
			"count":42,
			"max":[
				1.1938838958740234,
				-1.9073486328125e-06,
				1.1993722915649414
			],
			"min":[
				-1.1601147651672363,
				-1.9073486328125e-06,
				-1.154627799987793
			],
			"type":"VEC3"
		},
		{
			"bufferView":1,
			"componentType":5126,
			"count":42,
			"type":"VEC3"
		},
		{
			"bufferView":2,
			"componentType":5126,
			"count":42,
			"type":"VEC2"
		},
		{
			"bufferView":3,
			"componentType":5123,
			"count":120,
			"type":"SCALAR"
		},
		{
			"bufferView":4,
			"componentType":5126,
			"count":576,
			"max":[
				1.6856520175933838,
				1.1866960525512695,
				1.8230341672897339
			],
			"min":[
				-1.0942838191986084,
				-1.7383737564086914,
				-1.350443959236145
			],
			"type":"VEC3"
		},
		{
			"bufferView":5,
			"componentType":5126,
			"count":576,
			"type":"VEC3"
		},
		{
			"bufferView":6,
			"componentType":5126,
			"count":576,
			"type":"VEC2"
		},
		{
			"bufferView":7,
			"componentType":5123,
			"count":2976,
			"type":"SCALAR"
		}
	],
	"bufferViews":[
		{
			"buffer":0,
			"byteLength":504,
			"byteOffset":0,
			"target":34962
		},
		{
			"buffer":0,
			"byteLength":504,
			"byteOffset":504,
			"target":34962
		},
		{
			"buffer":0,
			"byteLength":336,
			"byteOffset":1008,
			"target":34962
		},
		{
			"buffer":0,
			"byteLength":240,
			"byteOffset":1344,
			"target":34963
		},
		{
			"buffer":0,
			"byteLength":6912,
			"byteOffset":1584,
			"target":34962
		},
		{
			"buffer":0,
			"byteLength":6912,
			"byteOffset":8496,
			"target":34962
		},
		{
			"buffer":0,
			"byteLength":4608,
			"byteOffset":15408,
			"target":34962
		},
		{
			"buffer":0,
			"byteLength":5952,
			"byteOffset":20016,
			"target":34963
		}
	],
	"samplers":[
		{
			"magFilter":9729,
			"minFilter":9987
		}
	],
	"buffers":[
		{
			"byteLength":25968,
			"uri":"coffee_mug.bin"
		}
	]
}
