<svg xmlns="http://www.w3.org/2000/svg" width="210mm" height="297mm" viewBox="0 0 210 297"><path d="M69 37c-3-18 40-26 41-5 8-21 46-6 36 14 32 4 16 32-6 30-18 11-22 7-33 2-14 9-28 9-34-3-13 11-28-11-13-17-15-6 0-24 9-21zM71 119c-2-26 32-27 40-2 10-16 44-6 42 7 29-6 24 21-4 32-8 9-35 10-43-2-18 16-39 19-44 8-19 1-20-9-11-22-22-3 11-42 20-21zM65 216c0-21 23-25 36-8 12-17 35-10 35 5 17 0 30 29-1 30-10 7-20 14-37 0 6 13-25 23-40 7-18 11-28-17-9-21-1-5 1-22 16-13z" style="opacity:.9;fill:none;stroke:#000;stroke-width:1.058;stroke-linejoin:round;stroke-miterlimit:4.4"/></svg>