<svg xmlns="http://www.w3.org/2000/svg" width="135" height="222" version="1">
  <path fill="#000" d="M26 2c-1 1-2 3-2 7 0 21 2 46 18 66 10 14 36 39 46 56 11 20 16 33 18 45 1 5 2 7 5 7 2 0 4-2 5-7 1-14 3-32-2-48-7-22-22-43-46-66C47 42 37 25 33 7c0-3 0-4-2-5-2-3-5-2-5 0 M134 34c-1-1-3-2-5 0l-2 5c-3 16-12 31-29 48 5 8 10 16 13 24l9-11c14-18 16-40 15-59l-1-7M55 148c-4 14-3 30-2 43 1 5 3 6 5 6s3-2 4-6a135 135 0 0 1 26-54l-17-20c-7 10-12 21-16 31M43 100C23 81 13 64 9 45c0-2 0-3-2-5s-5-1-6 0l-1 7c0 22 1 46 17 67l33 37c3-10 6-21 12-31l-19-20m46 67l-4-13c-7 8-12 17-16 27 8 14 11 24 13 34 1 4 2 7 5 7 2 0 4-2 5-8 1-14 2-32-3-47"/>
</svg>