<svg xmlns="http://www.w3.org/2000/svg" xml:space="preserve" width="46mm" height="47mm" viewBox="0 0 46 47"><g style="stroke-width:9.41868"><path d="M11000 5725a5940.5 5940.5 0 1 0 0 11881 5940.5 5940.5 0 0 0 0-11881zm6523 4642 1562 1298-1562 1299 948 1796-1941 599 187 2023-2023-187-599 1941-1797-948-1298 1562-1298-1562-1797 948-599-1941-2023 187 187-2023-1941-599 948-1796-1562-1299 1562-1298-948-1797 1941-599-187-2022 2023 186 599-1941 1797 948 1298-1562 1298 1562 1797-948 599 1941 2023-187-187 2023 1941 599-948 1797" style="fill:#f9b00b;fill-opacity:1;fill-rule:nonzero;stroke:none;stroke-width:9.41868" transform="matrix(.0028 0 0 -.0028 -7.992 55.996)"/><path d="M16620 11665a5620 5620 0 1 0-11240 0 5620 5620 0 0 0 11240 0" style="fill:#f9b00b;fill-opacity:1;fill-rule:nonzero;stroke:none;stroke-width:9.41868" transform="matrix(.0028 0 0 -.0028 -7.992 55.996)"/></g></svg>