<?xml version="1.0" encoding="UTF-8" standalone="no"?>
<!-- Generator: Adobe Illustrator 22.0.1, SVG Export Plug-In . SVG Version: 6.00 Build 0)  -->

<svg
   version="1.1"
   id="Layer_1"
   x="0px"
   y="0px"
   viewBox="0 0 200 250"
   xml:space="preserve"
   sodipodi:docname="tskoli-logo-apart.svg"
   inkscape:version="1.2.2 (732a01da63, 2022-12-09)"
   xmlns:inkscape="http://www.inkscape.org/namespaces/inkscape"
   xmlns:sodipodi="http://sodipodi.sourceforge.net/DTD/sodipodi-0.dtd"
   xmlns="http://www.w3.org/2000/svg"
   xmlns:svg="http://www.w3.org/2000/svg"><defs
   id="defs319" /><sodipodi:namedview
   id="namedview317"
   pagecolor="#ffffff"
   bordercolor="#000000"
   borderopacity="0.25"
   inkscape:showpageshadow="2"
   inkscape:pageopacity="0.0"
   inkscape:pagecheckerboard="0"
   inkscape:deskcolor="#d1d1d1"
   showgrid="false"
   inkscape:zoom="6.2"
   inkscape:cx="63.467742"
   inkscape:cy="176.37097"
   inkscape:window-width="1920"
   inkscape:window-height="991"
   inkscape:window-x="-9"
   inkscape:window-y="-9"
   inkscape:window-maximized="1"
   inkscape:current-layer="Layer_1" />
<style
   type="text/css"
   id="style306">
	.st0{fill:#E65300;}
	.st1{fill:#68A2B9;}
	.st2{fill:#00457C;}
</style>
<path
   class="st0"
   d="m 18.599105,74.550526 c -0.473652,0.789419 -0.552594,1.460426 -0.592065,2.841909 -0.03947,8.486257 0.552594,18.117172 6.828477,26.169245 4.183922,5.40753 14.564785,15.59103 18.156643,21.98533 4.578631,8.17049 6.591651,13.30171 7.460012,17.91982 0.315767,1.77619 0.710477,2.72349 1.736722,2.72349 0.868361,0 1.657781,-0.71047 1.934077,-2.92085 0.631536,-5.48646 1.065716,-12.55176 -0.868361,-18.74871 C 50.570585,115.95557 44.807824,107.62719 35.058496,98.312046 27.085362,90.69415 22.90144,83.984086 21.559427,76.603016 c -0.157884,-0.907832 -0.197355,-1.381484 -0.749948,-2.05249 -0.78942,-1.026245 -1.894607,-0.513123 -2.210374,0"
   id="path308"
   style="stroke-width:1" />
<path
   class="st1"
   d="m 42.267396,143.55153 c 0.43418,0.71048 0.513122,1.30254 0.513122,2.52614 0.03947,7.6179 -0.513122,16.22257 -6.117999,23.48523 -3.749742,4.85493 -13.064889,13.97272 -16.301508,19.69601 -4.10498,7.30213 -5.920644,11.92023 -6.710064,16.10415 -0.315767,1.57884 -0.631535,2.4472 -1.578838,2.4472 -0.749948,0 -1.499897,-0.63154 -1.736723,-2.60508 -0.552593,-4.93387 -0.947303,-11.2887 0.749949,-16.81463 2.407728,-7.69684 7.578425,-15.15685 16.301507,-23.5247 7.144245,-6.82847 10.893986,-12.86753 12.078115,-19.49865 0.157884,-0.78942 0.197355,-1.2236 0.671007,-1.81567 0.82889,-0.9473 1.855135,-0.47365 2.131432,0"
   id="path310"
   style="stroke-width:1" />
<path
   class="st2"
   d="m 29.541747,206.04695 c -1.855136,3.03926 -3.27609,6.03906 -4.223393,9.07832 -0.315768,0.9473 -0.513123,1.93408 -0.710478,2.96032 1.578839,1.97355 2.960323,3.86816 3.868155,5.52594 0.43418,0.78942 0.82889,1.53936 1.2236,2.24984 1.065716,-2.72349 2.605083,-5.88117 4.815457,-9.82827 0.236826,-0.43418 0.513123,-0.86836 0.82889,-1.34201 -1.539367,-2.84191 -3.473444,-5.72329 -5.802231,-8.64414"
   id="path312"
   style="stroke-width:1" />
<path
   class="st2"
   d="m 7.4790586,3.4391717 c -0.473652,0.7894204 -0.552594,1.4604264 -0.592065,2.8419104 0,8.4862569 0.592065,18.1171719 6.8679484,26.1692479 4.183922,5.407522 14.564785,15.59103 18.156643,21.985326 4.578631,8.17049 6.591651,13.301715 7.460012,17.919818 0.315767,1.776193 0.710477,2.723496 1.736722,2.723496 0.868361,0 1.657781,-0.710477 1.934077,-2.920851 C 43.673932,66.671655 44.108112,59.606353 42.174035,53.409411 39.49001,44.844212 33.727249,36.515839 23.977921,27.200692 16.004787,19.582796 11.820865,12.872732 10.478852,5.4916621 10.320968,4.5838301 10.281497,4.1101791 9.7289036,3.4391717 c -0.78942,-1.026245 -1.934078,-0.513122 -2.249845,0"
   id="path314"
   style="stroke-width:1" />
<path
   id="path7849"
   style="opacity:1;fill:#00457c;stroke-opacity:0"
   d="m 164.91555,35.811538 a 17.56362,17.56362 0 0 1 -17.56362,17.563619 17.56362,17.56362 0 0 1 -17.56362,-17.563619 17.56362,17.56362 0 0 1 17.56362,-17.56362 17.56362,17.56362 0 0 1 17.56362,17.56362 z" /><path
   id="path7849-1"
   style="fill:#e65300;stroke-opacity:0;fill-opacity:1"
   d="m 153.34715,103.02341 a 17.56362,17.56362 0 0 1 -17.56362,17.56362 17.56362,17.56362 0 0 1 -17.56362,-17.56362 17.56362,17.56362 0 0 1 17.56362,-17.563616 17.56362,17.56362 0 0 1 17.56362,17.563616 z" /><path
   id="path7849-15"
   style="fill:#68a2b9;stroke-opacity:0;fill-opacity:1"
   d="m 148.39381,164.98576 a 17.56362,17.56362 0 0 1 -17.56362,17.56362 17.56362,17.56362 0 0 1 -17.56362,-17.56362 17.56362,17.56362 0 0 1 17.56362,-17.56362 17.56362,17.56362 0 0 1 17.56362,17.56362 z" /><path
   id="path7849-6"
   style="fill:#00457c;stroke-width:0.999999;stroke-opacity:0"
   d="m 134.79957,214.28525 a 8.4396615,8.4396615 0 0 1 -8.43966,8.43966 8.4396615,8.4396615 0 0 1 -8.43966,-8.43966 8.4396615,8.4396615 0 0 1 8.43966,-8.43967 8.4396615,8.4396615 0 0 1 8.43966,8.43967 z" /></svg>
