{
    "asset": {
        "version": "2.0",
        "generator": "This 3D model is generated by KIRI Engine App"
    },
    "extensionsUsed": [
        "KHR_materials_pbrSpecularGlossiness",
        "FB_ngon_encoding"
    ],
    "accessors": [
        {
            "bufferView": 0,
            "byteOffset": 0,
            "componentType": 5126,
            "count": 3826,
            "type": "VEC3",
            "max": [
                0.0806099995970726,
                0.122079998254776,
                0.09467600286006928
            ],
            "min": [
                -0.059672001749277118,
                -0.12329699844121933,
                -0.10885600000619888
            ]
        },
        {
            "bufferView": 1,
            "byteOffset": 0,
            "componentType": 5126,
            "count": 3826,
            "type": "VEC3",
            "max": [
                0.9985203146934509,
                0.9991477727890015,
                0.9999440908432007
            ],
            "min": [
                -0.9999792575836182,
                -0.9958850145339966,
                -0.9986435770988464
            ]
        },
        {
            "bufferView": 2,
            "byteOffset": 0,
            "componentType": 5126,
            "count": 3826,
            "type": "VEC2",
            "max": [
                0.9919189810752869,
                1.0
            ],
            "min": [
                0.0,
                0.004166007041931152
            ]
        },
        {
            "bufferView": 3,
            "byteOffset": 0,
            "componentType": 5125,
            "count": 10548,
            "type": "SCALAR",
            "max": [
                3825
            ],
            "min": [
                0
            ]
        }
    ],
    "buffers": [
        {
            "byteLength": 164624,
            "uri": "3DModel_LowPoly.bin"
        }
    ],
    "bufferViews": [
        {
            "buffer": 0,
            "byteOffset": 0,
            "byteLength": 45912,
            "target": 34962
        },
        {
            "buffer": 0,
            "byteOffset": 45912,
            "byteLength": 45912,
            "target": 34962
        },
        {
            "buffer": 0,
            "byteOffset": 91824,
            "byteLength": 30608,
            "target": 34962
        },
        {
            "buffer": 0,
            "byteOffset": 122432,
            "byteLength": 42192,
            "target": 34963
        }
    ],
    "images": [
        {
            "uri": "data:image/jpeg;base64,"
        }
    ],
    "materials": [
        {
            "name": "3DModel_LowPoly",
            "pbrMetallicRoughness": {
                "baseColorTexture": {
                    "index": 0
                },
                "baseColorFactor": [
                    0.6000000238418579,
                    0.6000000238418579,
                    0.6000000238418579,
                    1.0
                ],
                "metallicFactor": 0.0
            },
            "extensions": {
                "KHR_materials_pbrSpecularGlossiness": {
                    "diffuseFactor": [
                        0.6000000238418579,
                        0.6000000238418579,
                        0.6000000238418579,
                        1.0
                    ],
                    "specularFactor": [
                        0.0,
                        0.0,
                        0.0
                    ],
                    "glossinessFactor": 0.0,
                    "diffuseTexture": {
                        "index": 0
                    }
                }
            }
        }
    ],
    "meshes": [
        {
            "name": "3DModel_LowPoly",
            "primitives": [
                {
                    "mode": 4,
                    "material": 0,
                    "indices": 3,
                    "attributes": {
                        "POSITION": 0,
                        "NORMAL": 1,
                        "TEXCOORD_0": 2
                    }
                }
            ]
        }
    ],
    "nodes": [
        {
            "name": "3DModel_LowPoly.obj",
            "children": [
                1
            ]
        },
        {
            "name": "3DModel_LowPoly",
            "mesh": 0
        }
    ],
    "samplers": [
        {}
    ],
    "scenes": [
        {
            "nodes": [
                0
            ]
        }
    ],
    "textures": [
        {
            "source": 0,
            "sampler": 0
        }
    ],
    "scene": 0
}