<?xml version="1.0" encoding="UTF-8" standalone="no"?>
<!-- Created with Inkscape (http://www.inkscape.org/) -->

<svg
   width="210mm"
   height="297mm"
   viewBox="0 0 210 297"
   version="1.1"
   id="svg1"
   xml:space="preserve"
   inkscape:version="1.3 (0e150ed6c4, 2023-07-21)"
   sodipodi:docname="404SVG.svg"
   xmlns:inkscape="http://www.inkscape.org/namespaces/inkscape"
   xmlns:sodipodi="http://sodipodi.sourceforge.net/DTD/sodipodi-0.dtd"
   xmlns:xlink="http://www.w3.org/1999/xlink"
   xmlns="http://www.w3.org/2000/svg"
   xmlns:svg="http://www.w3.org/2000/svg"><sodipodi:namedview
     id="namedview1"
     pagecolor="#ffffff"
     bordercolor="#999999"
     borderopacity="1"
     inkscape:showpageshadow="2"
     inkscape:pageopacity="0"
     inkscape:pagecheckerboard="0"
     inkscape:deskcolor="#d1d1d1"
     inkscape:document-units="mm"
     showguides="true"
     inkscape:zoom="0.97890839"
     inkscape:cx="300.84531"
     inkscape:cy="344.77179"
     inkscape:window-width="1920"
     inkscape:window-height="991"
     inkscape:window-x="-9"
     inkscape:window-y="-9"
     inkscape:window-maximized="1"
     inkscape:current-layer="layer1"><sodipodi:guide
       position="144.0614,146.99235"
       orientation="0,-1"
       id="guide8"
       inkscape:locked="false" /></sodipodi:namedview><defs
     id="defs1"><filter
       inkscape:label="Fill Background"
       inkscape:menu="Fill and Transparency"
       inkscape:menu-tooltip="Adds a colorizable opaque background"
       style="color-interpolation-filters:sRGB;"
       id="filter7"
       x="-0.014084434"
       y="-0.0093726617"
       width="1.0281689"
       height="1.0187453"><feFlood
         result="result1"
         flood-color="rgb(0,204,255)"
         flood-opacity="1"
         id="feFlood6" /><feImage
         xlink:href=""
         result="result2"
         id="feImage6" /><feBlend
         result="result4"
         in2="result1"
         mode="multiply"
         id="feBlend6" /><feMerge
         result="result3"
         id="feMerge7"><feMergeNode
           in="result1"
           id="feMergeNode6" /><feMergeNode
           in="SourceGraphic"
           id="feMergeNode7" /></feMerge></filter></defs>
           
    <!--4 aftan -->
           <path
     d="m 67.964265,53.670403 v 6.650303 H 57.769916 V 77.086977 H 48.527788 V 60.320706 H 16.376382 V 54.326068 L 51.608497,12.269907 h 6.161419 v 41.400496 z m -19.436477,0 V 22.1517 L 21.865646,53.670403 Z"
     id="text1"
     style="display:inline;font-size:104.894px;font-family:'Times New Roman';-inkscape-font-specification:'Times New Roman, ';letter-spacing:3.93349px;fill:#ffffff;stroke:#ffffff;stroke-width:1.32878"
     aria-label="4" />


     <!--SKIP -->
     <g
     inkscape:groupmode="layer"
     id="layer1"
     inkscape:label="Skip">
     
     <g
       id="g18"
       transform="matrix(0.80000001,0,0,0.80000001,17.722027,-65.943162)">
       
       
       <path
         style="fill:#999999;stroke-width:0.993657"
         d="m 159.96261,115.17837 c 0.17279,-0.17288 0.31416,-0.4695 0.31416,-0.65916 0,-0.18966 -0.8082,-3.21485 -1.79602,-6.72265 l -1.79602,-6.37779 -1.86614,-0.56713 c -1.02639,-0.31193 -2.74685,-0.64584 -3.82324,-0.74204 -3.39673,-0.303597 -9.5559,0.37908 -10.40832,1.15364 -0.35961,0.32675 -1.97484,4.10762 -1.97484,4.6226 0,0.17719 4.66127,2.37393 10.35837,4.88167 5.69711,2.50772 10.43027,4.59677 10.51814,4.64234 0.0879,0.0455 0.30113,-0.0586 0.47391,-0.23148 z"
         id="path30"
         inkscape:label="path30" /><path
         style="fill:#f9f9f9;stroke:none;stroke-width:0.993657"
         d="m 190.70029,147.69515 c 0.74731,-0.33928 0.75503,-0.36329 0.26091,-0.8107 -0.91016,-0.82413 -3.03724,-1.59487 -6.26365,-2.26963 -5.91318,-1.23666 -5.60183,-1.05277 -7.67331,-4.53195 -0.99156,-1.66539 -1.77731,-3.05466 -1.74613,-3.08727 0.058,-0.0606 5.97103,0.3749 7.82256,0.57609 l 1.02391,0.11126 -0.0761,-3.14574 -0.0761,-3.14572 -5.51677,-1.69451 c -3.03423,-0.93197 -5.54318,-1.73048 -5.57545,-1.77445 -0.0323,-0.0439 -0.35258,-0.92023 -0.71179,-1.94723 l -0.65313,-1.86727 -6.77018,-3.09265 c -14.32254,-6.54261 -23.29168,-10.37027 -26.45834,-11.29133 -2.1904,-0.6371 -6.02622,-1.18801 -11.72549,-1.68401 -8.10475,-0.70535 -16.59953,-0.27369 -25.8403,1.31311 l -2.009264,0.34501 -1.985149,5.95162 c -1.091833,3.27338 -1.98515,6.03034 -1.98515,6.12657 0,0.0962 1.311341,0.61083 2.914089,1.14352 5.152424,1.71248 6.224694,1.80677 20.546214,1.80677 h 12.82788 v 1.76118 1.76118 h -7.16041 c -7.24613,0 -8.01615,0.10476 -7.14875,0.97262 0.58044,0.58075 41.27712,13.13117 49.20198,15.17335 10.35067,2.66732 22.58317,4.29657 24.77789,3.30018 z m -28.8041,-10.37211 c -0.86943,-0.44984 -1.34861,-1.15871 -1.34861,-1.99507 0,-0.52759 0.0371,-0.53091 1.28633,-0.11489 1.54824,0.5156 1.87964,0.75842 2.39438,1.75434 l 0.3953,0.76485 h -0.96822 c -0.53253,0 -1.32416,-0.18416 -1.75918,-0.40923 z m -8.59271,-3.17352 -2.23416,-0.80371 0.0191,-1.12591 c 0.024,-1.41973 0.34007,-2.31794 0.64307,-1.82744 0.11765,0.19047 0.96125,0.68389 1.87466,1.09649 1.94115,0.87684 2.57436,1.50332 2.87714,2.84654 0.25442,1.12859 0.51719,1.14396 -3.17975,-0.18597 z m -11.58501,-4.21885 -4.05411,-1.56973 0.006,-1.52967 c 0.003,-0.84131 0.0771,-1.60079 0.164,-1.6877 0.0869,-0.0869 1.97304,0.61854 4.19147,1.56771 l 4.03351,1.72576 0.0812,1.53168 c 0.0447,0.84243 -0.0199,1.53169 -0.1434,1.53169 -0.12355,0 -2.04898,-0.70638 -4.27873,-1.56974 z m 19.46554,-2.63971 c -0.20109,-0.27516 -0.36562,-0.90323 -0.36562,-1.39572 v -0.89544 l 1.42173,0.53634 c 1.44864,0.54649 2.36957,1.36228 2.36957,2.09906 0,0.6261 -2.93183,0.3315 -3.42568,-0.34424 z m -7.71246,-2.62129 -2.40223,-0.86981 v -1.29778 c 0,-0.71379 0.11729,-1.29779 0.26065,-1.29779 0.52452,0 3.41626,1.17521 4.13997,1.68249 0.59769,0.41895 0.74472,0.73235 0.74472,1.58736 0,0.58595 -0.0767,1.06535 -0.17043,1.06535 -0.0938,0 -1.25145,-0.39141 -2.57268,-0.86982 z m -11.70548,-4.26996 -3.96631,-1.48195 v -1.82691 -1.82692 l 2.23416,0.97021 c 1.22879,0.53361 3.11767,1.34519 4.19752,1.8035 l 1.96335,0.83329 v 1.59568 c 0,0.87763 -0.10404,1.55504 -0.2312,1.50537 -0.12717,-0.0497 -2.01605,-0.75719 -4.19752,-1.57227 z m -40.25079,-3.05647 c 0.002,-0.63335 0.0772,-1.42588 0.16699,-1.76117 l 0.16328,-0.60964 h 15.54304 15.54304 l -0.15566,1.15153 c -0.0856,0.63335 -0.21123,1.42588 -0.27916,1.76118 l -0.12351,0.60965 h -15.43086 -15.43086 z"
         id="path29" /><path
         id="path6"
         style="display:inline;fill:#1a1a1a;stroke-width:0.993657"
         d="m 95.13917,139.04729 c 0.227379,-0.0211 0.472796,-0.0154 0.742202,0.0181 0.94515,0.11731 2.372733,-0.20709 3.550817,3.8402 0.721481,2.47865 0.864731,5.02628 -0.421809,5.58235 -1.05559,0.45625 -3.091029,0.88564 -4.319503,-0.31071 -1.059146,-1.03145 -2.64233,-2.16522 -2.382284,-4.47388 0.3402,-3.02029 0.190904,-2.92262 1.094248,-3.78272 0.53255,-0.50705 1.05419,-0.80997 1.736329,-0.87333 z" /><path
         id="path44"
         style="display:inline;fill:#800000;stroke-width:0.993657"
         d="M 188.30402,175.03863 80.687855,161.89732 c 2.254417,4.06186 3.904987,8.64275 4.843374,13.53211 l 0.604614,3.15098 2.610306,0.17892 c 8.205222,0.56312 74.576031,0.8869 91.218591,0.44507 3.41961,-0.0908 5.85594,-0.26685 6.02418,-0.43538 0.20838,-0.20874 1.18792,-1.82224 2.3151,-3.73039 z" /><path
         id="path42"
         style="display:inline;fill:#1a1a1a;stroke-width:0.993657"
         d="m 138.53122,140.05756 -72.636389,-8.86961 c -0.03469,0.52378 -0.06118,1.17813 -0.08785,2.16201 -0.07514,2.77263 0.01548,3.89725 0.46638,5.79681 1.068963,4.50327 2.268961,6.57719 7.804433,13.48754 2.089026,2.6079 4.412001,5.68266 5.161829,6.83292 0.440356,0.67551 0.856633,1.37403 1.259613,2.08385 l 107.983074,13.18589 c 1.75004,-2.9732 3.88087,-6.72052 4.81301,-8.55503 2.30287,-4.53218 3.97258,-9.2919 4.71612,-13.44621 0.14923,-0.83373 0.13094,-0.85063 -1.12138,-1.01673 -0.70012,-0.0928 -3.61649,-0.35215 -6.48087,-0.5762 -15.32262,-1.19847 -25.8171,-3.36758 -51.87797,-11.08524 z" /><path
         id="path45"
         style="display:inline;fill:#f9f9f9;stroke-width:0.993657"
         d="m 80.388778,125.41698 c -4.791659,-1.5e-4 -6.13423,0.0871 -7.58287,0.49093 -2.21485,0.61741 -5.102715,2.11934 -6.123657,3.18521 -0.487134,0.50856 -0.661094,0.81356 -0.754476,1.77508 l 70.771515,8.64159 c -2.35888,-0.70221 -4.62333,-1.37121 -7.24762,-2.16524 C 90.852537,125.6656 89.831466,125.41726 80.388778,125.41698 Z" /></g><g
       id="g1"
       transform="matrix(0.10226398,0,0,0.0781327,102.06345,46.437936)"
       style="font-size:102.653px;font-family:'Times New Roman';-inkscape-font-specification:'Times New Roman, ';letter-spacing:3.84945px;fill:#000000;stroke:#000000;stroke-width:1.3;stroke-dasharray:none">
       
       
       <path
         class="st0"
         d="m 30.8,53.4 c -1.2,2 -1.4,3.7 -1.5,7.2 -0.1,21.5 1.4,45.9 17.3,66.3 10.6,13.7 36.9,39.5 46,55.7 11.6,20.7 16.7,33.7 18.9,45.4 0.8,4.5 1.8,6.9 4.4,6.9 2.2,0 4.2,-1.8 4.9,-7.4 1.6,-13.9 2.7,-31.8 -2.2,-47.5 C 111.8,158.3 97.2,137.2 72.5,113.6 52.3,94.3 41.7,77.3 38.3,58.6 c -0.4,-2.3 -0.5,-3.5 -1.9,-5.2 -2,-2.6 -4.8,-1.3 -5.6,0"
         id="path1" /><path
         class="st1"
         d="m 163.5,47.6 c 1.1,1.8 1.3,3.3 1.3,6.4 0.1,19.3 -1.3,41.1 -15.5,59.5 -9.5,12.3 -33.1,35.4 -41.3,49.9 -10.4,18.5 -15,30.2 -17,40.8 -0.8,4 -1.6,6.2 -4,6.2 -1.9,0 -3.8,-1.6 -4.4,-6.6 -1.4,-12.5 -2.4,-28.6 1.9,-42.6 6.1,-19.5 19.2,-38.4 41.3,-59.6 18.1,-17.3 27.6,-32.6 30.6,-49.4 0.4,-2 0.5,-3.1 1.7,-4.6 2.1,-2.4 4.7,-1.2 5.4,0"
         id="path2" /><path
         class="st2"
         d="m 95.3,138.1 c -4.7,7.7 -8.3,15.3 -10.7,23 -0.8,2.4 -1.3,4.9 -1.8,7.5 4,5 7.5,9.8 9.8,14 1.1,2 2.1,3.9 3.1,5.7 2.7,-6.9 6.6,-14.9 12.2,-24.9 0.6,-1.1 1.3,-2.2 2.1,-3.4 -3.9,-7.2 -8.8,-14.5 -14.7,-21.9"
         id="path3" /><path
         class="st2"
         d="m 55,14.7 c -1.2,2 -1.4,3.7 -1.5,7.2 0,21.5 1.5,45.9 17.4,66.3 10.6,13.7 36.9,39.5 46,55.7 11.6,20.7 16.7,33.7 18.9,45.4 0.8,4.5 1.8,6.9 4.4,6.9 2.2,0 4.2,-1.8 4.9,-7.4 1.6,-13.9 2.7,-31.8 -2.2,-47.5 C 136.1,119.6 121.5,98.5 96.8,74.9 76.6,55.6 66,38.6 62.6,19.9 c -0.4,-2.3 -0.5,-3.5 -1.9,-5.2 -2,-2.6 -4.9,-1.3 -5.7,0"
         id="path4" /></g></g>
         
         
         
         <!--4 fram -->
         <path
     d="m 188.78288,53.659778 v 6.661767 h -10.17044 v 16.795139 h -9.22045 V 60.321545 H 137.31597 V 54.31657 l 35.1495,-42.128605 h 6.14697 v 41.471813 z m -19.39089,0 v -31.573 l -26.59962,31.573 z"
     id="text1-5"
     style="display:inline;font-size:105.149px;font-family:'Times New Roman';-inkscape-font-specification:'Times New Roman, ';letter-spacing:3.94303px;fill:#ffffff;stroke:#ffffff;stroke-width:1.32835"
     aria-label="4" />
     
     
     
     
     <style
     type="text/css"
     id="style1">&#10;	.st0{fill:#E65300;}&#10;	.st1{fill:#68A2B9;}&#10;	.st2{fill:#00457C;}&#10;</style></svg>
