<?xml version="1.0" encoding="UTF-8" standalone="no"?>
<!-- Created with Inkscape (http://www.inkscape.org/) -->

<svg
   version="1.1"
   id="svg1"
   width="1496"
   height="1496"
   viewBox="0 0 1496 1496"
   sodipodi:docname="3798.eps"
   xmlns:inkscape="http://www.inkscape.org/namespaces/inkscape"
   xmlns:sodipodi="http://sodipodi.sourceforge.net/DTD/sodipodi-0.dtd"
   xmlns="http://www.w3.org/2000/svg"
   xmlns:svg="http://www.w3.org/2000/svg">
  <defs
     id="defs1" />
  <sodipodi:namedview
     id="namedview1"
     pagecolor="#ffffff"
     bordercolor="#000000"
     borderopacity="0.25"
     inkscape:showpageshadow="2"
     inkscape:pageopacity="0.0"
     inkscape:pagecheckerboard="0"
     inkscape:deskcolor="#d1d1d1">
    <inkscape:page
       x="0"
       y="0"
       inkscape:label="1"
       id="page1"
       width="1496"
       height="1496"
       margin="0"
       bleed="0" />
  </sodipodi:namedview>
  <g
     id="g1"
     inkscape:groupmode="layer"
     inkscape:label="1">
    <g
       id="group-R5">
      <path
         id="path2"
         d="M 0,0 H 11220 V 11220 H 0 Z"
         style="fill:#ffffff;fill-opacity:1;fill-rule:nonzero;stroke:none"
         transform="matrix(0.13333333,0,0,-0.13333333,0,1496)" />
      <path
         id="path3"
         d="M 5830.57,9047.34 V 2092.98 c 0,-85.47 -69.29,-154.76 -154.76,-154.76 h -131.62 c -85.47,0 -154.76,69.29 -154.76,154.76 v 7095.28 c 0,51.64 41.87,93.52 93.52,93.52 h 113.18 c 129.48,0 234.44,-104.96 234.44,-234.44"
         style="fill:#896c52;fill-opacity:1;fill-rule:nonzero;stroke:none"
         transform="matrix(0.13333333,0,0,-0.13333333,0,1496)" />
      <path
         id="path4"
         d="m 5700.87,8131.28 c -19.37,-69.53 -11.09,-243.07 -13.69,-327.9 -3.52,-114.79 -7.04,-229.57 -10.55,-344.35 -7.11,-231.82 -14.21,-463.64 -21.31,-695.45 15.06,376.08 30.13,752.16 45.19,1128.25 3.02,75.45 9.5,166.02 0.36,239.45"
         style="fill:#7a5f49;fill-opacity:1;fill-rule:nonzero;stroke:none"
         transform="matrix(0.13333333,0,0,-0.13333333,0,1496)" />
      <path
         id="path5"
         d="m 5699.45,8104.36 c -8.39,-54.88 -8.05,-141.66 -7.76,-213.5 0.13,-32.85 0.25,-63.88 -0.48,-87.61 l -5.56,-181.47 10.82,270.21 c 0.48,11.88 1.05,24.13 1.61,36.63 2.6,56.73 5.5,119.99 1.37,175.74 m -40.1,-1340.95 -8.07,0.29 31.86,1039.8 c 0.72,23.58 0.61,54.55 0.47,87.32 -0.33,85.04 -0.75,190.86 13.37,241.54 l 5.41,19.41 2.49,-20 c 7.74,-62.21 4.3,-137.28 1.27,-203.52 -0.57,-12.48 -1.13,-24.72 -1.6,-36.59 l -45.2,-1128.25"
         style="fill:#7a5f49;fill-opacity:1;fill-rule:nonzero;stroke:none"
         transform="matrix(0.13333333,0,0,-0.13333333,0,1496)" />
      <path
         id="path6"
         d="m 5559.7,5277.98 c -2.52,579.43 1.48,1161.29 -7.96,1740.29 -4.53,-579.13 5.19,-1160.97 7.96,-1740.29"
         style="fill:#7a5f49;fill-opacity:1;fill-rule:nonzero;stroke:none"
         transform="matrix(0.13333333,0,0,-0.13333333,0,1496)" />
      <path
         id="path7"
         d="m 5555.67,5277.97 c -0.91,189.6 -2.59,382.7 -4.21,569.44 -3.35,384.1 -6.81,781.27 -3.76,1170.89 l 8.08,0.04 c 6.36,-389.83 6.62,-787.32 6.88,-1171.73 0.13,-186.46 0.25,-379.27 1.08,-568.61 v 0.01 -0.01 l -8.07,-0.03"
         style="fill:#7a5f49;fill-opacity:1;fill-rule:nonzero;stroke:none"
         transform="matrix(0.13333333,0,0,-0.13333333,0,1496)" />
      <path
         id="path8"
         d="m 5587.68,7376.11 c 12.02,25.97 14.05,59.58 15.26,91.44 4.93,130.06 4.01,262.27 -6.28,391.66 0.53,-160.9 -5.61,-322.27 -8.98,-483.1"
         style="fill:#7a5f49;fill-opacity:1;fill-rule:nonzero;stroke:none"
         transform="matrix(0.13333333,0,0,-0.13333333,0,1496)" />
      <path
         id="path9"
         d="m 5599.87,7729.74 c -1.05,-71.4 -2.91,-142.73 -4.72,-212.58 -0.99,-38.11 -1.98,-76.19 -2.85,-114.26 4.48,19.77 5.74,41.97 6.6,64.81 3.47,91.37 3.78,179.04 0.97,262.03 m -16.63,-372.83 0.4,19.28 c 0.99,47.02 2.21,94.09 3.44,141.18 2.91,112.1 5.92,228.02 5.54,341.83 l 8.06,0.33 c 9.51,-119.56 11.63,-251.49 6.29,-392.13 -1.29,-33.99 -3.45,-66.69 -15.62,-92.99 l -8.11,-17.5"
         style="fill:#7a5f49;fill-opacity:1;fill-rule:nonzero;stroke:none"
         transform="matrix(0.13333333,0,0,-0.13333333,0,1496)" />
      <path
         id="path10"
         d="m 5505.72,9100.77 c 2.85,-82.37 5.06,-165.2 12.29,-246.67 5.92,81.3 -6.71,164.39 -12.29,246.67"
         style="fill:#7a5f49;fill-opacity:1;fill-rule:nonzero;stroke:none"
         transform="matrix(0.13333333,0,0,-0.13333333,0,1496)" />
      <path
         id="path11"
         d="m 5513.99,8853.74 c -6.41,72.35 -8.92,146.83 -11.35,218.86 l -0.95,28.04 8.06,0.41 c 1.53,-22.6 3.64,-45.67 5.67,-67.98 5.37,-59 10.93,-120.01 6.62,-179.27 l -8.05,-0.06"
         style="fill:#7a5f49;fill-opacity:1;fill-rule:nonzero;stroke:none"
         transform="matrix(0.13333333,0,0,-0.13333333,0,1496)" />
      <path
         id="path12"
         d="m 5505.72,9100.77 c -0.75,21.85 -1.54,43.68 -2.49,65.42 0,-21.71 1.01,-43.54 2.49,-65.42"
         style="fill:#7a5f49;fill-opacity:1;fill-rule:nonzero;stroke:none"
         transform="matrix(0.13333333,0,0,-0.13333333,0,1496)" />
      <path
         id="path13"
         d="m 5501.7,9100.5 c -1.71,25.26 -2.51,46.14 -2.51,65.69 l 8.07,0.18 c 0.96,-21.76 1.74,-43.59 2.5,-65.46 l -8.06,-0.41"
         style="fill:#7a5f49;fill-opacity:1;fill-rule:nonzero;stroke:none"
         transform="matrix(0.13333333,0,0,-0.13333333,0,1496)" />
      <path
         id="path14"
         d="m 5676.79,8667.02 c -3.42,-27.97 -6.83,-55.93 -10.24,-83.89 l 8.03,-7.38 c 2.71,30.31 3.45,60.84 2.21,91.27"
         style="fill:#7a5f49;fill-opacity:1;fill-rule:nonzero;stroke:none"
         transform="matrix(0.13333333,0,0,-0.13333333,0,1496)" />
      <path
         id="path15"
         d="m 5670.81,8584.7 0.44,-0.41 c 0.24,3.15 0.46,6.29 0.66,9.44 z m 7.07,-17.46 -15.59,14.32 10.49,85.95 8.04,-0.33 c 1.25,-30.47 0.5,-61.36 -2.21,-91.79 l -0.73,-8.15"
         style="fill:#7a5f49;fill-opacity:1;fill-rule:nonzero;stroke:none"
         transform="matrix(0.13333333,0,0,-0.13333333,0,1496)" />
      <path
         id="path16"
         d="m 5631.53,5881.2 c -2.07,-152.47 -4.13,-304.93 -6.19,-457.4 l -2.87,167.71 c 0.09,-232.1 0.19,-464.2 0.29,-696.3 15.03,317.72 18.06,659.12 8.77,985.99"
         style="fill:#7a5f49;fill-opacity:1;fill-rule:nonzero;stroke:none"
         transform="matrix(0.13333333,0,0,-0.13333333,0,1496)" />
      <path
         id="path17"
         d="m 5626.57,5423.74 0.14,-322.03 c 5.28,174.1 7.12,352.5 5.47,529.62 l -2.81,-207.59 h -2.8 m 0.22,-528.72 -8.07,0.19 -0.29,696.3 5.14,0.04 3.92,289.71 8.07,0.06 c 9.31,-327.21 6.27,-668.26 -8.77,-986.3"
         style="fill:#7a5f49;fill-opacity:1;fill-rule:nonzero;stroke:none"
         transform="matrix(0.13333333,0,0,-0.13333333,0,1496)" />
      <path
         id="path18"
         d="m 5715.1,4859.26 c 4.15,280.22 8.5,515.97 -5.53,792.27 -0.57,-64.21 5.78,-121.18 5.06,-186 -0.71,-64.51 -6.35,-127.42 -8.05,-191.64 -3.98,-149.93 -1.39,-306.74 -0.8,-457.19 1.19,-298.34 6.43,-597.05 20.07,-891.86 -11.75,309.46 -15.36,622.68 -10.75,934.42"
         style="fill:#7a5f49;fill-opacity:1;fill-rule:nonzero;stroke:none"
         transform="matrix(0.13333333,0,0,-0.13333333,0,1496)" />
      <path
         id="path19"
         d="m 5714.46,5359.37 -0.03,-0.66 c -1.5,-27.76 -3.06,-56.46 -3.81,-84.93 -3.07,-115.44 -2.23,-236 -1.42,-352.59 0.24,-35.05 0.49,-69.93 0.62,-104.47 0.06,-14.13 0.12,-28.14 0.2,-42.11 0.28,28.25 0.63,56.5 1.05,84.71 l 0.54,36.54 c 2.43,162.53 4.65,311.37 2.85,463.51 m 7.36,-1434.71 -0.01,0.03 c -12.15,262.78 -18.71,554.56 -20.06,891.99 -0.14,34.54 -0.38,69.41 -0.63,104.45 -0.81,116.66 -1.64,237.29 1.42,352.87 0.76,28.57 2.32,57.33 3.83,85.14 1.88,34.74 3.83,70.66 4.22,106.43 0.37,32.7 -1.1,63.94 -2.52,94.15 -1.39,29.52 -2.82,60.03 -2.55,91.84 l 8.07,0.17 c 13.44,-264.34 10.04,-492.18 6.1,-756 l -0.55,-36.53 -4.04,0.06 4.04,-0.06 c -4.6,-311.07 -0.98,-625.37 10.75,-934.2 l -8.07,-0.34"
         style="fill:#7a5f49;fill-opacity:1;fill-rule:nonzero;stroke:none"
         transform="matrix(0.13333333,0,0,-0.13333333,0,1496)" />
      <path
         id="path20"
         d="m 5632.65,3770.95 c -1.17,72.13 8.06,257.94 -10.68,309.31 1.15,-324.75 15.56,-653.29 25.76,-980.69 -3.17,108 -6.44,215.99 -8.68,323.89 -2.4,115.8 -4.54,231.63 -6.4,347.49"
         style="fill:#7a5f49;fill-opacity:1;fill-rule:nonzero;stroke:none"
         transform="matrix(0.13333333,0,0,-0.13333333,0,1496)" />
      <path
         id="path21"
         d="m 5626.26,4033.74 c 0.47,-64.65 1.45,-129.67 2.78,-194.8 0.02,1.36 0.03,2.73 0.06,4.1 0.87,61.06 1.99,138.61 -2.84,190.7 z m 17.43,-934.29 c -2.46,79.07 -5.17,158.21 -7.87,237.35 -8.37,244.37 -17.02,497.07 -17.89,743.45 l -0.08,23.09 7.91,-21.69 c 14.28,-39.16 12.62,-154.5 11.4,-238.72 -0.41,-28.89 -0.77,-53.84 -0.48,-71.92 v 0 c 1.86,-115.32 4.02,-232.22 6.41,-347.47 2.05,-98.72 5.01,-199.18 7.86,-296.34 l 0.82,-27.51 -8.08,-0.24"
         style="fill:#7a5f49;fill-opacity:1;fill-rule:nonzero;stroke:none"
         transform="matrix(0.13333333,0,0,-0.13333333,0,1496)" />
      <path
         id="path22"
         d="m 5647.73,3099.57 c 3.54,-120.39 6.96,-240.8 8.69,-361.09 -1.73,120.04 -4.93,240.49 -8.69,361.09"
         style="fill:#7a5f49;fill-opacity:1;fill-rule:nonzero;stroke:none"
         transform="matrix(0.13333333,0,0,-0.13333333,0,1496)" />
      <path
         id="path23"
         d="m 5652.38,2738.42 c -0.02,1.86 -0.05,3.73 -0.08,5.59 -1.74,117.01 -5.06,234.92 -8.61,355.45 l 8.08,0.24 v -0.01 c 4.33,-139.18 7.08,-252.46 8.61,-355.91 0.02,-1.67 0.04,-3.34 0.07,-5.01 v -0.23 l -8.07,-0.12"
         style="fill:#7a5f49;fill-opacity:1;fill-rule:nonzero;stroke:none"
         transform="matrix(0.13333333,0,0,-0.13333333,0,1496)" />
      <path
         id="path24"
         d="m 5563.17,3174.07 c -7.9,-353.64 4.28,-783.17 7.8,-1144.48 -3.83,392.56 13.42,745.79 -7.8,1144.48"
         style="fill:#7a5f49;fill-opacity:1;fill-rule:nonzero;stroke:none"
         transform="matrix(0.13333333,0,0,-0.13333333,0,1496)" />
      <path
         id="path25"
         d="m 5565.11,3036.02 c -1.57,-177.38 0.63,-367.61 3.46,-556.64 1.77,186.72 2.94,366.77 -3.46,556.64 z m 1.82,-1006.47 c -1,103.44 -2.69,210.45 -4.47,323.74 -4.41,279.45 -8.96,568.42 -3.32,820.87 l 8.06,0.12 c 13.69,-257.12 11.44,-490.35 9.04,-737.28 -1.27,-131.7 -2.59,-267.89 -1.23,-407.37 l -8.08,-0.08"
         style="fill:#7a5f49;fill-opacity:1;fill-rule:nonzero;stroke:none"
         transform="matrix(0.13333333,0,0,-0.13333333,0,1496)" />
      <path
         id="path26"
         d="m 5530.96,3695.54 c -0.96,374.79 28.94,711.84 2.21,1092.65 -16.02,-337.52 -3.09,-747.69 -2.21,-1092.65"
         style="fill:#7a5f49;fill-opacity:1;fill-rule:nonzero;stroke:none"
         transform="matrix(0.13333333,0,0,-0.13333333,0,1496)" />
      <path
         id="path27"
         d="m 5533.98,4708.27 c -7.28,-214.87 -4.72,-452.52 -1.97,-684.12 0.55,20.3 1.11,40.5 1.67,60.58 5.8,209.76 11.33,409.18 0.3,623.54 z m -7.05,-1012.74 c -0.26,98.76 -1.47,200.93 -2.76,309.1 -3.18,266.84 -6.47,542.76 4.97,783.75 l 8.06,0.09 c 17.24,-245.62 11.07,-468.26 4.54,-703.96 -3.48,-125.75 -7.08,-255.77 -6.74,-388.96 l -8.07,-0.02"
         style="fill:#7a5f49;fill-opacity:1;fill-rule:nonzero;stroke:none"
         transform="matrix(0.13333333,0,0,-0.13333333,0,1496)" />
      <path
         id="path28"
         d="m 5704.4,6619.04 c 2.85,-170.06 5.06,-341.07 12.29,-509.29 5.92,167.85 -6.71,339.41 -12.29,509.29"
         style="fill:#7a5f49;fill-opacity:1;fill-rule:nonzero;stroke:none"
         transform="matrix(0.13333333,0,0,-0.13333333,0,1496)" />
      <path
         id="path29"
         d="m 5712.65,6109.58 c -6.4,149.19 -8.91,302.88 -11.33,451.5 l -0.95,57.89 8.07,0.2 c 1.53,-46.67 3.64,-94.27 5.66,-140.3 5.37,-121.62 10.93,-247.38 6.62,-369.26 l -8.07,-0.03"
         style="fill:#7a5f49;fill-opacity:1;fill-rule:nonzero;stroke:none"
         transform="matrix(0.13333333,0,0,-0.13333333,0,1496)" />
      <path
         id="path30"
         d="m 5730.68,7063.91 c -3.41,-27.96 -6.83,-55.93 -10.24,-83.89 l 8.04,-7.38 c 2.7,30.31 3.44,60.84 2.2,91.27"
         style="fill:#7a5f49;fill-opacity:1;fill-rule:nonzero;stroke:none"
         transform="matrix(0.13333333,0,0,-0.13333333,0,1496)" />
      <path
         id="path31"
         d="m 5724.7,6981.59 0.44,-0.4 c 0.24,3.13 0.46,6.27 0.66,9.41 z m 7.07,-17.46 -15.59,14.32 10.5,85.95 8.04,-0.33 c 1.24,-30.49 0.49,-61.37 -2.22,-91.79 l -0.73,-8.15"
         style="fill:#7a5f49;fill-opacity:1;fill-rule:nonzero;stroke:none"
         transform="matrix(0.13333333,0,0,-0.13333333,0,1496)" />
      <path
         id="path32"
         d="m 5389.43,5429.54 v 302.86 h 163.02 c 0.55,-63.81 1.08,-128.12 1.56,-192.53 l -164.58,-110.33 m 173.54,116.33 c -0.11,62.4 -0.18,124.71 -0.23,186.53 h 31.36 31.37 l -1.9,-140.85 -5.14,-0.04 v -8.46 l -55.46,-37.18"
         style="fill:#7f644d;fill-opacity:1;fill-rule:nonzero;stroke:none"
         transform="matrix(0.13333333,0,0,-0.13333333,0,1496)" />
      <path
         id="path33"
         d="m 5554.01,5539.87 c -0.48,64.41 -1.01,128.72 -1.56,192.53 h 10.29 c 0.05,-61.82 0.12,-124.13 0.23,-186.53 l -8.96,-6"
         style="fill:#715945;fill-opacity:1;fill-rule:nonzero;stroke:none"
         transform="matrix(0.13333333,0,0,-0.13333333,0,1496)" />
      <path
         id="path34"
         d="m 5631.65,5591.91 0.53,39.42 c 0.12,-12.94 0.22,-25.91 0.31,-38.86 l -0.84,-0.56"
         style="fill:#715945;fill-opacity:1;fill-rule:nonzero;stroke:none"
         transform="matrix(0.13333333,0,0,-0.13333333,0,1496)" />
      <path
         id="path35"
         d="m 5640.53,5597.86 c -0.31,44.94 -0.84,89.81 -1.6,134.54 h 191.64 v -7.14 L 5713.83,5647 c -0.08,1.58 -0.16,3.15 -0.24,4.73 l -8.07,-0.17 c -0.03,-3.4 -0.04,-6.78 -0.03,-10.15 l -64.96,-43.55"
         style="fill:#7f644d;fill-opacity:1;fill-rule:nonzero;stroke:none"
         transform="matrix(0.13333333,0,0,-0.13333333,0,1496)" />
      <path
         id="path36"
         d="m 5618.43,5583.05 v 8.46 l 5.14,0.04 1.9,140.85 h 13.46 c 0.76,-44.73 1.29,-89.6 1.6,-134.54 l -8.04,-5.39 c -0.09,12.95 -0.19,25.92 -0.31,38.86 l -0.53,-39.42 -13.22,-8.86"
         style="fill:#715945;fill-opacity:1;fill-rule:nonzero;stroke:none"
         transform="matrix(0.13333333,0,0,-0.13333333,0,1496)" />
      <path
         id="path37"
         d="m 5705.49,5641.41 c -0.01,3.37 0,6.75 0.03,10.15 l 8.07,0.17 c 0.08,-1.58 0.16,-3.15 0.24,-4.73 l -8.34,-5.59"
         style="fill:#715945;fill-opacity:1;fill-rule:nonzero;stroke:none"
         transform="matrix(0.13333333,0,0,-0.13333333,0,1496)" />
      <path
         id="path38"
         d="M 8144.68,5732.4 H 3030.12 c -87.43,0 -160.83,67.11 -167.16,154.31 -7.49,103.07 1.19,248.29 4.74,410.69 l 36.99,1687.81 c 1.16,53.08 0.17,94.93 -0.94,129.72 -4.6,144.26 111.03,263.67 255.36,263.67 l 4951.94,9.31 c 322.96,0 239.17,-558.81 239.17,-1236.65 v -916.21 c 0,-132.49 0,-238.39 -6.58,-319.88 -8.34,-103.4 -95.22,-182.77 -198.96,-182.77"
         style="fill:#8d735c;fill-opacity:1;fill-rule:nonzero;stroke:none"
         transform="matrix(0.13333333,0,0,-0.13333333,0,1496)" />
      <path
         id="path39"
         d="m 7461.25,7662.2 c -145.37,5.43 -387.35,12.84 -624.85,12.84 -42.25,0 -84.36,-0.23 -125.74,-0.75 87.84,3.89 186.01,6.53 290.76,6.53 144.17,0 300.77,-5 459.83,-18.62"
         style="fill:#846953;fill-opacity:1;fill-rule:nonzero;stroke:none"
         transform="matrix(0.13333333,0,0,-0.13333333,0,1496)" />
      <path
         id="path40"
         d="m 7596.43,7648.54 c -5.21,0.24 -388.26,18.43 -760.1,18.43 -134.5,0 -267.5,-2.38 -380.67,-8.85 0.05,0.01 0.09,0.01 0.11,0.01 l -0.56,8.05 c -0.02,0 -0.03,0 -0.04,0 127.02,10.59 321.6,22.71 546.26,22.71 185.1,0 390.61,-8.23 595.67,-32.31 l -0.67,-8.04 m -760.03,26.5 c 237.5,0 479.48,-7.41 624.85,-12.84 -159.06,13.62 -315.66,18.62 -459.83,18.62 -104.75,0 -202.92,-2.64 -290.76,-6.53 41.38,0.52 83.49,0.75 125.74,0.75"
         style="fill:#846953;fill-opacity:1;fill-rule:nonzero;stroke:none"
         transform="matrix(0.13333333,0,0,-0.13333333,0,1496)" />
      <path
         id="path41"
         d="m 6239.8,7635.78 -1.27,7.97 c 52.58,9.67 125.47,17.22 216.64,22.43 -0.03,0 -0.05,0 -0.08,-0.01 l 0.57,-8.05 v 0 c -132.98,-11.08 -215.04,-22.22 -215.86,-22.34"
         style="fill:#846953;fill-opacity:1;fill-rule:nonzero;stroke:none"
         transform="matrix(0.13333333,0,0,-0.13333333,0,1496)" />
      <path
         id="path42"
         d="m 6455.66,7658.12 -0.57,8.05 c 0.03,0.01 0.05,0.01 0.08,0.01 0.01,0 0.02,0 0.04,0 l 0.56,-8.05 c -0.02,0 -0.06,0 -0.08,-0.01 -0.03,0 -0.03,0 -0.03,0"
         style="fill:#816650;fill-opacity:1;fill-rule:nonzero;stroke:none"
         transform="matrix(0.13333333,0,0,-0.13333333,0,1496)" />
      <path
         id="path43"
         d="m 5983.76,7580.41 c -26.59,0 -53.32,0.93 -78.6,1.81 -11.16,0.39 -22.1,0.77 -32.71,1.07 l -253.44,7.01 0.01,0.82 174.02,-2.76 c 3.56,-0.06 7.31,-0.09 11.21,-0.09 19.36,0 42.63,0.65 67.04,1.32 28.21,0.78 58.99,1.62 88.81,1.62 39.53,0 77.36,-1.48 105.17,-6.59 -25.82,-3.18 -53.59,-4.21 -81.51,-4.21"
         style="fill:#846953;fill-opacity:1;fill-rule:nonzero;stroke:none"
         transform="matrix(0.13333333,0,0,-0.13333333,0,1496)" />
      <path
         id="path44"
         d="m 5983.81,7572.33 c -26.74,0 -53.55,0.94 -78.93,1.82 -11.14,0.39 -22.07,0.77 -32.65,1.07 l -253.32,7 0.1,8.08 253.44,-7.01 c 10.61,-0.3 21.55,-0.68 32.71,-1.07 25.28,-0.88 52.01,-1.81 78.6,-1.81 27.92,0 55.69,1.03 81.51,4.21 -27.81,5.11 -65.64,6.59 -105.17,6.59 -29.82,0 -60.6,-0.84 -88.81,-1.62 -24.41,-0.67 -47.68,-1.32 -67.04,-1.32 -3.9,0 -7.65,0.03 -11.21,0.09 l -174.02,2.76 0.11,8.07 174.03,-2.76 c 3.44,-0.05 7.06,-0.07 10.84,-0.07 19.29,0 42.62,0.63 67.07,1.3 28.19,0.78 58.93,1.63 88.78,1.63 50.66,0 98.78,-2.44 127.54,-11.78 l 15.32,-4.98 -15.85,-2.84 c -31.76,-5.68 -67.33,-7.36 -103.05,-7.36"
         style="fill:#846953;fill-opacity:1;fill-rule:nonzero;stroke:none"
         transform="matrix(0.13333333,0,0,-0.13333333,0,1496)" />
      <path
         id="path45"
         d="m 6083.96,7741.91 c -42.79,0 -86.74,1.07 -131.67,3.2 -21.74,1.04 -42.84,2.57 -61.27,8.45 35.05,-0.99 70.13,-2.13 105.22,-3.27 67.4,-2.2 136.34,-4.44 205.23,-5.55 -38.08,-1.89 -77.28,-2.83 -117.51,-2.83"
         style="fill:#846953;fill-opacity:1;fill-rule:nonzero;stroke:none"
         transform="matrix(0.13333333,0,0,-0.13333333,0,1496)" />
      <path
         id="path46"
         d="m 6083.91,7733.83 c -42.91,0 -86.95,1.07 -132,3.22 -30.51,1.45 -59.85,3.88 -83.5,17.62 l -13.68,7.94 15.81,-0.41 c 41.95,-1.11 83.95,-2.48 125.97,-3.84 94.66,-3.09 192.37,-6.25 288.63,-6.25 5.57,0 11.13,0.01 16.7,0.03 l 0.42,-8.05 c -68.54,-6.83 -141.61,-10.26 -218.35,-10.26 m -192.89,19.73 c 18.43,-5.88 39.53,-7.41 61.27,-8.45 44.93,-2.13 88.88,-3.2 131.67,-3.2 40.23,0 79.43,0.94 117.51,2.83 -68.89,1.11 -137.83,3.35 -205.23,5.55 -35.09,1.14 -70.17,2.28 -105.22,3.27"
         style="fill:#846953;fill-opacity:1;fill-rule:nonzero;stroke:none"
         transform="matrix(0.13333333,0,0,-0.13333333,0,1496)" />
      <path
         id="path47"
         d="m 7984.23,7723.2 c 0.03,0 0.06,0.01 0.09,0.01 l -0.51,8.05 h -0.07 c 22.52,1.91 41.16,2.8 58.67,2.8 l 0.22,-8.06 c -19.41,-1.08 -38.9,-1.96 -58.4,-2.8"
         style="fill:#846953;fill-opacity:1;fill-rule:nonzero;stroke:none"
         transform="matrix(0.13333333,0,0,-0.13333333,0,1496)" />
      <path
         id="path48"
         d="m 7803.44,7707.72 c -13.44,0 -26.82,0.52 -40.12,1.73 l -39.72,3.63 39.64,4.4 c 64.63,7.19 131.13,10 195.45,12.71 l 25.05,1.07 c -0.03,0 -0.06,-0.01 -0.1,-0.01 l 0.52,-8.05 c 0.02,0 0.04,0 0.07,0 -20.12,-1.71 -40.66,-4.06 -60.52,-6.33 -39.54,-4.52 -80.1,-9.15 -120.27,-9.15"
         style="fill:#846953;fill-opacity:1;fill-rule:nonzero;stroke:none"
         transform="matrix(0.13333333,0,0,-0.13333333,0,1496)" />
      <path
         id="path49"
         d="m 7984.16,7723.2 -0.52,8.05 c 0.04,0 0.07,0.01 0.1,0.01 h 0.07 l 0.51,-8.05 c -0.03,0 -0.06,-0.01 -0.09,-0.01 -0.03,0 -0.05,0 -0.07,0"
         style="fill:#816650;fill-opacity:1;fill-rule:nonzero;stroke:none"
         transform="matrix(0.13333333,0,0,-0.13333333,0,1496)" />
      <path
         id="path50"
         d="m 7542.43,7539.89 c -6.65,0.38 -13.29,0.89 -19.9,1.54 l 0.98,1.35 18.92,-2.89"
         style="fill:#846953;fill-opacity:1;fill-rule:nonzero;stroke:none"
         transform="matrix(0.13333333,0,0,-0.13333333,0,1496)" />
      <path
         id="path51"
         d="m 7571.1,7530.99 c -18.86,0 -37.75,1.05 -56.43,3.14 l -6.93,0.78 12.16,16.59 116.56,-17.83 -39.63,-2.02 c -8.55,-0.44 -17.14,-0.66 -25.73,-0.66 m -47.59,11.79 -0.98,-1.35 c 6.61,-0.65 13.25,-1.16 19.9,-1.54 l -18.92,2.89"
         style="fill:#846953;fill-opacity:1;fill-rule:nonzero;stroke:none"
         transform="matrix(0.13333333,0,0,-0.13333333,0,1496)" />
      <path
         id="path52"
         d="m 7930.34,8227.5 c -179.56,6.43 -486.27,15.59 -778.45,15.59 -31.09,0 -61.96,-0.11 -92.55,-0.33 93.28,3.22 196.6,5.35 306.62,5.35 175.67,0 368.4,-5.44 564.38,-20.61"
         style="fill:#846953;fill-opacity:1;fill-rule:nonzero;stroke:none"
         transform="matrix(0.13333333,0,0,-0.13333333,0,1496)" />
      <path
         id="path53"
         d="m 8087.23,8213.26 c -6.3,0.29 -488,21.75 -935.33,21.75 -137.68,0 -272.06,-2.03 -388.38,-7.34 l -0.45,8.06 c 141.46,9.65 355.27,20.45 602.88,20.45 222.59,0 472.49,-8.72 721.88,-34.87 l -0.6,-8.05 m -935.34,29.83 c 292.18,0 598.89,-9.16 778.45,-15.59 -195.98,15.17 -388.71,20.61 -564.38,20.61 -110.02,0 -213.34,-2.13 -306.62,-5.35 30.59,0.22 61.46,0.33 92.55,0.33"
         style="fill:#846953;fill-opacity:1;fill-rule:nonzero;stroke:none"
         transform="matrix(0.13333333,0,0,-0.13333333,0,1496)" />
      <path
         id="path54"
         d="m 7275.35,7921.34 c -70.85,0.01 -143.69,0.6 -218.22,1.91 -15.43,0.27 -30.67,0.6 -45.45,1.19 38.9,-0.45 77.83,-0.91 116.76,-1.38 48.55,-0.59 97.59,-1.18 146.91,-1.72"
         style="fill:#846953;fill-opacity:1;fill-rule:nonzero;stroke:none"
         transform="matrix(0.13333333,0,0,-0.13333333,0,1496)" />
      <path
         id="path55"
         d="m 7268.67,7913.27 c -68.8,0 -139.43,0.63 -211.68,1.9 -48.34,0.86 -94.79,2.28 -131.89,10.26 l -38.91,8.37 39.8,-0.38 c 67.46,-0.66 134.99,-1.48 202.54,-2.29 151.18,-1.83 307.2,-3.72 461.02,-3.72 9.69,0 19.35,0.01 29.02,0.02 l 0.15,-8.07 c -109.84,-4.06 -227,-6.09 -350.05,-6.09 m -256.99,11.17 c 14.78,-0.59 30.02,-0.92 45.45,-1.19 74.53,-1.31 147.37,-1.9 218.22,-1.91 -49.32,0.54 -98.36,1.13 -146.91,1.72 -38.93,0.47 -77.86,0.93 -116.76,1.38"
         style="fill:#846953;fill-opacity:1;fill-rule:nonzero;stroke:none"
         transform="matrix(0.13333333,0,0,-0.13333333,0,1496)" />
      <path
         id="path56"
         d="m 7030.05,7192.41 c 0.02,0 0.04,0 0.06,0 l -0.46,8.06 c -0.03,0 -0.07,0 -0.1,0 v 0 c 154.37,10.53 249.63,21.34 250.58,21.44 l 1.07,-8 c -60.97,-9.44 -145.46,-16.68 -251.15,-21.5"
         style="fill:#846953;fill-opacity:1;fill-rule:nonzero;stroke:none"
         transform="matrix(0.13333333,0,0,-0.13333333,0,1496)" />
      <path
         id="path57"
         d="m 6427.23,7180.04 c -175.67,0 -368.41,5.44 -564.4,20.6 179.51,-6.43 486.08,-15.59 778.17,-15.59 31.11,0 62.1,0.11 92.71,0.33 -93.24,-3.21 -196.5,-5.34 -306.48,-5.34"
         style="fill:#846953;fill-opacity:1;fill-rule:nonzero;stroke:none"
         transform="matrix(0.13333333,0,0,-0.13333333,0,1496)" />
      <path
         id="path58"
         d="m 6427.23,7171.96 c -222.59,0 -472.51,8.73 -721.89,34.87 l 0.6,8.05 c 6.3,-0.28 487.96,-21.75 935.29,-21.75 137.65,0 272.02,2.03 388.32,7.34 l 0.46,-8.06 c 0.02,0 0.03,0 0.04,0 -141.48,-9.65 -355.24,-20.45 -602.82,-20.45 m -564.4,28.68 c 195.99,-15.16 388.73,-20.6 564.4,-20.6 109.98,0 213.24,2.13 306.48,5.34 -30.61,-0.22 -61.6,-0.33 -92.71,-0.33 -292.09,0 -598.66,9.16 -778.17,15.59"
         style="fill:#846953;fill-opacity:1;fill-rule:nonzero;stroke:none"
         transform="matrix(0.13333333,0,0,-0.13333333,0,1496)" />
      <path
         id="path59"
         d="m 7030.01,7192.41 -0.46,8.06 c 0.03,0 0.07,0 0.1,0 l 0.46,-8.06 c -0.02,0 -0.04,0 -0.06,0 -0.01,0 -0.02,0 -0.04,0"
         style="fill:#816650;fill-opacity:1;fill-rule:nonzero;stroke:none"
         transform="matrix(0.13333333,0,0,-0.13333333,0,1496)" />
      <path
         id="path60"
         d="m 8023.97,7367.14 c -28.22,1.59 -92.23,3.01 -237.68,6.01 -57.58,1.19 -122.68,2.45 -189.92,3.7 43.2,0.57 86.72,0.98 130.43,0.98 89.22,0 179.23,-1.72 268.96,-7.35 12.64,-0.79 21.75,-2.02 28.21,-3.34"
         style="fill:#846953;fill-opacity:1;fill-rule:nonzero;stroke:none"
         transform="matrix(0.13333333,0,0,-0.13333333,0,1496)" />
      <path
         id="path61"
         d="m 8041.25,7358.13 c -13.1,2.66 -424.61,10.69 -713.86,15.27 0.03,0 0.05,0 0.08,0 l 0.04,8.08 h -0.01 c 61.63,0.24 124.32,1.23 184.95,2.19 70.57,1.11 142.23,2.24 214.41,2.24 89.34,0 179.48,-1.73 269.41,-7.37 49.14,-3.08 49.88,-12.67 50.16,-16.28 l -4.02,-0.31 -1.16,-3.82 m -314.45,19.7 c -43.71,0 -87.23,-0.41 -130.43,-0.98 67.24,-1.25 132.34,-2.51 189.92,-3.7 145.45,-3 209.46,-4.42 237.68,-6.01 -6.46,1.32 -15.57,2.55 -28.21,3.34 -89.73,5.63 -179.74,7.35 -268.96,7.35"
         style="fill:#846953;fill-opacity:1;fill-rule:nonzero;stroke:none"
         transform="matrix(0.13333333,0,0,-0.13333333,0,1496)" />
      <path
         id="path62"
         d="m 7297.56,7373.34 c -62.75,0 -116.59,0.84 -167.52,2.61 l 0.13,8.07 c 0.67,0 1.4,0 2.2,0 22.61,0 93.05,-0.92 195.13,-2.54 -0.03,0 -0.04,0 -0.07,0 l -0.04,-8.08 v 0 c -10.16,-0.04 -20.11,-0.06 -29.83,-0.06"
         style="fill:#846953;fill-opacity:1;fill-rule:nonzero;stroke:none"
         transform="matrix(0.13333333,0,0,-0.13333333,0,1496)" />
      <path
         id="path63"
         d="m 7327.39,7373.4 v 0 l 0.04,8.08 c 0.03,0 0.04,0 0.07,0 h 0.01 l -0.04,-8.08 c -0.03,0 -0.05,0 -0.07,0"
         style="fill:#816650;fill-opacity:1;fill-rule:nonzero;stroke:none"
         transform="matrix(0.13333333,0,0,-0.13333333,0,1496)" />
      <path
         id="path64"
         d="m 7818.65,7253.63 -18.93,2.9 c 6.66,-0.38 13.3,-0.9 19.91,-1.54 l -0.98,-1.36"
         style="fill:#846953;fill-opacity:1;fill-rule:nonzero;stroke:none"
         transform="matrix(0.13333333,0,0,-0.13333333,0,1496)" />
      <path
         id="path65"
         d="m 7822.26,7244.91 -116.55,17.83 39.62,2.03 c 8.53,0.43 17.1,0.65 25.68,0.65 18.87,0 37.78,-1.05 56.48,-3.14 l 6.92,-0.77 -12.15,-16.6 m -22.54,11.62 18.93,-2.9 0.98,1.36 c -6.61,0.64 -13.25,1.16 -19.91,1.54"
         style="fill:#846953;fill-opacity:1;fill-rule:nonzero;stroke:none"
         transform="matrix(0.13333333,0,0,-0.13333333,0,1496)" />
      <path
         id="path66"
         d="m 6215.59,7312.64 -600.17,9.52 0.2,15.14 600.14,-16.58 -0.17,-8.08"
         style="fill:#846953;fill-opacity:1;fill-rule:nonzero;stroke:none"
         transform="matrix(0.13333333,0,0,-0.13333333,0,1496)" />
      <path
         id="path67"
         d="m 6403.02,6664.45 c -179.56,6.43 -486.28,15.58 -778.46,15.58 -5.93,0 -11.84,-0.01 -17.76,-0.01 l 0.03,1.96 c 72.7,1.91 150.39,3.08 231.78,3.08 175.67,0 368.41,-5.45 564.41,-20.61"
         style="fill:#846953;fill-opacity:1;fill-rule:nonzero;stroke:none"
         transform="matrix(0.13333333,0,0,-0.13333333,0,1496)" />
      <path
         id="path68"
         d="m 6559.9,6650.2 c -6.3,0.29 -488.02,21.75 -935.34,21.75 -5.97,0 -11.91,0 -17.86,-0.01 l 0.1,8.08 c 5.92,0 11.83,0.01 17.76,0.01 292.18,0 598.9,-9.15 778.46,-15.58 -196,15.16 -388.74,20.61 -564.41,20.61 -81.39,0 -159.08,-1.17 -231.78,-3.08 l 0.11,8.07 c 72.66,1.91 150.33,3.07 231.66,3.07 222.61,0 472.5,-8.72 721.9,-34.87 l -0.6,-8.05"
         style="fill:#846953;fill-opacity:1;fill-rule:nonzero;stroke:none"
         transform="matrix(0.13333333,0,0,-0.13333333,0,1496)" />
      <path
         id="path69"
         d="m 8120.15,6982.94 c -145.37,5.43 -387.35,12.84 -624.85,12.84 -42.26,0 -84.36,-0.23 -125.75,-0.75 87.84,3.89 186.02,6.53 290.77,6.53 144.17,0 300.76,-5 459.83,-18.62"
         style="fill:#846953;fill-opacity:1;fill-rule:nonzero;stroke:none"
         transform="matrix(0.13333333,0,0,-0.13333333,0,1496)" />
      <path
         id="path70"
         d="m 8255.33,6969.28 c -5.21,0.25 -388.22,18.43 -760.03,18.43 -134.53,0 -267.55,-2.38 -380.74,-8.85 l -0.57,8.06 c 127,10.59 321.62,22.71 546.3,22.71 185.12,0 390.62,-8.22 595.71,-32.31 l -0.67,-8.04 m -760.03,26.5 c 237.5,0 479.48,-7.41 624.85,-12.84 -159.07,13.62 -315.66,18.62 -459.83,18.62 -104.75,0 -202.93,-2.64 -290.77,-6.53 41.39,0.52 83.49,0.75 125.75,0.75"
         style="fill:#846953;fill-opacity:1;fill-rule:nonzero;stroke:none"
         transform="matrix(0.13333333,0,0,-0.13333333,0,1496)" />
      <path
         id="path71"
         d="m 7425.92,6577.07 -1.28,7.97 c 52.61,9.67 125.51,17.22 216.68,22.43 l 0.57,-8.05 c -133.05,-11.09 -215.15,-22.24 -215.97,-22.35"
         style="fill:#846953;fill-opacity:1;fill-rule:nonzero;stroke:none"
         transform="matrix(0.13333333,0,0,-0.13333333,0,1496)" />
      <path
         id="path72"
         d="m 7169.93,6521.69 c -26.61,0 -53.35,0.94 -78.65,1.82 -11.16,0.39 -22.1,0.77 -32.71,1.06 l -323.38,8.95 243.97,-3.88 c 3.5,-0.05 7.18,-0.08 11.01,-0.08 19.4,0 42.74,0.64 67.21,1.31 28.23,0.78 59.04,1.63 88.87,1.63 39.52,0 77.33,-1.49 105.14,-6.6 -25.81,-3.18 -53.56,-4.21 -81.46,-4.21"
         style="fill:#846953;fill-opacity:1;fill-rule:nonzero;stroke:none"
         transform="matrix(0.13333333,0,0,-0.13333333,0,1496)" />
      <path
         id="path73"
         d="m 7169.94,6513.62 c -26.74,0 -53.56,0.94 -78.93,1.82 -11.15,0.39 -22.07,0.77 -32.66,1.06 l -1008.27,27.87 0.17,8.07 929.03,-14.72 c 3.42,-0.06 7.01,-0.08 10.76,-0.08 19.26,0 42.63,0.64 67.12,1.3 28.19,0.78 58.95,1.63 88.81,1.63 50.67,0 98.77,-2.44 127.54,-11.78 l 15.32,-4.97 -15.86,-2.84 c -31.75,-5.69 -67.31,-7.36 -103.03,-7.36 m -434.75,19.9 323.38,-8.95 c 10.61,-0.29 21.55,-0.67 32.71,-1.06 25.3,-0.88 52.04,-1.82 78.65,-1.82 27.9,0 55.65,1.03 81.46,4.21 -27.81,5.11 -65.62,6.6 -105.14,6.6 -29.83,0 -60.64,-0.85 -88.87,-1.63 -24.47,-0.67 -47.81,-1.31 -67.21,-1.31 -3.83,0 -7.51,0.03 -11.01,0.08 l -243.97,3.88"
         style="fill:#846953;fill-opacity:1;fill-rule:nonzero;stroke:none"
         transform="matrix(0.13333333,0,0,-0.13333333,0,1496)" />
      <path
         id="path74"
         d="m 7382.5,6683.19 c -65.35,0 -132.48,1.07 -201.12,3.21 -33.29,1.03 -65.6,2.57 -94.01,8.46 53.87,-1 107.77,-2.15 161.7,-3.3 102.8,-2.19 207.96,-4.43 313.03,-5.54 -58.18,-1.89 -118.11,-2.83 -179.6,-2.83"
         style="fill:#846953;fill-opacity:1;fill-rule:nonzero;stroke:none"
         transform="matrix(0.13333333,0,0,-0.13333333,0,1496)" />
      <path
         id="path75"
         d="m 7382.53,6675.12 c -65.47,0 -132.66,1.07 -201.41,3.2 -46.14,1.44 -90.49,3.85 -126,17.35 l -21.59,8.21 23.09,-0.4 c 64.15,-1.1 128.37,-2.48 192.62,-3.85 143.97,-3.06 292.52,-6.24 439.01,-6.24 9.04,0 18.05,0.01 27.07,0.03 l 0.27,-8.06 c -104.51,-6.82 -215.99,-10.24 -333.06,-10.24 m -295.16,19.74 c 28.41,-5.89 60.72,-7.43 94.01,-8.46 68.64,-2.14 135.77,-3.21 201.12,-3.21 61.49,0 121.42,0.94 179.6,2.83 -105.07,1.11 -210.23,3.35 -313.03,5.54 -53.93,1.15 -107.83,2.3 -161.7,3.3"
         style="fill:#846953;fill-opacity:1;fill-rule:nonzero;stroke:none"
         transform="matrix(0.13333333,0,0,-0.13333333,0,1496)" />
      <path
         id="path76"
         d="m 6790.99,8083.91 c -13.44,0 -26.83,0.51 -40.13,1.73 l -39.7,3.63 39.62,4.4 c 64.62,7.19 131.13,10 195.46,12.71 l 25.11,1.07 0.51,-8.05 c -20.14,-1.72 -40.72,-4.07 -60.62,-6.34 -39.54,-4.52 -80.09,-9.15 -120.25,-9.15"
         style="fill:#846953;fill-opacity:1;fill-rule:nonzero;stroke:none"
         transform="matrix(0.13333333,0,0,-0.13333333,0,1496)" />
      <path
         id="path77"
         d="m 6529.98,7916.07 c -6.66,0.39 -13.29,0.9 -19.92,1.55 l 0.99,1.35 18.93,-2.9"
         style="fill:#846953;fill-opacity:1;fill-rule:nonzero;stroke:none"
         transform="matrix(0.13333333,0,0,-0.13333333,0,1496)" />
      <path
         id="path78"
         d="m 6558.64,7907.18 c -18.85,0 -37.74,1.05 -56.43,3.14 l -6.92,0.78 12.14,16.59 116.52,-17.83 -39.58,-2.02 c -8.55,-0.44 -17.14,-0.66 -25.73,-0.66 m -47.59,11.79 -0.99,-1.35 c 6.63,-0.65 13.26,-1.16 19.92,-1.55 l -18.93,2.9"
         style="fill:#846953;fill-opacity:1;fill-rule:nonzero;stroke:none"
         transform="matrix(0.13333333,0,0,-0.13333333,0,1496)" />
      <path
         id="path79"
         d="m 8090.76,6684.68 -0.46,8.06 c 154.37,10.53 249.62,21.33 250.57,21.44 l 1.07,-8 c -60.97,-9.44 -145.48,-16.67 -251.18,-21.5"
         style="fill:#846953;fill-opacity:1;fill-rule:nonzero;stroke:none"
         transform="matrix(0.13333333,0,0,-0.13333333,0,1496)" />
      <path
         id="path80"
         d="m 7613.32,6114.51 c -175.66,0 -368.39,5.44 -564.37,20.61 179.71,-6.44 486.67,-15.58 779.1,-15.58 30.84,0 61.55,0.1 91.9,0.32 -93.28,-3.22 -196.6,-5.35 -306.63,-5.35"
         style="fill:#846953;fill-opacity:1;fill-rule:nonzero;stroke:none"
         transform="matrix(0.13333333,0,0,-0.13333333,0,1496)" />
      <path
         id="path81"
         d="m 7613.37,6106.44 c -222.6,0 -472.51,8.73 -721.91,34.88 l 0.6,8.04 c 6.3,-0.29 487.97,-21.75 935.27,-21.75 137.72,0 272.09,2.03 388.44,7.34 l 0.46,-8.06 c -141.46,-9.65 -355.25,-20.45 -602.86,-20.45 m -564.42,28.68 c 195.98,-15.17 388.71,-20.61 564.37,-20.61 110.03,0 213.35,2.13 306.63,5.35 -30.35,-0.22 -61.06,-0.32 -91.9,-0.32 -292.43,0 -599.39,9.14 -779.1,15.58"
         style="fill:#846953;fill-opacity:1;fill-rule:nonzero;stroke:none"
         transform="matrix(0.13333333,0,0,-0.13333333,0,1496)" />
      <path
         id="path82"
         d="m 5981.43,8042.23 v 0 0 0 m -70.11,5.26 c -1.51,0.02 -3.06,0.04 -4.62,0.05 -48.23,0.51 -118.22,1.08 -205.4,1.7 -23.94,0.17 -49.32,0.35 -76.12,0.53 l 0.04,3.61 c 60.04,-0.77 120.04,-1.64 180.05,-2.63 44.92,-0.74 79.77,-1.89 106.05,-3.26"
         style="fill:#846953;fill-opacity:1;fill-rule:nonzero;stroke:none"
         transform="matrix(0.13333333,0,0,-0.13333333,0,1496)" />
      <path
         id="path83"
         d="m 5980.7,8038.28 c -6.1,0.75 -140.56,1.96 -355.63,3.4 l 0.11,8.09 c 26.8,-0.18 52.18,-0.36 76.12,-0.53 87.18,-0.62 157.17,-1.19 205.4,-1.7 1.56,-0.01 3.11,-0.03 4.62,-0.05 -26.28,1.37 -61.13,2.52 -106.05,3.26 -60.01,0.99 -120.01,1.86 -180.05,2.63 l 0.11,8.07 c 60.03,-0.76 120.07,-1.63 180.06,-2.62 176.24,-2.92 178.62,-11.08 179.91,-15.46 l -3.87,-1.14 v 0 0 l -0.73,-3.95"
         style="fill:#846953;fill-opacity:1;fill-rule:nonzero;stroke:none"
         transform="matrix(0.13333333,0,0,-0.13333333,0,1496)" />
      <path
         id="path84"
         d="m 8052.44,6527.69 c -62.61,0 -116.37,0.84 -167.24,2.61 l 0.14,8.07 c 19.79,-0.1 91.67,-0.87 197.34,-2.55 l -0.04,-8.07 c -10.3,-0.04 -20.37,-0.06 -30.2,-0.06"
         style="fill:#846953;fill-opacity:1;fill-rule:nonzero;stroke:none"
         transform="matrix(0.13333333,0,0,-0.13333333,0,1496)" />
      <path
         id="path85"
         d="m 6182.77,6889.18 -80.03,3.23 c 28.13,-0.42 56.21,-1 84.19,-1.74 l -4.16,-1.49"
         style="fill:#846953;fill-opacity:1;fill-rule:nonzero;stroke:none"
         transform="matrix(0.13333333,0,0,-0.13333333,0,1496)" />
      <path
         id="path86"
         d="m 6184.02,6881.05 -285.21,11.5 0.11,8.07 c 32.23,0.43 64.58,0.65 96.95,0.65 71.06,0 142.26,-1.05 212.67,-3.12 l 21.3,-0.63 -45.82,-16.47 m -81.28,11.36 80.03,-3.23 4.16,1.49 c -27.98,0.74 -56.06,1.32 -84.19,1.74"
         style="fill:#846953;fill-opacity:1;fill-rule:nonzero;stroke:none"
         transform="matrix(0.13333333,0,0,-0.13333333,0,1496)" />
      <path
         id="path87"
         d="m 5600.07,6178.04 0.2,14.71 c 74.18,1.35 145.27,3.71 209.91,7.4 -0.05,0 -0.09,0 -0.11,0 l 0.57,-8.05 c 0.01,0 0.01,0 0.02,0 -57.51,-4.79 -128.86,-9.9 -210.59,-14.06"
         style="fill:#846953;fill-opacity:1;fill-rule:nonzero;stroke:none"
         transform="matrix(0.13333333,0,0,-0.13333333,0,1496)" />
      <path
         id="path88"
         d="m 5810.66,6192.1 c 0.04,0 0.06,0 0.09,0 l -0.57,8.05 v 0 c 132.98,11.09 215.04,22.23 215.86,22.35 l 1.28,-7.98 c -52.59,-9.66 -125.49,-17.21 -216.66,-22.42"
         style="fill:#846953;fill-opacity:1;fill-rule:nonzero;stroke:none"
         transform="matrix(0.13333333,0,0,-0.13333333,0,1496)" />
      <path
         id="path89"
         d="m 5810.64,6192.1 -0.57,8.05 c 0.02,0 0.06,0 0.08,0 0.03,0 0.03,0 0.03,0 l 0.57,-8.05 c -0.03,0 -0.05,0 -0.09,0 -0.01,0 -0.01,0 -0.02,0"
         style="fill:#816650;fill-opacity:1;fill-rule:nonzero;stroke:none"
         transform="matrix(0.13333333,0,0,-0.13333333,0,1496)" />
      <path
         id="path90"
         d="m 6716.73,6266.05 -243.92,3.87 c -3.46,0.05 -7.09,0.08 -10.88,0.08 -19.41,0 -42.83,-0.64 -67.38,-1.32 -28.22,-0.77 -59.02,-1.62 -88.84,-1.62 -39.52,0 -77.33,1.49 -105.14,6.6 25.81,3.18 53.57,4.21 81.49,4.21 26.6,0 53.34,-0.93 78.62,-1.82 11.16,-0.38 22.11,-0.77 32.71,-1.06 l 323.34,-8.94"
         style="fill:#846953;fill-opacity:1;fill-rule:nonzero;stroke:none"
         transform="matrix(0.13333333,0,0,-0.13333333,0,1496)" />
      <path
         id="path91"
         d="m 7401.72,6247.12 -929.04,14.72 c -3.53,0.06 -7.23,0.09 -11.1,0.09 -19.24,0 -42.47,-0.64 -66.81,-1.32 -28.18,-0.77 -58.92,-1.62 -88.77,-1.62 -50.67,0 -98.79,2.44 -127.55,11.78 l -15.32,4.98 15.86,2.83 c 31.75,5.69 67.33,7.36 103.05,7.36 26.73,0 53.55,-0.93 78.92,-1.82 11.14,-0.39 22.06,-0.77 32.65,-1.06 l 1008.28,-27.87 -0.17,-8.07 M 6461.93,6270 c 3.79,0 7.42,-0.03 10.88,-0.08 l 243.92,-3.87 -323.34,8.94 c -10.6,0.29 -21.55,0.68 -32.71,1.06 -25.28,0.89 -52.02,1.82 -78.62,1.82 -27.92,0 -55.68,-1.03 -81.49,-4.21 27.81,-5.11 65.62,-6.6 105.14,-6.6 29.82,0 60.62,0.85 88.84,1.62 24.55,0.68 47.97,1.32 67.38,1.32"
         style="fill:#846953;fill-opacity:1;fill-rule:nonzero;stroke:none"
         transform="matrix(0.13333333,0,0,-0.13333333,0,1496)" />
      <path
         id="path92"
         d="m 6374.82,6104.72 c -35.1,0.99 -70.22,2.13 -105.36,3.28 -67.35,2.19 -136.22,4.44 -205.06,5.54 38.09,1.89 77.3,2.83 117.54,2.83 42.78,0 86.7,-1.06 131.62,-3.2 21.73,-1.04 42.83,-2.57 61.26,-8.45"
         style="fill:#846953;fill-opacity:1;fill-rule:nonzero;stroke:none"
         transform="matrix(0.13333333,0,0,-0.13333333,0,1496)" />
      <path
         id="path93"
         d="m 6411.12,6095.67 -15.81,0.41 c -42.01,1.11 -84.05,2.48 -126.11,3.85 -94.92,3.09 -192.88,6.23 -289.44,6.23 -5.26,0 -10.51,-0.01 -15.76,-0.02 l -0.42,8.05 c 68.54,6.83 141.63,10.25 218.39,10.25 42.89,0 86.93,-1.06 131.96,-3.2 30.51,-1.46 59.85,-3.9 83.5,-17.63 l 13.69,-7.94 m -229.18,20.7 c -40.24,0 -79.45,-0.94 -117.54,-2.83 68.84,-1.1 137.71,-3.35 205.06,-5.54 35.14,-1.15 70.26,-2.29 105.36,-3.28 -18.43,5.88 -39.53,7.41 -61.26,8.45 -44.92,2.14 -88.84,3.2 -131.62,3.2"
         style="fill:#846953;fill-opacity:1;fill-rule:nonzero;stroke:none"
         transform="matrix(0.13333333,0,0,-0.13333333,0,1496)" />
      <path
         id="path94"
         d="m 2873.49,6561.65 -2.72,0.04 0.2,4.16 c 0.24,5.17 0.35,10.35 0.37,15.54 l 0.02,4.09 2.65,-0.05 -0.52,-23.78"
         style="fill:#a89789;fill-opacity:1;fill-rule:nonzero;stroke:none"
         transform="matrix(0.13333333,0,0,-0.13333333,0,1496)" />
      <path
         id="path95"
         d="m 5627,8185.72 0.14,10.32 c 25.47,0.56 47.52,15.02 58.85,36.1 -8.85,-25.1 -31.59,-43.65 -58.99,-46.42"
         style="fill:#776250;fill-opacity:1;fill-rule:nonzero;stroke:none"
         transform="matrix(0.13333333,0,0,-0.13333333,0,1496)" />
      <path
         id="path96"
         d="m 5694.12,8264.55 c 0,-37.84 -30.68,-68.52 -68.52,-68.52 -37.84,0 -68.52,30.68 -68.52,68.52 0,37.84 30.68,68.52 68.52,68.52 37.84,0 68.52,-30.68 68.52,-68.52"
         style="fill:#cacaca;fill-opacity:1;fill-rule:nonzero;stroke:none"
         transform="matrix(0.13333333,0,0,-0.13333333,0,1496)" />
      <path
         id="path97"
         d="m 5657.11,8220.3 c -11.68,7.17 -21.35,15.45 -29.33,23.91 l 0.06,3.94 c 7.57,-8.03 16.68,-15.9 27.58,-22.8 1.23,-3.23 1.69,-5.05 1.69,-5.05"
         style="fill:#a7a6a6;fill-opacity:1;fill-rule:nonzero;stroke:none"
         transform="matrix(0.13333333,0,0,-0.13333333,0,1496)" />
      <path
         id="path98"
         d="m 5637.6,8261.12 c -0.58,0.8 -1.17,1.6 -1.79,2.41 8.26,7.29 17.02,16.24 25.84,27.17 2.68,0.95 4.2,1.36 4.2,1.36 -9.6,-12.58 -19.2,-22.75 -28.25,-30.94"
         style="fill:#a7a6a6;fill-opacity:1;fill-rule:nonzero;stroke:none"
         transform="matrix(0.13333333,0,0,-0.13333333,0,1496)" />
      <path
         id="path99"
         d="m 5657.11,8224.3 c 0,0 -10.25,40.25 -63.01,80.5 0,0 13.63,-50.2 63.01,-80.5"
         style="fill:#dbdbdb;fill-opacity:1;fill-rule:nonzero;stroke:none"
         transform="matrix(0.13333333,0,0,-0.13333333,0,1496)" />
      <path
         id="path100"
         d="m 5585.35,8233.04 c 0,0 40.25,10.25 80.5,63.01 0,0 -50.2,-13.63 -80.5,-63.01"
         style="fill:#dbdbdb;fill-opacity:1;fill-rule:nonzero;stroke:none"
         transform="matrix(0.13333333,0,0,-0.13333333,0,1496)" />
      <path
         id="path101"
         d="m 3159.11,8378.6 2230.32,4.19 v 0 l -2230.32,-4.19"
         style="fill:#f8f8f8;fill-opacity:1;fill-rule:nonzero;stroke:none"
         transform="matrix(0.13333333,0,0,-0.13333333,0,1496)" />
      <path
         id="path102"
         d="m 5389.43,8382.79 v 0 l 240.22,0.45 -240.22,-0.45"
         style="fill:#866a50;fill-opacity:1;fill-rule:nonzero;stroke:none"
         transform="matrix(0.13333333,0,0,-0.13333333,0,1496)" />
      <path
         id="path103"
         d="M 5594.1,5732.4 H 3030.12 c -87.43,0 -160.83,67.11 -167.16,154.31 -2.14,29.39 -2.96,62.21 -2.96,97.88 0,89.41 5.16,196.72 7.7,312.81 l 5.79,264.25 1.46,-0.03 c 29.67,-0.43 58.95,-0.63 87.77,-0.63 222.33,0 416.83,12.04 546.71,22.86 l -0.57,8.05 c -104.07,-5.94 -231.83,-8.92 -381.68,-8.92 -78,0 -162.01,0.8 -251.73,2.42 l -1.44,0.03 30.68,1399.78 c 0.37,16.8 0.52,32.47 0.52,47.14 0,31.72 -0.7,58.8 -1.46,82.58 -0.09,2.82 -0.13,5.63 -0.13,8.42 0.05,140.46 113.98,255.25 255.49,255.25 v 0 l 2230.32,4.19 240.22,0.45 -0.67,-50.25 c -1.12,0.05 -2.25,0.08 -3.38,0.08 -22.83,0 -43.05,-11.16 -55.5,-28.33 -12.54,-12.66 -20.28,-30.08 -20.28,-49.31 0,-38.69 31.37,-70.07 70.07,-70.07 2.4,0 4.77,0.13 7.11,0.36 l -1.67,-124.27 c -281.25,3.57 -562.6,4.74 -841.96,4.74 -273.89,0 -545.85,-1.13 -813.68,-2.24 -230.3,-0.96 -468.44,-1.95 -702.56,-2.19 v -8.08 c 797.09,-3.33 1825.02,-8.41 2357.94,-12 l -5.94,-442.49 -755,11.97 -0.18,-8.07 754.96,-20.87 -3.29,-244.92 -408.13,11.28 c -10.59,0.3 -21.51,0.68 -32.66,1.06 -25.37,0.89 -52.2,1.82 -78.95,1.82 -35.7,0 -71.26,-1.67 -103.01,-7.35 l -15.86,-2.84 15.32,-4.97 c 28.77,-9.35 76.89,-11.78 127.56,-11.78 29.86,0 60.61,0.84 88.79,1.62 24.34,0.67 47.59,1.31 66.8,1.31 3.86,0 7.57,-0.02 11.08,-0.08 l 328.86,-5.21 -8.48,-632.11 c -148.51,-3.9 -276.16,-10.9 -371.15,-17.37 -105.67,-4.83 -190.17,-12.06 -251.14,-21.5 l 1.07,-8 c 0.94,0.11 96.2,10.91 250.57,21.44 v 0 c 111.26,5.07 239.02,7.15 370.41,7.32 l -6.43,-479.19 c -55.74,-1.01 -113.16,-1.45 -170.89,-1.45 -371.78,0 -754.76,18.19 -759.97,18.44 l -0.67,-8.04 c 205.05,-24.08 410.55,-32.31 595.65,-32.31 122.95,0 236.9,3.63 335.68,8.65 L 5594.1,5732.4 M 3892,5912.74 c -166.04,0 -331.99,-0.21 -497.21,-0.65 l -0.03,-8.07 1462.19,-11.46 128.59,9 -0.26,8.06 c -362.11,2.08 -728.09,3.12 -1093.28,3.12 m 389.62,222.34 c -19.5,-0.84 -38.99,-1.73 -58.4,-2.8 l 0.22,-8.06 c 17.5,0 36.14,0.88 58.66,2.8 l 25.05,1.06 c 64.32,2.72 130.82,5.53 195.45,12.71 l 39.63,4.41 -39.71,3.63 c -13.28,1.21 -26.66,1.73 -40.08,1.73 -40.18,0 -80.75,-4.63 -120.3,-9.15 -19.87,-2.27 -40.41,-4.62 -60.52,-6.33 m -535.86,143.24 c -133.54,0 -268.65,-4.61 -400.38,-9.12 -66.59,-2.27 -135.44,-4.63 -202.96,-6.35 l 0.16,-8.07 84.21,1.08 c 214.53,2.7 436.38,5.51 651.72,12.68 l -0.02,8.07 c -43.97,1.2 -88.25,1.71 -132.73,1.71 m 948.97,48.97 c -8.59,0 -17.18,-0.22 -25.72,-0.65 l -39.6,-2.04 116.53,-17.82 12.16,16.59 -6.92,0.78 c -18.7,2.09 -37.6,3.14 -56.45,3.14 m -471.29,175.85 v 0 l -4.03,-0.31 c 0.28,-3.62 1.02,-13.2 50.16,-16.28 89.93,-5.64 180.08,-7.37 269.43,-7.37 72.17,0 143.82,1.13 214.39,2.24 60.64,0.96 123.33,1.95 184.96,2.19 102.44,-1.62 173.17,-2.55 195.38,-2.55 l 1.95,0.01 0.12,8.07 c -50.95,1.77 -104.84,2.61 -167.61,2.61 -9.69,0 -19.61,-0.02 -29.75,-0.06 -289.24,4.58 -700.74,12.61 -713.84,15.27 l -1.16,-3.82 v 0 0 m -113.63,-15.72 v 0 l -13.69,7.94 c -23.66,13.73 -54.22,16.23 -83.5,17.63 -45.05,2.14 -89.09,3.21 -131.99,3.21 -76.75,0 -149.83,-3.43 -218.37,-10.26 l 0.42,-8.05 c 5.25,0.01 10.49,0.02 15.75,0.02 96.59,0 194.53,-3.14 289.45,-6.23 42.06,-1.37 84.1,-2.74 126.11,-3.85 l 15.82,-0.41 m 333.77,132.76 -12.15,-16.6 6.92,-0.77 c 18.69,-2.09 37.58,-3.15 56.43,-3.15 8.6,0 17.18,0.22 25.73,0.66 l 39.62,2.02 -116.55,17.84 m -986.21,275.03 -0.17,-8.07 c 513.58,-15.81 1068.28,-25.51 1648.72,-28.83 l 3.94,-0.03 0.7,22.71 -4.14,0.03 c -905.04,4.87 -1641.71,14.1 -1649.05,14.19 M 5225,7161.19 v 0 l -13.68,7.94 c -23.66,13.74 -53,16.18 -83.5,17.63 -45.06,2.14 -89.11,3.21 -132.01,3.21 -76.75,0 -149.83,-3.42 -218.35,-10.25 l 0.42,-8.06 c 5.72,0.03 11.43,0.04 17.16,0.04 96.08,0 193.55,-3.18 287.99,-6.25 42.08,-1.37 84.14,-2.74 126.16,-3.85 l 15.81,-0.41 m -2129.5,39.41 c -19.51,-0.84 -38.99,-1.72 -58.4,-2.79 l 0.22,-8.07 c 17.55,0 36.2,0.89 58.66,2.8 l 25.15,1.07 c 64.28,2.72 130.76,5.53 195.35,12.71 l 39.61,4.41 -39.7,3.62 c -13.3,1.22 -26.68,1.74 -40.12,1.74 -40.15,0 -80.69,-4.64 -120.22,-9.16 -19.87,-2.27 -40.43,-4.61 -60.55,-6.33 m 387.79,74.67 -0.67,-8.05 c 205.07,-24.08 410.55,-32.3 595.65,-32.3 224.66,0 419.27,12.11 546.27,22.7 91.16,5.21 164.06,12.76 216.66,22.43 l -1.28,7.97 c -0.82,-0.11 -82.88,-11.26 -215.89,-22.34 -113.15,-6.47 -246.21,-8.85 -380.74,-8.85 -371.81,0 -754.79,18.18 -760,18.44 m 25.27,117.54 c -8.57,0 -17.14,-0.22 -25.67,-0.65 l -39.59,-2.03 116.52,-17.83 12.17,16.59 -6.93,0.78 c -18.71,2.09 -37.62,3.14 -56.5,3.14 m -471.25,169.04 -4.02,-0.3 c 0.28,-3.61 1.01,-13.21 50.16,-16.29 89.91,-5.64 180.03,-7.37 269.37,-7.37 72.17,0 143.85,1.13 214.42,2.25 60.64,0.95 123.34,1.94 184.98,2.19 102.58,-1.63 173.38,-2.55 195.5,-2.55 h 1.83 l 0.14,8.07 c -51.27,1.78 -105.5,2.61 -168.81,2.61 -9.32,0 -18.83,-0.02 -28.57,-0.06 -289.23,4.59 -700.74,12.62 -713.83,15.27 l -1.16,-3.82 h -0.01 v 0 0 m 220.15,117.04 -12.16,-16.59 6.93,-0.78 c 18.7,-2.09 37.6,-3.14 56.46,-3.14 8.58,0 17.16,0.22 25.7,0.65 l 39.59,2.02 -116.52,17.84 m 792.16,52.5 c -105.69,-4.83 -190.17,-12.06 -251.1,-21.5 l 1.08,-8 c 0.94,0.11 96.19,10.92 250.57,21.44 v 0 c 116.3,5.31 250.64,7.34 388.29,7.34 447.33,0 929.02,-21.47 935.32,-21.75 l 0.6,8.04 c -249.39,26.15 -499.3,34.88 -721.89,34.88 -247.61,0 -461.41,-10.81 -602.87,-20.45 v 0"
         style="fill:#8a705a;fill-opacity:1;fill-rule:nonzero;stroke:none"
         transform="matrix(0.13333333,0,0,-0.13333333,0,1496)" />
      <path
         id="path104"
         d="m 3799.6,7701.89 -1.08,8 c 60.93,9.44 145.41,16.67 251.1,21.5 l 0.45,-8.06 c 0.03,0 0.07,0 0.1,0 v 0 C 3895.79,7712.81 3800.54,7702 3799.6,7701.89"
         style="fill:#816751;fill-opacity:1;fill-rule:nonzero;stroke:none"
         transform="matrix(0.13333333,0,0,-0.13333333,0,1496)" />
      <path
         id="path105"
         d="m 5216.88,7723.16 c -179.57,6.44 -486.27,15.58 -778.42,15.58 -31.04,0 -61.97,-0.1 -92.51,-0.32 93.25,3.22 196.52,5.35 306.52,5.35 175.66,0 368.42,-5.45 564.41,-20.61"
         style="fill:#816751;fill-opacity:1;fill-rule:nonzero;stroke:none"
         transform="matrix(0.13333333,0,0,-0.13333333,0,1496)" />
      <path
         id="path106"
         d="m 5373.78,7708.92 c -6.3,0.28 -487.99,21.75 -935.32,21.75 -137.65,0 -271.99,-2.03 -388.29,-7.34 l -0.46,8.06 c -0.03,0 -0.06,0 -0.09,0 v 0 c 141.46,9.64 355.26,20.45 602.87,20.45 222.59,0 472.5,-8.73 721.89,-34.88 l -0.6,-8.04 m -935.32,29.82 c 292.15,0 598.85,-9.14 778.42,-15.58 -195.99,15.16 -388.75,20.61 -564.41,20.61 -110,0 -213.27,-2.13 -306.52,-5.35 30.54,0.22 61.47,0.32 92.51,0.32"
         style="fill:#816751;fill-opacity:1;fill-rule:nonzero;stroke:none"
         transform="matrix(0.13333333,0,0,-0.13333333,0,1496)" />
      <path
         id="path107"
         d="m 4050.07,7723.33 -0.45,8.06 c 0.03,0 0.06,0 0.09,0 l 0.46,-8.06 c -0.03,0 -0.07,0 -0.1,0"
         style="fill:#7e644f;fill-opacity:1;fill-rule:nonzero;stroke:none"
         transform="matrix(0.13333333,0,0,-0.13333333,0,1496)" />
      <path
         id="path108"
         d="m 3352.84,7545.96 c -89.19,0 -179.19,1.73 -268.89,7.36 -12.63,0.79 -21.74,2.02 -28.21,3.34 28.22,-1.59 92.22,-3 237.69,-6.01 57.57,-1.19 122.68,-2.45 189.94,-3.69 -43.24,-0.58 -86.78,-1 -130.53,-1 m -315.53,15.89 v 0 0 0"
         style="fill:#816751;fill-opacity:1;fill-rule:nonzero;stroke:none"
         transform="matrix(0.13333333,0,0,-0.13333333,0,1496)" />
      <path
         id="path109"
         d="m 3352.82,7537.89 c -89.34,0 -179.46,1.73 -269.37,7.37 -49.15,3.08 -49.88,12.68 -50.16,16.29 l 4.02,0.3 v 0 h 0.01 l 1.16,3.82 c 13.09,-2.65 424.6,-10.68 713.85,-15.27 -0.03,0 -0.06,0 -0.08,0 l -0.05,-8.07 c 0.01,0 0.01,0 0.02,0 -61.64,-0.25 -124.34,-1.24 -184.98,-2.19 -70.57,-1.12 -142.25,-2.25 -214.42,-2.25 m -297.08,18.77 c 6.47,-1.32 15.58,-2.55 28.21,-3.34 89.7,-5.63 179.7,-7.36 268.89,-7.36 43.75,0 87.29,0.42 130.53,1 -67.26,1.24 -132.37,2.5 -189.94,3.69 -145.47,3.01 -209.47,4.42 -237.69,6.01"
         style="fill:#816751;fill-opacity:1;fill-rule:nonzero;stroke:none"
         transform="matrix(0.13333333,0,0,-0.13333333,0,1496)" />
      <path
         id="path110"
         d="m 3947.72,7539.78 c -22.12,0 -92.92,0.92 -195.5,2.55 0.02,0 0.04,0 0.06,0 l 0.05,8.07 v 0 c 9.72,0.04 19.23,0.06 28.55,0.06 63.31,0 117.54,-0.83 168.81,-2.61 l -0.14,-8.07 h -1.83"
         style="fill:#816751;fill-opacity:1;fill-rule:nonzero;stroke:none"
         transform="matrix(0.13333333,0,0,-0.13333333,0,1496)" />
      <path
         id="path111"
         d="m 3752.22,7542.33 c -0.01,0 -0.01,0 -0.02,0 l 0.05,8.07 c 0.02,0 0.05,0 0.06,0 0.02,0 0.02,0 0.02,0 l -0.05,-8.07 c -0.02,0 -0.04,0 -0.06,0"
         style="fill:#7e644f;fill-opacity:1;fill-rule:nonzero;stroke:none"
         transform="matrix(0.13333333,0,0,-0.13333333,0,1496)" />
      <path
         id="path112"
         d="m 3279.99,7667.27 c -6.64,0.39 -13.29,0.9 -19.91,1.55 l 0.99,1.35 18.92,-2.9"
         style="fill:#816751;fill-opacity:1;fill-rule:nonzero;stroke:none"
         transform="matrix(0.13333333,0,0,-0.13333333,0,1496)" />
      <path
         id="path113"
         d="m 3308.69,7658.38 c -18.86,0 -37.76,1.05 -56.46,3.14 l -6.93,0.78 12.16,16.59 116.52,-17.84 -39.59,-2.02 c -8.54,-0.43 -17.12,-0.65 -25.7,-0.65 m -47.62,11.79 -0.99,-1.35 c 6.62,-0.65 13.27,-1.16 19.91,-1.55 l -18.92,2.9"
         style="fill:#816751;fill-opacity:1;fill-rule:nonzero;stroke:none"
         transform="matrix(0.13333333,0,0,-0.13333333,0,1496)" />
      <path
         id="path114"
         d="m 5619.01,7590.3 -69.89,1.93 69.9,-1.11 -0.01,-0.82"
         style="fill:#816751;fill-opacity:1;fill-rule:nonzero;stroke:none"
         transform="matrix(0.13333333,0,0,-0.13333333,0,1496)" />
      <path
         id="path115"
         d="m 5618.91,7582.22 -754.96,20.87 0.18,8.07 755,-11.97 -0.11,-8.07 -69.9,1.11 69.89,-1.93 -0.1,-8.08"
         style="fill:#816751;fill-opacity:1;fill-rule:nonzero;stroke:none"
         transform="matrix(0.13333333,0,0,-0.13333333,0,1496)" />
      <path
         id="path116"
         d="m 4078.26,7242.99 c -144.15,0 -300.72,4.99 -459.77,18.6 145.31,-5.42 387.16,-12.84 624.54,-12.84 42.32,0 84.51,0.24 125.97,0.76 -87.83,-3.89 -186,-6.52 -290.74,-6.52"
         style="fill:#816751;fill-opacity:1;fill-rule:nonzero;stroke:none"
         transform="matrix(0.13333333,0,0,-0.13333333,0,1496)" />
      <path
         id="path117"
         d="m 4078.27,7234.92 c -185.1,0 -390.58,8.22 -595.65,32.3 l 0.67,8.05 c 5.21,-0.26 388.19,-18.44 760,-18.44 134.53,0 267.59,2.38 380.77,8.85 -0.05,0 -0.09,-0.01 -0.11,-0.01 l 0.57,-8.05 c 0.01,0 0.01,0 0.02,0 -127,-10.59 -321.61,-22.7 -546.27,-22.7 m -459.78,26.67 c 159.05,-13.61 315.62,-18.6 459.77,-18.6 104.74,0 202.91,2.63 290.74,6.52 -41.46,-0.52 -83.65,-0.76 -125.97,-0.76 -237.38,0 -479.23,7.42 -624.54,12.84"
         style="fill:#816751;fill-opacity:1;fill-rule:nonzero;stroke:none"
         transform="matrix(0.13333333,0,0,-0.13333333,0,1496)" />
      <path
         id="path118"
         d="m 4624.54,7257.62 c 0.03,0 0.06,0.01 0.09,0.01 l -0.57,8.05 v 0 c 132.98,11.08 215.04,22.23 215.86,22.34 l 1.28,-7.97 c -52.6,-9.67 -125.5,-17.22 -216.66,-22.43"
         style="fill:#816751;fill-opacity:1;fill-rule:nonzero;stroke:none"
         transform="matrix(0.13333333,0,0,-0.13333333,0,1496)" />
      <path
         id="path119"
         d="m 4624.52,7257.62 -0.57,8.05 c 0.02,0 0.06,0.01 0.08,0.01 0.03,0 0.03,0 0.03,0 l 0.57,-8.05 c -0.03,0 -0.06,-0.01 -0.09,-0.01 -0.01,0 -0.01,0 -0.02,0"
         style="fill:#7e644f;fill-opacity:1;fill-rule:nonzero;stroke:none"
         transform="matrix(0.13333333,0,0,-0.13333333,0,1496)" />
      <path
         id="path120"
         d="m 5530.65,7331.57 -243.96,3.87 c -3.53,0.06 -7.23,0.08 -11.08,0.08 -19.38,0 -42.7,-0.63 -67.15,-1.31 -28.23,-0.78 -59.03,-1.63 -88.87,-1.63 -39.51,0 -77.32,1.49 -105.14,6.61 25.8,3.18 53.55,4.2 81.44,4.2 26.62,0 53.37,-0.93 78.67,-1.82 11.16,-0.38 22.11,-0.76 32.71,-1.06 l 323.38,-8.94"
         style="fill:#816751;fill-opacity:1;fill-rule:nonzero;stroke:none"
         transform="matrix(0.13333333,0,0,-0.13333333,0,1496)" />
      <path
         id="path121"
         d="m 5615.42,7322.16 -328.86,5.21 c -3.51,0.06 -7.22,0.08 -11.08,0.08 -19.21,0 -42.46,-0.64 -66.8,-1.31 -28.18,-0.78 -58.93,-1.62 -88.79,-1.62 -50.67,0 -98.79,2.43 -127.56,11.78 l -15.32,4.97 15.86,2.84 c 31.75,5.68 67.31,7.35 103.01,7.35 26.75,0 53.58,-0.93 78.95,-1.82 11.15,-0.38 22.07,-0.76 32.66,-1.06 l 408.13,-11.28 -0.2,-15.14 m -339.81,13.36 c 3.85,0 7.55,-0.02 11.08,-0.08 l 243.96,-3.87 -323.38,8.94 c -10.6,0.3 -21.55,0.68 -32.71,1.06 -25.3,0.89 -52.05,1.82 -78.67,1.82 -27.89,0 -55.64,-1.02 -81.44,-4.2 27.82,-5.12 65.63,-6.61 105.14,-6.61 29.84,0 60.64,0.85 88.87,1.63 24.45,0.68 47.77,1.31 67.15,1.31"
         style="fill:#816751;fill-opacity:1;fill-rule:nonzero;stroke:none"
         transform="matrix(0.13333333,0,0,-0.13333333,0,1496)" />
      <path
         id="path122"
         d="m 5188.71,7170.24 c -35.12,0.99 -70.26,2.14 -105.41,3.28 -67.34,2.2 -136.21,4.44 -205.04,5.55 38.08,1.88 77.29,2.82 117.53,2.82 42.78,0 86.71,-1.06 131.65,-3.2 21.74,-1.03 42.83,-2.56 61.27,-8.45"
         style="fill:#816751;fill-opacity:1;fill-rule:nonzero;stroke:none"
         transform="matrix(0.13333333,0,0,-0.13333333,0,1496)" />
      <path
         id="path123"
         d="m 5225,7161.19 -15.81,0.41 c -42.02,1.11 -84.08,2.48 -126.16,3.85 -94.44,3.07 -191.91,6.25 -287.99,6.25 -5.73,0 -11.44,-0.01 -17.16,-0.04 l -0.42,8.06 c 68.52,6.83 141.6,10.25 218.35,10.25 42.9,0 86.95,-1.07 132.01,-3.21 30.5,-1.45 59.84,-3.89 83.5,-17.63 l 13.68,-7.94 m -229.21,20.7 c -40.24,0 -79.45,-0.94 -117.53,-2.82 68.83,-1.11 137.7,-3.35 205.04,-5.55 35.15,-1.14 70.29,-2.29 105.41,-3.28 -18.44,5.89 -39.53,7.42 -61.27,8.45 -44.94,2.14 -88.87,3.2 -131.65,3.2"
         style="fill:#816751;fill-opacity:1;fill-rule:nonzero;stroke:none"
         transform="matrix(0.13333333,0,0,-0.13333333,0,1496)" />
      <path
         id="path124"
         d="m 3037.32,7189.74 -0.22,8.07 c 19.41,1.07 38.89,1.95 58.4,2.79 -0.03,0 -0.06,0 -0.1,0 l 0.51,-8.06 h 0.07 c -22.46,-1.91 -41.11,-2.8 -58.66,-2.8"
         style="fill:#816751;fill-opacity:1;fill-rule:nonzero;stroke:none"
         transform="matrix(0.13333333,0,0,-0.13333333,0,1496)" />
      <path
         id="path125"
         d="m 3095.98,7192.54 c 0.03,0.01 0.07,0.01 0.1,0.01 l -0.51,8.06 c -0.02,0 -0.05,0 -0.07,-0.01 20.12,1.72 40.68,4.06 60.55,6.33 39.53,4.52 80.07,9.16 120.22,9.16 13.44,0 26.82,-0.52 40.12,-1.74 l 39.7,-3.62 -39.61,-4.41 c -64.59,-7.18 -131.07,-9.99 -195.35,-12.71 l -25.15,-1.07"
         style="fill:#816751;fill-opacity:1;fill-rule:nonzero;stroke:none"
         transform="matrix(0.13333333,0,0,-0.13333333,0,1496)" />
      <path
         id="path126"
         d="m 3095.91,7192.54 -0.51,8.06 c 0.04,0 0.07,0 0.1,0 0.02,0.01 0.05,0.01 0.07,0.01 l 0.51,-8.06 c -0.03,0 -0.07,0 -0.1,-0.01 h -0.07"
         style="fill:#7e644f;fill-opacity:1;fill-rule:nonzero;stroke:none"
         transform="matrix(0.13333333,0,0,-0.13333333,0,1496)" />
      <path
         id="path127"
         d="m 3556.21,7381.02 -18.89,2.89 c 6.64,-0.38 13.27,-0.89 19.88,-1.54 l -0.99,-1.35"
         style="fill:#816751;fill-opacity:1;fill-rule:nonzero;stroke:none"
         transform="matrix(0.13333333,0,0,-0.13333333,0,1496)" />
      <path
         id="path128"
         d="m 3559.82,7372.3 -116.52,17.83 39.59,2.03 c 8.53,0.43 17.1,0.65 25.67,0.65 18.88,0 37.79,-1.05 56.5,-3.14 l 6.93,-0.78 -12.17,-16.59 m -22.5,11.61 18.89,-2.89 0.99,1.35 c -6.61,0.65 -13.24,1.16 -19.88,1.54"
         style="fill:#816751;fill-opacity:1;fill-rule:nonzero;stroke:none"
         transform="matrix(0.13333333,0,0,-0.13333333,0,1496)" />
      <path
         id="path129"
         d="m 4985.72,6643.18 -1.07,8 c 60.97,9.44 145.47,16.67 251.14,21.5 -0.02,0 -0.04,0 -0.06,-0.01 l 0.46,-8.06 c 0.03,0.01 0.07,0.01 0.1,0.01 v 0 c -154.37,-10.53 -249.63,-21.33 -250.57,-21.44"
         style="fill:#816751;fill-opacity:1;fill-rule:nonzero;stroke:none"
         transform="matrix(0.13333333,0,0,-0.13333333,0,1496)" />
      <path
         id="path130"
         d="m 5532.13,6679.71 c 24.24,0.83 49.16,1.6 74.7,2.27 l -0.03,-1.96 c -25.05,-0.03 -49.96,-0.14 -74.67,-0.31"
         style="fill:#816751;fill-opacity:1;fill-rule:nonzero;stroke:none"
         transform="matrix(0.13333333,0,0,-0.13333333,0,1496)" />
      <path
         id="path131"
         d="m 5236.29,6664.62 -0.46,8.06 c -0.01,0 -0.03,0 -0.04,0 94.99,6.47 222.64,13.47 371.15,17.37 l -0.11,-8.07 c -25.54,-0.67 -50.46,-1.44 -74.7,-2.27 24.71,0.17 49.62,0.28 74.67,0.31 l -0.1,-8.08 c -131.39,-0.17 -259.15,-2.25 -370.41,-7.32"
         style="fill:#816751;fill-opacity:1;fill-rule:nonzero;stroke:none"
         transform="matrix(0.13333333,0,0,-0.13333333,0,1496)" />
      <path
         id="path132"
         d="m 5236.19,6664.61 -0.46,8.06 c 0.02,0.01 0.04,0.01 0.06,0.01 0.01,0 0.03,0 0.04,0 l 0.46,-8.06 c -0.03,0 -0.07,0 -0.1,-0.01"
         style="fill:#7e644f;fill-opacity:1;fill-rule:nonzero;stroke:none"
         transform="matrix(0.13333333,0,0,-0.13333333,0,1496)" />
      <path
         id="path133"
         d="m 4539.11,6487.25 c -89.24,0 -179.28,1.73 -269.04,7.36 -12.63,0.79 -21.73,2.02 -28.2,3.33 28.23,-1.58 92.23,-3 237.69,-6.01 57.58,-1.19 122.67,-2.45 189.91,-3.69 -43.18,-0.57 -86.67,-0.99 -130.36,-0.99"
         style="fill:#816751;fill-opacity:1;fill-rule:nonzero;stroke:none"
         transform="matrix(0.13333333,0,0,-0.13333333,0,1496)" />
      <path
         id="path134"
         d="m 4539,6479.18 c -89.35,0 -179.5,1.73 -269.43,7.37 -49.14,3.08 -49.88,12.66 -50.16,16.28 l 4.03,0.31 1.16,3.82 c 13.1,-2.66 424.6,-10.69 713.86,-15.27 -0.04,0 -0.06,0 -0.08,0 l -0.05,-8.08 c 0.01,0 0.01,0 0.02,0 -61.63,-0.24 -124.32,-1.23 -184.96,-2.19 -70.57,-1.11 -142.22,-2.24 -214.39,-2.24 m -297.13,18.76 c 6.47,-1.31 15.57,-2.54 28.2,-3.33 89.76,-5.63 179.8,-7.36 269.04,-7.36 43.69,0 87.18,0.42 130.36,0.99 -67.24,1.24 -132.33,2.5 -189.91,3.69 -145.46,3.01 -209.46,4.43 -237.69,6.01"
         style="fill:#816751;fill-opacity:1;fill-rule:nonzero;stroke:none"
         transform="matrix(0.13333333,0,0,-0.13333333,0,1496)" />
      <path
         id="path135"
         d="m 5133.73,6481.06 c -22.21,0 -92.94,0.93 -195.38,2.55 0.02,0 0.04,0 0.06,0 l 0.05,8.08 v 0 c 10.12,0.04 20.04,0.06 29.73,0.06 62.77,0 116.66,-0.84 167.61,-2.61 l -0.12,-8.07 -1.95,-0.01"
         style="fill:#816751;fill-opacity:1;fill-rule:nonzero;stroke:none"
         transform="matrix(0.13333333,0,0,-0.13333333,0,1496)" />
      <path
         id="path136"
         d="m 4938.35,6483.61 c -0.01,0 -0.01,0 -0.02,0 l 0.05,8.08 c 0.02,0 0.04,0 0.06,0 0.02,0 0.02,0 0.02,0 l -0.05,-8.08 c -0.02,0 -0.04,0 -0.06,0"
         style="fill:#7e644f;fill-opacity:1;fill-rule:nonzero;stroke:none"
         transform="matrix(0.13333333,0,0,-0.13333333,0,1496)" />
      <path
         id="path137"
         d="m 4466.12,6608.56 c -6.65,0.38 -13.29,0.9 -19.91,1.54 l 0.99,1.35 18.92,-2.89"
         style="fill:#816751;fill-opacity:1;fill-rule:nonzero;stroke:none"
         transform="matrix(0.13333333,0,0,-0.13333333,0,1496)" />
      <path
         id="path138"
         d="m 4494.78,6599.66 c -18.85,0 -37.74,1.06 -56.43,3.15 l -6.92,0.77 12.15,16.6 116.55,-17.84 -39.62,-2.02 c -8.55,-0.44 -17.13,-0.66 -25.73,-0.66 m -47.58,11.79 -0.99,-1.35 c 6.62,-0.64 13.26,-1.16 19.91,-1.54 l -18.92,2.89"
         style="fill:#816751;fill-opacity:1;fill-rule:nonzero;stroke:none"
         transform="matrix(0.13333333,0,0,-0.13333333,0,1496)" />
      <path
         id="path139"
         d="m 5625.18,8049.77 c -157.64,1.06 -364.45,2.29 -616.38,3.66 -218.56,1.19 -465.62,2.45 -720.85,3.7 164.13,0.57 329.39,0.99 495.45,0.99 279.26,0 560.68,-1.18 841.82,-4.74 l -0.04,-3.61"
         style="fill:#816751;fill-opacity:1;fill-rule:nonzero;stroke:none"
         transform="matrix(0.13333333,0,0,-0.13333333,0,1496)" />
      <path
         id="path140"
         d="m 5625.07,8041.68 c -532.92,3.59 -1560.85,8.67 -2357.94,12 v 8.08 c 234.12,0.24 472.26,1.23 702.56,2.19 267.83,1.11 539.79,2.24 813.68,2.24 279.36,0 560.71,-1.17 841.96,-4.74 l -0.11,-8.07 c -281.14,3.56 -562.56,4.74 -841.82,4.74 -166.06,0 -331.32,-0.42 -495.45,-0.99 255.23,-1.25 502.29,-2.51 720.85,-3.7 251.93,-1.37 458.74,-2.6 616.38,-3.66 l -0.11,-8.09"
         style="fill:#816751;fill-opacity:1;fill-rule:nonzero;stroke:none"
         transform="matrix(0.13333333,0,0,-0.13333333,0,1496)" />
      <path
         id="path141"
         d="m 5264.4,6177.46 c -144.16,0 -300.75,5 -459.8,18.61 145.43,-5.42 387.57,-12.83 625.15,-12.83 42.11,0 84.1,0.23 125.36,0.75 -87.83,-3.89 -185.98,-6.53 -290.71,-6.53"
         style="fill:#816751;fill-opacity:1;fill-rule:nonzero;stroke:none"
         transform="matrix(0.13333333,0,0,-0.13333333,0,1496)" />
      <path
         id="path142"
         d="m 5264.39,6169.39 c -185.1,0 -390.6,8.23 -595.65,32.31 l 0.67,8.04 c 5.21,-0.25 388.19,-18.44 759.97,-18.44 57.73,0 115.15,0.44 170.89,1.45 l -0.2,-14.71 c -98.78,-5.02 -212.73,-8.65 -335.68,-8.65 m -459.79,26.68 c 159.05,-13.61 315.64,-18.61 459.8,-18.61 104.73,0 202.88,2.64 290.71,6.53 -41.26,-0.52 -83.25,-0.75 -125.36,-0.75 -237.58,0 -479.72,7.41 -625.15,12.83"
         style="fill:#816751;fill-opacity:1;fill-rule:nonzero;stroke:none"
         transform="matrix(0.13333333,0,0,-0.13333333,0,1496)" />
      <path
         id="path143"
         d="m 4223.44,6124.22 -0.22,8.06 c 19.41,1.07 38.9,1.96 58.4,2.8 -0.03,-0.01 -0.06,-0.01 -0.1,-0.01 l 0.52,-8.05 h 0.06 c -22.52,-1.92 -41.16,-2.8 -58.66,-2.8"
         style="fill:#816751;fill-opacity:1;fill-rule:nonzero;stroke:none"
         transform="matrix(0.13333333,0,0,-0.13333333,0,1496)" />
      <path
         id="path144"
         d="m 4282.1,6127.02 c 0.03,0 0.06,0 0.1,0.01 l -0.51,8.05 c -0.02,0 -0.05,0 -0.07,0 20.11,1.71 40.65,4.06 60.52,6.33 39.55,4.52 80.12,9.15 120.3,9.15 13.42,0 26.8,-0.52 40.08,-1.73 l 39.71,-3.63 -39.63,-4.41 c -64.63,-7.18 -131.13,-9.99 -195.45,-12.71 l -25.05,-1.06"
         style="fill:#816751;fill-opacity:1;fill-rule:nonzero;stroke:none"
         transform="matrix(0.13333333,0,0,-0.13333333,0,1496)" />
      <path
         id="path145"
         d="m 4282.04,6127.02 -0.52,8.05 c 0.04,0 0.07,0 0.1,0.01 0.02,0 0.05,0 0.07,0 l 0.51,-8.05 c -0.04,-0.01 -0.07,-0.01 -0.1,-0.01 h -0.06"
         style="fill:#7e644f;fill-opacity:1;fill-rule:nonzero;stroke:none"
         transform="matrix(0.13333333,0,0,-0.13333333,0,1496)" />
      <path
         id="path146"
         d="m 4742.33,6315.5 -18.93,2.89 c 6.65,-0.38 13.29,-0.89 19.92,-1.54 l -0.99,-1.35"
         style="fill:#816751;fill-opacity:1;fill-rule:nonzero;stroke:none"
         transform="matrix(0.13333333,0,0,-0.13333333,0,1496)" />
      <path
         id="path147"
         d="m 4745.94,6306.78 -116.53,17.82 39.6,2.04 c 8.54,0.43 17.13,0.65 25.72,0.65 18.85,0 37.75,-1.05 56.45,-3.14 l 6.92,-0.78 -12.16,-16.59 m -22.54,11.61 18.93,-2.89 0.99,1.35 c -6.63,0.65 -13.27,1.16 -19.92,1.54"
         style="fill:#816751;fill-opacity:1;fill-rule:nonzero;stroke:none"
         transform="matrix(0.13333333,0,0,-0.13333333,0,1496)" />
      <path
         id="path148"
         d="m 5102.03,6866.4 c -385.64,2.23 -759.86,7.28 -1118.22,15.06 293.63,-2.84 686.74,-6.16 1118.42,-8.49 l -0.2,-6.57"
         style="fill:#7e644f;fill-opacity:1;fill-rule:nonzero;stroke:none"
         transform="matrix(0.13333333,0,0,-0.13333333,0,1496)" />
      <path
         id="path149"
         d="m 5109.86,6858.28 -3.94,0.03 c -580.44,3.32 -1135.14,13.02 -1648.72,28.83 l 0.17,8.07 c 7.34,-0.09 744.01,-9.32 1649.05,-14.19 l 4.14,-0.03 -0.7,-22.71 m -1126.05,23.18 c 358.36,-7.78 732.58,-12.83 1118.22,-15.06 l 0.2,6.57 c -431.68,2.33 -824.79,5.65 -1118.42,8.49"
         style="fill:#7e644f;fill-opacity:1;fill-rule:nonzero;stroke:none"
         transform="matrix(0.13333333,0,0,-0.13333333,0,1496)" />
      <path
         id="path150"
         d="m 2962.62,6569.07 c -27.4,0 -55.24,0.18 -83.42,0.57 0.09,2.54 0.14,5.07 0.18,7.62 88.27,-1.57 170.96,-2.36 247.85,-2.36 44.22,0 86.52,0.26 126.85,0.78 -88.42,-3.95 -186.87,-6.61 -291.46,-6.61"
         style="fill:#7e644f;fill-opacity:1;fill-rule:nonzero;stroke:none"
         transform="matrix(0.13333333,0,0,-0.13333333,0,1496)" />
      <path
         id="path151"
         d="m 2962.72,6560.99 c -28.82,0 -58.1,0.2 -87.77,0.63 l -1.46,0.03 0.52,23.78 1.44,-0.03 c 89.72,-1.62 173.73,-2.42 251.73,-2.42 149.85,0 277.61,2.98 381.68,8.92 l 0.57,-8.05 c -129.88,-10.82 -324.38,-22.86 -546.71,-22.86 m -83.34,16.27 c -0.04,-2.55 -0.09,-5.08 -0.18,-7.62 28.18,-0.39 56.02,-0.57 83.42,-0.57 104.59,0 203.04,2.66 291.46,6.61 -40.33,-0.52 -82.63,-0.78 -126.85,-0.78 -76.89,0 -159.58,0.79 -247.85,2.36"
         style="fill:#7e644f;fill-opacity:1;fill-rule:nonzero;stroke:none"
         transform="matrix(0.13333333,0,0,-0.13333333,0,1496)" />
      <path
         id="path152"
         d="m 4073.51,6496.47 c -35.11,0.99 -70.23,2.13 -105.38,3.28 -67.33,2.19 -136.21,4.44 -205.05,5.54 38.1,1.89 77.32,2.83 117.57,2.83 42.76,0 86.68,-1.06 131.59,-3.2 21.73,-1.03 42.82,-2.57 61.27,-8.45"
         style="fill:#7e644f;fill-opacity:1;fill-rule:nonzero;stroke:none"
         transform="matrix(0.13333333,0,0,-0.13333333,0,1496)" />
      <path
         id="path153"
         d="m 4109.81,6487.42 -15.82,0.41 c -42.01,1.11 -84.05,2.48 -126.11,3.85 -94.92,3.09 -192.86,6.23 -289.45,6.23 -5.26,0 -10.5,-0.01 -15.75,-0.02 l -0.42,8.05 c 68.54,6.83 141.62,10.26 218.37,10.26 42.9,0 86.94,-1.07 131.99,-3.21 29.28,-1.4 59.84,-3.9 83.5,-17.63 l 13.69,-7.94 m -229.16,20.7 c -40.25,0 -79.47,-0.94 -117.57,-2.83 68.84,-1.1 137.72,-3.35 205.05,-5.54 35.15,-1.15 70.27,-2.29 105.38,-3.28 -18.45,5.88 -39.54,7.42 -61.27,8.45 -44.91,2.14 -88.83,3.2 -131.59,3.2"
         style="fill:#7e644f;fill-opacity:1;fill-rule:nonzero;stroke:none"
         transform="matrix(0.13333333,0,0,-0.13333333,0,1496)" />
      <path
         id="path154"
         d="m 3142.58,6254.78 -0.16,8.07 c 67.52,1.72 136.37,4.08 202.96,6.35 131.73,4.51 266.84,9.12 400.38,9.12 44.48,0 88.76,-0.51 132.73,-1.71 l 0.02,-8.07 c -215.34,-7.17 -437.19,-9.98 -651.72,-12.68 l -84.21,-1.08"
         style="fill:#7e644f;fill-opacity:1;fill-rule:nonzero;stroke:none"
         transform="matrix(0.13333333,0,0,-0.13333333,0,1496)" />
      <path
         id="path155"
         d="m 4856.7,5900.63 -415.24,3.25 c 145.9,-0.42 291.65,-1 436.74,-1.75 l -21.5,-1.5"
         style="fill:#7e644f;fill-opacity:1;fill-rule:nonzero;stroke:none"
         transform="matrix(0.13333333,0,0,-0.13333333,0,1496)" />
      <path
         id="path156"
         d="m 4856.95,5892.56 -1462.19,11.46 0.03,8.07 c 165.22,0.44 331.17,0.65 497.21,0.65 365.19,0 731.17,-1.04 1093.28,-3.12 l 0.26,-8.06 -128.59,-9 m -415.49,11.32 415.24,-3.25 21.5,1.5 c -145.09,0.75 -290.84,1.33 -436.74,1.75"
         style="fill:#7e644f;fill-opacity:1;fill-rule:nonzero;stroke:none"
         transform="matrix(0.13333333,0,0,-0.13333333,0,1496)" />
      <path
         id="path157"
         d="m 5619.89,8185.36 c -38.7,0 -70.07,31.38 -70.07,70.07 0,19.23 7.74,36.65 20.28,49.31 -8.19,-11.29 -13.02,-25.18 -13.02,-40.19 0,-37.84 30.68,-68.52 68.52,-68.52 0.51,0 1.03,0 1.54,0.01 l -0.14,-10.32 c -2.34,-0.23 -4.71,-0.36 -7.11,-0.36"
         style="fill:#74604f;fill-opacity:1;fill-rule:nonzero;stroke:none"
         transform="matrix(0.13333333,0,0,-0.13333333,0,1496)" />
      <path
         id="path158"
         d="m 5625.6,8196.03 c -37.84,0 -68.52,30.68 -68.52,68.52 0,15.01 4.83,28.9 13.02,40.19 12.45,17.17 32.67,28.33 55.5,28.33 1.13,0 2.26,-0.03 3.38,-0.08 l -0.75,-55.44 c -0.84,-0.57 -1.68,-1.15 -2.53,-1.75 -8.3,9.27 -18.68,19.13 -31.6,29 0,0 0.53,-1.97 1.77,-5.36 -0.58,0.45 -1.18,0.91 -1.77,1.36 0,0 4.46,-16.46 17.56,-36.22 -9.29,-8.37 -18.47,-18.76 -26.31,-31.54 0,0 1.14,0.29 3.23,1.03 -1.1,-1.63 -2.18,-3.31 -3.23,-5.02 0,0 15.97,4.07 37.85,20.26 1.46,-1.7 2.99,-3.41 4.58,-5.1 l -0.64,-48.17 c -0.51,-0.01 -1.03,-0.01 -1.54,-0.01"
         style="fill:#c5c5c5;fill-opacity:1;fill-rule:nonzero;stroke:none"
         transform="matrix(0.13333333,0,0,-0.13333333,0,1496)" />
      <path
         id="path159"
         d="m 5627.78,8244.21 c -1.59,1.69 -3.12,3.4 -4.58,5.1 0.7,0.52 1.4,1.04 2.11,1.59 0.82,-0.92 1.66,-1.84 2.53,-2.75 l -0.06,-3.94 m -16.12,20.37 c -13.1,19.76 -17.56,36.22 -17.56,36.22 0.59,-0.45 1.19,-0.91 1.77,-1.36 2.5,-6.83 7.86,-19.43 17.48,-33.36 -0.56,-0.49 -1.13,-0.99 -1.69,-1.5"
         style="fill:#a3a2a2;fill-opacity:1;fill-rule:nonzero;stroke:none"
         transform="matrix(0.13333333,0,0,-0.13333333,0,1496)" />
      <path
         id="path160"
         d="m 5585.35,8229.05 c 1.05,1.71 2.13,3.39 3.23,5.02 5.73,2.01 18.59,7.37 34.62,19.23 0.69,-0.8 1.39,-1.6 2.11,-2.4 -0.71,-0.55 -1.41,-1.07 -2.11,-1.59 -21.88,-16.19 -37.85,-20.26 -37.85,-20.26"
         style="fill:#a3a2a2;fill-opacity:1;fill-rule:nonzero;stroke:none"
         transform="matrix(0.13333333,0,0,-0.13333333,0,1496)" />
      <path
         id="path161"
         d="m 5627.84,8248.15 c -0.87,0.91 -1.71,1.83 -2.53,2.75 -0.72,0.8 -1.42,1.6 -2.11,2.4 1.56,1.16 3.14,2.37 4.76,3.65 l -0.12,-8.8 m -14.49,17.93 c -9.62,13.93 -14.98,26.53 -17.48,33.36 -1.24,3.39 -1.77,5.36 -1.77,5.36 12.92,-9.87 23.3,-19.73 31.6,-29 -4.05,-2.87 -8.21,-6.1 -12.35,-9.72"
         style="fill:#d5d5d5;fill-opacity:1;fill-rule:nonzero;stroke:none"
         transform="matrix(0.13333333,0,0,-0.13333333,0,1496)" />
      <path
         id="path162"
         d="m 5585.35,8233.04 c 7.84,12.78 17.02,23.17 26.31,31.54 0.56,0.51 1.13,1.01 1.69,1.5 4.14,3.62 8.3,6.85 12.35,9.72 0.85,0.6 1.69,1.18 2.53,1.75 l -0.27,-20.6 c -1.62,-1.28 -3.2,-2.49 -4.76,-3.65 -16.03,-11.86 -28.89,-17.22 -34.62,-19.23 -2.09,-0.74 -3.23,-1.03 -3.23,-1.03"
         style="fill:#d5d5d5;fill-opacity:1;fill-rule:nonzero;stroke:none"
         transform="matrix(0.13333333,0,0,-0.13333333,0,1496)" />
    </g>
  </g>
</svg>
