<svg width="254" height="198" viewBox="0 0 254 198" fill="none" xmlns="http://www.w3.org/2000/svg">
<g id="Group">
<path id="shirt" d="M172.148 0.571228H81.565C66.4585 0.571228 51.5177 3.71843 37.6925 9.81051L0.406593 29.4412L13.282 72.5859L58.6579 63.4984V197.142H195.055V63.4984L240.431 72.5859L253.307 29.4412L216.021 9.81051C202.196 3.71843 187.255 0.571228 172.148 0.571228Z" fill="#FFE07D"/>
<path id="shirt-inside" d="M146.942 30.6635L169.372 0.571228H84.3413L106.771 30.6635C116.788 44.1037 136.925 44.1037 146.942 30.6635Z" fill="#EAD475"/>
<path id="dirt" d="M162.041 68.1714C160.341 68.1714 158.725 68.5114 157.244 69.1212C153.375 61.7337 144.995 57.0803 135.756 58.8759C128.04 60.3764 121.824 66.5922 120.323 74.3084C117.862 86.9787 127.5 98.067 139.726 98.067V123.961C139.726 129.427 144.155 133.855 149.62 133.855C155.086 133.855 159.514 129.427 159.514 123.961V93.1804C160.332 93.3462 161.175 93.4333 162.041 93.4333C169.015 93.4333 174.672 87.7796 174.672 80.8023C174.672 73.8279 169.018 68.1714 162.041 68.1714Z" fill="#EF7878"/>
<path id="dirt_2" d="M96.3962 143.963C96.0337 144.356 95.7049 144.769 95.3986 145.194C91.4646 141.807 85.5327 142.111 81.9809 145.952C78.3476 149.881 78.5892 156.006 82.5148 159.64C82.8323 159.935 83.1695 160.193 83.5152 160.438C81.1491 164.296 81.7505 169.413 85.2012 172.602C89.1295 176.236 95.2553 175.994 98.8887 172.068C100.651 170.163 101.494 167.744 101.454 165.338C106.344 167.179 112.073 166.013 115.839 161.941C120.804 156.574 120.475 148.197 115.108 143.232C109.738 138.267 101.361 138.593 96.3962 143.963Z" fill="#B8AFC2"/>
</g>
</svg>
