<svg width="120" height="110" viewBox="0 0 120 110" fill="none" xmlns="http://www.w3.org/2000/svg">
<g id="Group">
<g id="sponge">
<path id="Vector" d="M118.68 39.87L76.88 25.43L0.030001 59.57C-0.139999 64.02 0.410001 74.7 1.15 75.77C1.93 76.89 5.01 79.4 4.58 80.69C4.25 81.68 3.18 82.2 2.48 82.98C0.120001 85.61 3.53 90.89 5.26 93.08C7.17 95.5 9.66 97.44 12.27 99.06C14.87 100.68 21.53 105.24 24.65 103.91C25.1 103.72 25.47 103.38 25.87 103.1C26.68 102.53 27.65 102.14 28.64 102.17C29.63 102.19 30.63 102.66 31.17 103.49C32.73 105.9 33.16 106.98 36.15 107.74C39.27 108.54 42.58 108.95 45.78 109.26C50.75 109.74 55.87 109.75 60.76 108.6C67.44 107.03 73.31 102.96 75.33 96.16C78.66 84.97 94.98 80.35 101.9 79.05C103.32 78.78 104.73 78.49 106.13 78.15C107.01 77.93 109.71 77.67 110.23 76.92C110.42 76.64 110.47 76.29 110.54 75.96C110.79 74.8 111.43 73.68 112.45 73.08C113.47 72.48 114.89 72.5 115.76 73.31C115.85 73.39 115.93 73.48 116.04 73.54C116.83 73.91 118.35 71.69 118.68 71.16C119.51 69.84 119.95 68.32 119.98 66.76C120.14 58.41 118.68 39.87 118.68 39.87Z" fill="#EEBD1C"/>
<path id="Vector_2" d="M98.71 22.18C82.04 15.38 70.13 14.35 61.66 16.12C61.28 16.2 61.06 16.59 61.17 16.96C61.23 17.15 61.27 17.37 61.28 17.62C61.29 18.83 59.19 20.24 56.36 20.46C55.29 20.54 54.29 20.43 53.45 20.18C52.7 19.96 51.88 20.14 51.24 20.6C47.4 23.38 45.01 26.84 43.58 29.86C42.39 32.37 40.08 34.06 37.67 35.32C32.9 37.81 27.59 39.23 22.52 40.98C8.92001 45.67 6.58001 48.53 6.10001 49.85C5.90001 50.4 5.78001 50.98 5.49001 51.48C4.72001 52.79 3.04001 53.18 1.75001 53.98C1.16001 54.35 0.170007 56.46 0.0300067 59.15C-0.449993 68.9 9.72001 75.02 17.26 78.2C39.22 87.49 53.28 90.77 65.12 77.58C70.09 72.05 73.63 66.97 76.84 65.39C75.6 64.98 73.85 63.86 74.45 62.6C76.28 58.75 85.25 61.15 85.43 61.19C85.72 61.26 88.49 58.72 101.5 58.17C112.49 57.71 135.87 37.34 98.71 22.18Z" fill="#FFEB3B"/>
<g id="Group_2">
<path id="Vector_3" d="M24.19 81.01C24.37 83.42 22.88 85.12 20.86 84.82C18.84 84.51 17.05 82.31 16.87 79.91C16.82 79.31 16.88 78.75 17.03 78.26C17.03 78.26 22.21 75.7 25.75 77.44C29.29 79.18 24.19 81.01 24.19 81.01Z" fill="#D19600"/>
</g>
<g id="Group_3">
<path id="Vector_4" d="M24.19 80.98C22.96 81.38 21.62 81.43 20.39 81.03C19.7 80.81 19.06 80.46 18.48 80.02C18.18 79.79 16.95 78.87 16.99 78.46C17.03 78.03 18.22 77.76 18.6 77.63C20.83 76.87 23.55 76.36 25.75 77.44C27.51 78.3 27.06 79.48 25.61 80.34C25.16 80.61 24.68 80.82 24.19 80.98Z" fill="#EEBD1C"/>
</g>
<g id="Group_4">
<path id="Vector_5" d="M15.23 92.91C15.39 95.1 14.04 96.63 12.21 96.36C10.38 96.08 8.76 94.09 8.6 91.91C8.44 89.73 9.79 88.19 11.62 88.46C13.45 88.73 15.07 90.74 15.23 92.91Z" fill="#D19600"/>
</g>
<g id="Group_5">
<path id="Vector_6" d="M38.84 94.6C39.03 97.09 37.66 98.89 35.77 98.61C33.89 98.33 32.22 96.1 32.03 93.62C31.84 91.14 33.21 89.33 35.1 89.61C36.98 89.88 38.65 92.11 38.84 94.6Z" fill="#D19600"/>
</g>
<g id="Group_6">
<path id="Vector_7" d="M49.33 102.71C49.44 104.22 48.6 105.32 47.46 105.16C46.32 105 45.29 103.63 45.18 102.11C45.07 100.6 45.91 99.5 47.05 99.66C48.19 99.82 49.22 101.18 49.33 102.71Z" fill="#D19600"/>
</g>
<g id="Group_7">
<path id="Vector_8" d="M65.85 86.43C65.89 89.05 64.54 91.77 62.84 92.51C61.14 93.25 59.72 91.73 59.68 89.1C59.64 86.48 60.99 83.76 62.69 83.02C64.39 82.29 65.8 83.82 65.85 86.43Z" fill="#D19600"/>
</g>
<g id="Group_8">
<path id="Vector_9" d="M106.7 72.26C106.65 74.27 105.53 76.31 104.21 76.82C102.88 77.33 101.84 76.13 101.89 74.11C101.94 72.1 103.06 70.06 104.38 69.55C105.71 69.04 106.75 70.26 106.7 72.26Z" fill="#D19600"/>
</g>
<g id="Group_9">
<path id="Vector_10" d="M116.22 61.23C116.17 63.24 115.05 65.28 113.73 65.79C112.41 66.3 111.36 65.1 111.41 63.08C111.46 61.07 112.58 59.03 113.9 58.52C115.23 58.01 116.27 59.23 116.22 61.23Z" fill="#D19600"/>
</g>
<g id="Group_10">
<path id="Vector_11" d="M96.22 67.1C96.15 70.05 94.38 73.09 92.28 73.9C90.18 74.71 88.53 73 88.6 70.05C88.67 67.1 90.44 64.06 92.54 63.25C94.64 62.44 96.3 64.16 96.22 67.1Z" fill="#D19600"/>
</g>
<path id="Vector_12" d="M20.0488 56.3908C23.8599 56.103 26.8213 54.1731 26.6633 52.0803C26.5052 49.9875 23.2876 48.5243 19.4765 48.812C15.6654 49.0998 12.704 51.0297 12.862 53.1225C13.0201 55.2153 16.2377 56.6785 20.0488 56.3908Z" fill="#EEBD1C"/>
<path id="Vector_13" d="M47.7924 60.2061C53.5917 59.7682 58.119 57.1094 57.9044 54.2676C57.6898 51.4258 52.8146 49.477 47.0154 49.915C41.2161 50.3529 36.6888 53.0116 36.9034 55.8534C37.118 58.6952 41.9932 60.644 47.7924 60.2061Z" fill="#EEBD1C"/>
<path id="Vector_14" d="M58.8701 33.1381C62.9511 32.83 66.1222 30.7631 65.9529 28.5215C65.7837 26.28 62.3382 24.7128 58.2572 25.0209C54.1762 25.3291 51.0051 27.396 51.1744 29.6375C51.3437 31.879 54.7892 33.4463 58.8701 33.1381Z" fill="#EEBD1C"/>
<path id="Vector_15" d="M38.325 46.6545C40.6105 46.4819 42.3865 45.324 42.2917 44.0684C42.1969 42.8127 40.2672 41.9346 37.9816 42.1072C35.696 42.2798 33.9201 43.4377 34.0149 44.6933C34.1097 45.949 36.0394 46.827 38.325 46.6545Z" fill="#EEBD1C"/>
<path id="Vector_16" d="M34.7953 68.3054C37.0809 68.1328 38.8568 66.9749 38.762 65.7192C38.6672 64.4636 36.7375 63.5855 34.4519 63.7581C32.1664 63.9307 30.3904 65.0885 30.4853 66.3442C30.5801 67.5999 32.5097 68.4779 34.7953 68.3054Z" fill="#EEBD1C"/>
<path id="Vector_17" d="M47.1669 76.4825C50.3998 76.2383 52.9119 74.6028 52.778 72.8295C52.6441 71.0561 49.9148 69.8164 46.682 70.0605C43.4492 70.3046 40.937 71.9401 41.0709 73.7135C41.2048 75.4869 43.9341 76.7266 47.1669 76.4825Z" fill="#EEBD1C"/>
<path id="Vector_18" d="M58.9911 43.1938C61.0894 43.0353 62.72 41.9738 62.6331 40.8227C62.5462 39.6717 60.7747 38.867 58.6764 39.0255C56.5781 39.1839 54.9475 40.2455 55.0344 41.3965C55.1213 42.5475 56.8928 43.3522 58.9911 43.1938Z" fill="#EEBD1C"/>
<path id="Vector_19" d="M56.9115 66.5948C59.0098 66.4364 60.6404 65.3748 60.5534 64.2238C60.4665 63.0728 58.695 62.2681 56.5967 62.4265C54.4984 62.585 52.8679 63.6465 52.9548 64.7976C53.0417 65.9486 54.8132 66.7533 56.9115 66.5948Z" fill="#EEBD1C"/>
<path id="Vector_20" d="M74.1512 25.7529C76.2495 25.5945 77.88 24.5329 77.7931 23.3819C77.7062 22.2308 75.9347 21.4262 73.8364 21.5846C71.7381 21.7431 70.1075 22.8046 70.1945 23.9557C70.2814 25.1067 72.0528 25.9114 74.1512 25.7529Z" fill="#EEBD1C"/>
<path id="Vector_21" d="M104.044 49.5329C107.808 49.4015 110.801 47.6214 110.729 45.5571C110.657 43.4928 107.547 41.926 103.783 42.0574C100.019 42.1889 97.0254 43.9689 97.0975 46.0332C97.1695 48.0975 100.28 49.6644 104.044 49.5329Z" fill="#EEBD1C"/>
<path id="Vector_22" d="M95.3552 40.6443C97.138 40.582 98.5555 39.7351 98.5211 38.7526C98.4868 37.7702 97.0138 37.0242 95.231 37.0864C93.4482 37.1487 92.0307 37.9956 92.065 38.9781C92.0993 39.9606 93.5724 40.7066 95.3552 40.6443Z" fill="#EEBD1C"/>
<path id="Vector_23" d="M79.4085 33.124C81.1874 32.9897 82.5695 32.0861 82.4955 31.1058C82.4214 30.1255 80.9193 29.4397 79.1405 29.574C77.3616 29.7083 75.9795 30.6119 76.0535 31.5922C76.1276 32.5725 77.6296 33.2583 79.4085 33.124Z" fill="#EEBD1C"/>
<path id="Vector_24" d="M77.2011 50.4378C81.2821 50.1297 84.4531 48.0628 84.2839 45.8213C84.1146 43.5798 80.6691 42.0125 76.5882 42.3206C72.5072 42.6288 69.3361 44.6957 69.5054 46.9372C69.6746 49.1787 73.1201 50.746 77.2011 50.4378Z" fill="#EEBD1C"/>
<path id="Vector_25" d="M79.94 62.59C81.6 62.56 83.22 62.06 84.74 61.4C84.85 62.35 84.44 63.27 84.04 64.14C83.65 64.97 83.24 65.83 82.51 66.38C81.63 67.04 80.42 67.12 79.35 66.85C78.28 66.58 77.33 65.99 76.4 65.39C75.51 64.82 73.24 62.7 75.07 61.69C75.65 61.37 76.29 61.79 76.83 61.99C77.85 62.37 78.84 62.61 79.94 62.59Z" fill="#D19600"/>
</g>
<g id="bubbles">
<path id="bubble" d="M13.98 32.75C18.3762 32.75 21.94 29.1862 21.94 24.79C21.94 20.3938 18.3762 16.83 13.98 16.83C9.58382 16.83 6.02 20.3938 6.02 24.79C6.02 29.1862 9.58382 32.75 13.98 32.75Z" fill="url(#paint0_radial_1_3)"/>
<g id="bubble_2">
<path id="Vector_26" d="M29.74 53.11C38.8472 53.11 46.23 45.7272 46.23 36.62C46.23 27.5128 38.8472 20.13 29.74 20.13C20.6328 20.13 13.25 27.5128 13.25 36.62C13.25 45.7272 20.6328 53.11 29.74 53.11Z" fill="url(#paint1_radial_1_3)"/>
<path id="Vector_27" opacity="0.8" d="M23.61 25.31C23.63 25.81 24.16 26.15 24.65 26.25C26.21 26.56 28.35 26.03 29.95 26.14C31.64 26.26 32.67 26.38 34.51 26.97C35.58 27.31 37.73 27.37 37.31 25.67C36.95 24.2 34.4 23.11 33.14 22.8C30.21 22.06 27.23 22.2 25.11 23.25C23.71 23.94 23.6 25.04 23.61 25.31Z" fill="white"/>
</g>
<path id="bubble_3" opacity="0.7" d="M102.38 100.98C105.318 100.98 107.7 98.5982 107.7 95.66C107.7 92.7218 105.318 90.34 102.38 90.34C99.4418 90.34 97.06 92.7218 97.06 95.66C97.06 98.5982 99.4418 100.98 102.38 100.98Z" fill="url(#paint2_radial_1_3)"/>
<g id="bubble_4">
<path id="Vector_28" d="M83.81 96.81C89.8465 96.81 94.74 91.9165 94.74 85.88C94.74 79.8435 89.8465 74.95 83.81 74.95C77.7735 74.95 72.88 79.8435 72.88 85.88C72.88 91.9165 77.7735 96.81 83.81 96.81Z" fill="url(#paint3_radial_1_3)"/>
<path id="Vector_29" opacity="0.8" d="M92.07 84.48C92.21 85.2 92.24 85.99 91.9 86.65C91.56 87.31 90.78 87.78 90.08 87.55C89.49 87.36 89.13 86.78 88.78 86.26C87.62 84.59 85.94 83.36 84.03 82.69C82.85 82.27 80.15 81.72 80.58 79.85C81.22 77.11 86.35 78 88.46 79.38C90.26 80.56 91.66 82.37 92.07 84.48Z" fill="white"/>
</g>
<g id="bubble_5">
<path id="Vector_30" d="M31.47 13.96C35.1814 13.96 38.19 10.9514 38.19 7.24C38.19 3.52865 35.1814 0.520004 31.47 0.520004C27.7586 0.520004 24.75 3.52865 24.75 7.24C24.75 10.9514 27.7586 13.96 31.47 13.96Z" fill="url(#paint4_radial_1_3)"/>
<path id="Vector_31" opacity="0.8" d="M26.66 6.41001C27.22 6.39001 27.68 5.54001 28.69 4.77001C29.6 4.07001 30.94 3.74001 31.75 3.69001C32.19 3.66001 32.84 3.52001 33.1 3.05001C33.24 2.79001 33.01 1.46001 31.14 1.71001C28.92 2.01001 26.98 3.47001 26.49 4.79001C26.16 5.69001 26.13 6.43001 26.66 6.41001Z" fill="white"/>
</g>
</g>
</g>
<defs>
<radialGradient id="paint0_radial_1_3" cx="0" cy="0" r="1" gradientUnits="userSpaceOnUse" gradientTransform="translate(14.1992 24.9181) rotate(5.31322) scale(8.83397)">
<stop offset="0.3759" stop-color="#80DEEA" stop-opacity="0"/>
<stop offset="1" stop-color="#80DEEA" stop-opacity="0.8"/>
</radialGradient>
<radialGradient id="paint1_radial_1_3" cx="0" cy="0" r="1" gradientTransform="matrix(16.3196 3.34356 -3.37355 16.4663 29.999 38.2497)" gradientUnits="userSpaceOnUse">
<stop offset="0.3759" stop-color="#80DEEA" stop-opacity="0"/>
<stop offset="1" stop-color="#80DEEA" stop-opacity="0.8"/>
</radialGradient>
<radialGradient id="paint2_radial_1_3" cx="0" cy="0" r="1" gradientUnits="userSpaceOnUse" gradientTransform="translate(102.791 95.3587) rotate(11.5785) scale(6.02669 6.02669)">
<stop offset="0.3119" stop-color="#80DEEA" stop-opacity="0"/>
<stop offset="1" stop-color="#80DEEA"/>
</radialGradient>
<radialGradient id="paint3_radial_1_3" cx="0" cy="0" r="1" gradientUnits="userSpaceOnUse" gradientTransform="translate(85.5306 88.8099) rotate(11.5785) scale(11.3942)">
<stop offset="0.2003" stop-color="#80DEEA" stop-opacity="0"/>
<stop offset="1" stop-color="#80DEEA" stop-opacity="0.8"/>
</radialGradient>
<radialGradient id="paint4_radial_1_3" cx="0" cy="0" r="1" gradientUnits="userSpaceOnUse" gradientTransform="translate(32.3812 8.23695) rotate(5.31322) scale(6.95588)">
<stop offset="0.3759" stop-color="#80DEEA" stop-opacity="0"/>
<stop offset="1" stop-color="#80DEEA" stop-opacity="0.8"/>
</radialGradient>
</defs>
</svg>
