{
  "accessors": [
    {
      "bufferView": 2,
      "componentType": 5126,
      "count": 2398,
      "max": [
        15.426300048828125,
        14.817899703979492,
        20.137798309326172
      ],
      "min": [
        1.0263004302978516,
        0.10610198974609375,
        0.5514993667602539
      ],
      "type": "VEC3"
    },
    {
      "bufferView": 2,
      "byteOffset": 28776,
      "componentType": 5126,
      "count": 2398,
      "max": [
        0.9999817609786987,
        0.9998970031738281,
        0.9983872175216675
      ],
      "min": [
        -0.9989247918128967,
        -0.9989170432090759,
        -0.9977172017097473
      ],
      "type": "VEC3"
    },
    {
      "bufferView": 3,
      "componentType": 5126,
      "count": 2398,
      "max": [
        0.9996512532234192,
        0.999942421913147,
        0.9994522929191589,
        1.0
      ],
      "min": [
        -0.9998084902763367,
        -0.9999426007270813,
        -0.9999672174453735,
        -1.0
      ],
      "type": "VEC4"
    },
    {
      "bufferView": 1,
      "componentType": 5126,
      "count": 2398,
      "max": [
        0.9679999947547913,
        0.9900000095367432
      ],
      "min": [
        0.009999999776482582,
        0.026499999687075615
      ],
      "type": "VEC2"
    },
    {
      "bufferView": 0,
      "componentType": 5125,
      "count": 3972,
      "type": "SCALAR"
    },
    {
      "bufferView": 2,
      "byteOffset": 57552,
      "componentType": 5126,
      "count": 3687,
      "max": [
        15.537799835205078,
        15.140701293945313,
        20.120899200439453
      ],
      "min": [
        1.015200138092041,
        0.09960174560546875,
        0.5514993667602539
      ],
      "type": "VEC3"
    },
    {
      "bufferView": 2,
      "byteOffset": 101796,
      "componentType": 5126,
      "count": 3687,
      "max": [
        0.9999817609786987,
        0.9998970031738281,
        0.9985853433609009
      ],
      "min": [
        -0.9987150430679321,
        -0.9996541142463684,
        -0.9981414079666138
      ],
      "type": "VEC3"
    },
    {
      "bufferView": 3,
      "byteOffset": 38368,
      "componentType": 5126,
      "count": 3687,
      "max": [
        0.9997787475585938,
        0.9999829530715942,
        0.9999781250953674,
        1.0
      ],
      "min": [
        -0.9996123313903809,
        -0.9999781847000122,
        -0.9999074935913086,
        -1.0
      ],
      "type": "VEC4"
    },
    {
      "bufferView": 1,
      "byteOffset": 19184,
      "componentType": 5126,
      "count": 3687,
      "max": [
        0.9894000291824341,
        0.9900000095367432
      ],
      "min": [
        0.009999999776482582,
        0.025499999523162842
      ],
      "type": "VEC2"
    },
    {
      "bufferView": 0,
      "byteOffset": 15888,
      "componentType": 5125,
      "count": 6117,
      "type": "SCALAR"
    },
    {
      "bufferView": 2,
      "byteOffset": 146040,
      "componentType": 5126,
      "count": 7165,
      "max": [
        15.869000434875488,
        16.7356014251709,
        20.167198181152344
      ],
      "min": [
        0.9310002326965332,
        0.15359878540039063,
        0.5674991607666016
      ],
      "type": "VEC3"
    },
    {
      "bufferView": 2,
      "byteOffset": 232020,
      "componentType": 5126,
      "count": 7165,
      "max": [
        0.9999706745147705,
        0.9988694190979004,
        0.9992072582244873
      ],
      "min": [
        -0.9996188282966614,
        -0.9999997615814209,
        -0.9994113445281982
      ],
      "type": "VEC3"
    },
    {
      "bufferView": 3,
      "byteOffset": 97360,
      "componentType": 5126,
      "count": 7165,
      "max": [
        0.9999664425849915,
        0.9999554753303528,
        0.9999571442604065,
        1.0
      ],
      "min": [
        -0.9999787211418152,
        -0.9999969601631165,
        -0.9999621510505676,
        -1.0
      ],
      "type": "VEC4"
    },
    {
      "bufferView": 1,
      "byteOffset": 48680,
      "componentType": 5126,
      "count": 7165,
      "max": [
        0.9807999730110168,
        0.9900000095367432
      ],
      "min": [
        0.009999999776482582,
        0.018200000748038292
      ],
      "type": "VEC2"
    },
    {
      "bufferView": 0,
      "byteOffset": 40356,
      "componentType": 5125,
      "count": 13383,
      "type": "SCALAR"
    },
    {
      "bufferView": 2,
      "byteOffset": 318000,
      "componentType": 5126,
      "count": 65532,
      "max": [
        16.272300720214844,
        16.826900482177734,
        22.257598876953125
      ],
      "min": [
        0.0,
        0.0121002197265625,
        0.02339935302734375
      ],
      "type": "VEC3"
    },
    {
      "bufferView": 2,
      "byteOffset": 1104384,
      "componentType": 5126,
      "count": 65532,
      "max": [
        0.9999970197677612,
        0.9999874830245972,
        0.9999730587005615
      ],
      "min": [
        -0.9999843835830688,
        -0.9999997615814209,
        -0.9999574422836304
      ],
      "type": "VEC3"
    },
    {
      "bufferView": 3,
      "byteOffset": 212000,
      "componentType": 5126,
      "count": 65532,
      "max": [
        1.0,
        0.9999987483024597,
        1.0,
        1.0
      ],
      "min": [
        -0.9999998211860657,
        -0.9999987483024597,
        -1.0,
        -1.0
      ],
      "type": "VEC4"
    },
    {
      "bufferView": 1,
      "byteOffset": 106000,
      "componentType": 5126,
      "count": 65532,
      "max": [
        0.9882000088691711,
        0.9900000095367432
      ],
      "min": [
        0.009999999776482582,
        0.012799999676644802
      ],
      "type": "VEC2"
    },
    {
      "bufferView": 0,
      "byteOffset": 93888,
      "componentType": 5125,
      "count": 309921,
      "type": "SCALAR"
    },
    {
      "bufferView": 2,
      "byteOffset": 1890768,
      "componentType": 5126,
      "count": 43989,
      "max": [
        16.272300720214844,
        16.8262996673584,
        22.183300018310547
      ],
      "min": [
        0.0012998580932617188,
        0.0,
        0.0
      ],
      "type": "VEC3"
    },
    {
      "bufferView": 2,
      "byteOffset": 2418636,
      "componentType": 5126,
      "count": 43989,
      "max": [
        0.9999713897705078,
        0.9999575614929199,
        0.9999722242355347
      ],
      "min": [
        -0.9999704360961914,
        -0.9999997615814209,
        -0.9999198913574219
      ],
      "type": "VEC3"
    },
    {
      "bufferView": 3,
      "byteOffset": 1260512,
      "componentType": 5126,
      "count": 43989,
      "max": [
        0.9999998211860657,
        0.9999998211860657,
        1.0,
        1.0
      ],
      "min": [
        -0.9999996423721313,
        -0.9999975562095642,
        -1.0,
        -1.0
      ],
      "type": "VEC4"
    },
    {
      "bufferView": 1,
      "byteOffset": 630256,
      "componentType": 5126,
      "count": 43989,
      "max": [
        0.9900000095367432,
        0.9900000095367432
      ],
      "min": [
        0.009999999776482582,
        0.009999999776482582
      ],
      "type": "VEC2"
    },
    {
      "bufferView": 0,
      "byteOffset": 1333572,
      "componentType": 5125,
      "count": 146733,
      "type": "SCALAR"
    }
  ],
  "asset": {
    "extras": {
      "author": "Rigsters (https://sketchfab.com/rigsters)",
      "license": "CC-BY-4.0 (http://creativecommons.org/licenses/by/4.0/)",
      "source": "https://sketchfab.com/3d-models/lion-crushing-a-serpent-d5e6b6a11da646f68a5fcba661dcae99",
      "title": "Lion Crushing a Serpent"
    },
    "generator": "Sketchfab-12.68.0",
    "version": "2.0"
  },
  "bufferViews": [
    {
      "buffer": 0,
      "byteLength": 1920504,
      "name": "floatBufferViews",
      "target": 34963
    },
    {
      "buffer": 0,
      "byteLength": 982168,
      "byteOffset": 1920504,
      "byteStride": 8,
      "name": "floatBufferViews",
      "target": 34962
    },
    {
      "buffer": 0,
      "byteLength": 2946504,
      "byteOffset": 2902672,
      "byteStride": 12,
      "name": "floatBufferViews",
      "target": 34962
    },
    {
      "buffer": 0,
      "byteLength": 1964336,
      "byteOffset": 5849176,
      "byteStride": 16,
      "name": "floatBufferViews",
      "target": 34962
    }
  ],
  "buffers": [
    {
      "byteLength": 7813512,
      "uri": "scene.bin"
    }
  ],
  "images": [
    {
      "uri": "textures/Scene_-_Root_baseColor.jpeg"
    },
    {
      "uri": "textures/Scene_-_Root_metallicRoughness.png"
    },
    {
      "uri": "textures/Scene_-_Root_normal.jpeg"
    }
  ],
  "materials": [
    {
      "doubleSided": true,
      "name": "Scene_-_Root",
      "normalTexture": {
        "index": 2
      },
      "occlusionTexture": {
        "index": 1
      },
      "pbrMetallicRoughness": {
        "baseColorTexture": {
          "index": 0
        },
        "metallicFactor": 0.5,
        "metallicRoughnessTexture": {
          "index": 1
        }
      }
    }
  ],
  "meshes": [
    {
      "name": "Object_0",
      "primitives": [
        {
          "attributes": {
            "NORMAL": 1,
            "POSITION": 0,
            "TANGENT": 2,
            "TEXCOORD_0": 3
          },
          "indices": 4,
          "material": 0,
          "mode": 4
        }
      ]
    },
    {
      "name": "Object_1",
      "primitives": [
        {
          "attributes": {
            "NORMAL": 6,
            "POSITION": 5,
            "TANGENT": 7,
            "TEXCOORD_0": 8
          },
          "indices": 9,
          "material": 0,
          "mode": 4
        }
      ]
    },
    {
      "name": "Object_2",
      "primitives": [
        {
          "attributes": {
            "NORMAL": 11,
            "POSITION": 10,
            "TANGENT": 12,
            "TEXCOORD_0": 13
          },
          "indices": 14,
          "material": 0,
          "mode": 4
        }
      ]
    },
    {
      "name": "Object_3",
      "primitives": [
        {
          "attributes": {
            "NORMAL": 16,
            "POSITION": 15,
            "TANGENT": 17,
            "TEXCOORD_0": 18
          },
          "indices": 19,
          "material": 0,
          "mode": 4
        }
      ]
    },
    {
      "name": "Object_4",
      "primitives": [
        {
          "attributes": {
            "NORMAL": 21,
            "POSITION": 20,
            "TANGENT": 22,
            "TEXCOORD_0": 23
          },
          "indices": 24,
          "material": 0,
          "mode": 4
        }
      ]
    }
  ],
  "nodes": [
    {
      "children": [
        1
      ],
      "matrix": [
        0.42483779788017273,
        -2.0101020927608567e-16,
        0.9052695035934448,
        0.0,
        0.0,
        -1.0,
        -2.220446049250313e-16,
        0.0,
        0.9052695035934448,
        9.433294098752326e-17,
        -0.42483779788017273,
        0.0,
        -1.7633522748947144,
        -23.21837234497071,
        25.993778228759762,
        1.0
      ],
      "name": "Sketchfab_model"
    },
    {
      "children": [
        2
      ],
      "matrix": [
        1.0,
        0.0,
        0.0,
        0.0,
        0.0,
        1.0,
        0.0,
        0.0,
        0.0,
        0.0,
        1.0,
        0.0,
        -8.256500244140625,
        -33.50320053100586,
        -9.257399559020996,
        1.0
      ],
      "name": "Lion.obj.cleaner.materialmerger.gles"
    },
    {
      "children": [
        3,
        4,
        5,
        6,
        7
      ],
      "name": "Object_2"
    },
    {
      "mesh": 0,
      "name": "Object_3"
    },
    {
      "mesh": 1,
      "name": "Object_4"
    },
    {
      "mesh": 2,
      "name": "Object_5"
    },
    {
      "mesh": 3,
      "name": "Object_6"
    },
    {
      "mesh": 4,
      "name": "Object_7"
    }
  ],
  "samplers": [
    {
      "magFilter": 9729,
      "minFilter": 9987,
      "wrapS": 10497,
      "wrapT": 10497
    }
  ],
  "scene": 0,
  "scenes": [
    {
      "name": "Sketchfab_Scene",
      "nodes": [
        0
      ]
    }
  ],
  "textures": [
    {
      "sampler": 0,
      "source": 0
    },
    {
      "sampler": 0,
      "source": 1
    },
    {
      "sampler": 0,
      "source": 2
    }
  ]
}
