<?xml version="1.0" encoding="utf-8"?>
<!-- Generator: Adobe Illustrator 27.5.0, SVG Export Plug-In . SVG Version: 6.00 Build 0)  -->
<svg version="1.1" xmlns="http://www.w3.org/2000/svg" xmlns:xlink="http://www.w3.org/1999/xlink" x="0px" y="0px"
	 viewBox="0 0 500 500" style="enable-background:new 0 0 500 500;" xml:space="preserve">
<!-- <g id="BACKGROUND">
	<rect id="XMLID_98_" style="fill:#DFB779;" width="500" height="500"/>
	<circle id="XMLID_97_" style="fill:#F9E0CD;" cx="434.167" cy="236.333" r="36"/>
	<path id="XMLID_96_" style="opacity:0.5;fill:#EAC99D;" d="M446.833,262.333c-1.44,0-2.862,0.075-4.268,0.204
		c-3.538-21.819-22.457-38.48-45.275-38.48c-15.33,0-28.894,7.526-37.225,19.077c-8.314-8.391-19.842-13.592-32.588-13.592
		c-24.131,0-43.897,18.635-45.724,42.298c-6.436-3.441-13.786-5.397-21.595-5.397c-8.206,0-15.901,2.165-22.566,5.939
		c-3.592-21.755-22.479-38.351-45.252-38.351c-16.582,0-31.107,8.799-39.166,21.981c-3.128-0.674-6.372-1.037-9.702-1.037
		c-14.052,0-26.621,6.325-35.037,16.275c-7.448-5.222-16.512-8.296-26.298-8.296c-23.281,0-42.498,17.346-45.466,39.817
		c-16.099,7.123-27.338,23.226-27.338,41.964c0,25.337,20.54,45.877,45.876,45.877c23.281,0,42.498-17.346,45.466-39.816
		c6.403-2.833,12.035-7.085,16.498-12.362c7.448,5.222,16.512,8.296,26.298,8.296c16.582,0,31.107-8.799,39.166-21.981
		c3.128,0.674,6.372,1.037,9.702,1.037c8.206,0,15.901-2.165,22.566-5.939c3.592,21.755,22.479,38.351,45.252,38.351
		c24.131,0,43.897-18.635,45.724-42.298c3.467,1.853,7.202,3.267,11.128,4.184c0,0.073-0.005,0.144-0.005,0.216
		c0,25.337,20.54,45.877,45.876,45.877c21.351,0,39.293-14.586,44.411-34.336c8.024,13.468,22.725,22.494,39.54,22.494
		c25.405,0,46-20.595,46-46C492.833,282.928,472.238,262.333,446.833,262.333z"/>
	<polygon id="XMLID_95_" style="fill:#C48653;" points="0,350.5 27.75,322.75 92.5,322.75 104.375,310.875 104.375,283 150.5,283 
		150.5,310 187,310 199.5,297.5 249.5,297.5 273,274 324,274 341,291 384,291 427,248 500,248 500,366 0,366 	"/>
	<rect id="XMLID_94_" y="339.67" style="fill:#722A2A;" width="500" height="160.33"/>
	<g id="XMLID_91_">
		<path id="XMLID_93_" style="fill:#722A2A;" d="M75.75,351.5L75.75,351.5c-5.385,0-9.75-4.365-9.75-9.75v-26.5
			c0-5.385,4.365-9.75,9.75-9.75l0,0c5.385,0,9.75,4.365,9.75,9.75v26.5C85.5,347.135,81.135,351.5,75.75,351.5z"/>
		<path id="XMLID_92_" style="fill:#722A2A;" d="M75.75,319.5L75.75,319.5c-3.452,0-6.25-2.798-6.25-6.25v-33.5
			c0-3.452,2.798-6.25,6.25-6.25l0,0c3.452,0,6.25,2.798,6.25,6.25v33.5C82,316.702,79.202,319.5,75.75,319.5z"/>
	</g>
	<g id="XMLID_88_">
		<path id="XMLID_90_" style="fill:#722A2A;" d="M451,351.5L451,351.5c-3.498,0-6.333-2.836-6.333-6.333v-17.214
			c0-3.498,2.836-6.333,6.333-6.333l0,0c3.498,0,6.333,2.836,6.333,6.333v17.214C457.333,348.664,454.498,351.5,451,351.5z"/>
		<path id="XMLID_89_" style="fill:#722A2A;" d="M451,330.714L451,330.714c-2.242,0-4.06-1.818-4.06-4.06v-21.761
			c0-2.242,1.818-4.06,4.06-4.06l0,0c2.242,0,4.06,1.818,4.06,4.06v21.761C455.06,328.896,453.242,330.714,451,330.714z"/>
	</g>
	<path id="XMLID_87_" style="fill:#722A2A;" d="M155.25,351.5L155.25,351.5c-3.452,0-6.25-2.798-6.25-6.25v-33.5
		c0-3.452,2.798-6.25,6.25-6.25l0,0c3.452,0,6.25,2.798,6.25,6.25v33.5C161.5,348.702,158.702,351.5,155.25,351.5z"/>
	<path id="XMLID_86_" style="fill:#722A2A;" d="M358.25,359.5L358.25,359.5c-3.452,0-6.25-2.798-6.25-6.25v-33.5
		c0-3.452,2.798-6.25,6.25-6.25l0,0c3.452,0,6.25,2.798,6.25,6.25v33.5C364.5,356.702,361.702,359.5,358.25,359.5z"/>
	<path id="XMLID_85_" style="fill:#722A2A;" d="M354.542,324.292L354.542,324.292c0-2.347,1.903-4.25,4.25-4.25h7.188
		c2.347,0,4.25,1.903,4.25,4.25l0,0c0,2.347-1.903,4.25-4.25,4.25h-7.188C356.444,328.542,354.542,326.639,354.542,324.292z"/>
	<g id="XMLID_79_">
		<path id="XMLID_83_" style="fill:#722A2A;" d="M288.25,351.5L288.25,351.5c-5.385,0-9.75-4.365-9.75-9.75v-26.5
			c0-5.385,4.365-9.75,9.75-9.75l0,0c5.385,0,9.75,4.365,9.75,9.75v26.5C298,347.135,293.635,351.5,288.25,351.5z"/>
		<path id="XMLID_82_" style="fill:#722A2A;" d="M288.25,326.167L288.25,326.167c-3.728,0-6.75-3.022-6.75-6.75v-32.5
			c0-3.728,3.022-6.75,6.75-6.75l0,0c3.728,0,6.75,3.022,6.75,6.75v32.5C295,323.145,291.978,326.167,288.25,326.167z"/>
		<path id="XMLID_80_" style="fill:#722A2A;" d="M268.167,320.25L268.167,320.25c0-2.634,2.135-4.769,4.769-4.769h8.066
			c2.634,0,4.769,2.135,4.769,4.769l0,0c0,2.634-2.135,4.769-4.769,4.769h-8.066C270.302,325.019,268.167,322.884,268.167,320.25z"
			/>
	</g>
	<g id="XMLID_81_">
		<path id="XMLID_78_" style="fill:#662626;" d="M85.19,339.67c-0.17,0.33-0.36,0.66-0.58,1l-16.99,26.5c-1.93,3-5.02,5.69-8.3,7.48
			l-17.96,28.02c-1.11,1.73-2.81,3.29-4.67,4.42c-1.85,1.13-3.87,1.83-5.59,1.83c-3.45,0-4.46-2.8-2.24-6.25l17.96-28.02
			c-0.99-1.79-0.63-4.48,1.3-7.48l16.99-26.5c0.22-0.34,0.45-0.67,0.69-1H85.19z"/>
		<path id="XMLID_77_" style="fill:#662626;" d="M457.08,339.67l-9.49,14.79c-1.25,1.96-3.25,3.7-5.39,4.86l-11.66,18.2
			c-1.44,2.25-4.43,4.06-6.67,4.06s-2.89-1.81-1.45-4.06l11.66-18.2c-0.64-1.16-0.41-2.9,0.85-4.86l9.48-14.79H457.08z"/>
	</g>
	<circle id="XMLID_76_" style="fill:#F9E0CD;" cx="142.5" cy="240" r="2.5"/>
	<circle id="XMLID_74_" style="fill:#F9E0CD;" cx="460.5" cy="37.667" r="2.5"/>
	<circle id="XMLID_73_" style="fill:#F9E0CD;" cx="30.333" cy="259.667" r="2.5"/>
	<circle id="XMLID_72_" style="fill:#F9E0CD;" cx="157" cy="42.5" r="2.5"/>
	<circle id="XMLID_70_" style="fill:#F9E0CD;" cx="98.25" cy="201.25" r="1.5"/>
	<circle id="XMLID_66_" style="fill:#F9E0CD;" cx="381" cy="76" r="1.5"/>
	<circle id="XMLID_9_" style="fill:#F9E0CD;" cx="447.5" cy="166.5" r="1.5"/>
	<circle id="XMLID_2_" style="fill:#F9E0CD;" cx="45.833" cy="47" r="1.5"/>
</g> -->
<g id="OBJECTS">
	<g>
		<rect id="XMLID_19_" x="104.667" y="384.488" style="fill:none;" width="301.915" height="40.972"/>
		<text id="XMLID_65_" transform="matrix(1 0 0 1 126.5713 393.46)"><tspan x="0" y="0" style="fill:#FAC99E; font-family:'Montserrat-Black'; font-size:12.09px;">Looks like the page you are looking for </tspan><tspan x="72.878" y="14.508" style="fill:#FAC99E; font-family:'Montserrat-Black'; font-size:12.09px;">has been taken...</tspan></text>
		<g id="XMLID_1_">
			<g id="XMLID_34_">
				<g id="XMLID_6_">
					<path id="XMLID_17_" style="fill:#FAC99E;" d="M302.393,97.103c0,13.998-6.152,26.568-15.906,35.139
						c-8.234,7.234-19.039,11.621-30.864,11.621c-25.823,0-46.76-20.936-46.76-46.76c0-11.856,4.408-22.681,11.672-30.915
						c8.57-9.723,21.11-15.855,35.088-15.855C281.457,50.333,302.393,71.27,302.393,97.103z"/>
					<path id="XMLID_16_" style="fill:#273B4C;" d="M298.179,101.307c0,11.856-4.418,22.691-11.692,30.935
						c-8.234,7.234-19.039,11.621-30.864,11.621c-25.823,0-46.76-20.936-46.76-46.76c0-11.856,4.408-22.681,11.672-30.915
						c8.234-7.244,19.049-11.641,30.884-11.641C277.243,54.547,298.179,75.483,298.179,101.307z"/>
					<ellipse id="XMLID_15_" style="fill:#FAC99E;" cx="255.626" cy="119.354" rx="143.573" ry="32.686"/>
					<path id="XMLID_18_" style="fill:#162630;" d="M399.198,122.119c0,17.416-59.829,31.639-135.249,32.629
						c-2.755,0.031-5.53,0.051-8.326,0.051c-2.673,0-5.336-0.02-7.968-0.051c-72.522-0.898-130.719-14.059-135.31-30.527
						c-0.194-0.694-0.296-1.398-0.296-2.102c0-6.03,7.173-11.682,19.692-16.529c20.365-7.897,54.861-13.672,95.58-15.518
						c1.857-0.092,3.724-0.163,5.612-0.235c7.387-0.265,14.967-0.408,22.691-0.408c7.846,0,15.549,0.143,23.058,0.418
						c1.877,0.071,3.745,0.143,5.591,0.235C349.847,93.102,399.198,106.304,399.198,122.119z"/>
					<path id="XMLID_28_" style="fill:#273B4C;" d="M399.198,123.777c0,17.416-59.829,31.639-135.249,32.629
						c-2.755,0.031-5.53,0.051-8.326,0.051c-2.673,0-5.336-0.021-7.968-0.051c-72.522-0.898-130.719-14.06-135.31-30.527
						c-0.194-0.694-0.296-1.398-0.296-2.102c0-6.03,7.173-11.682,19.692-16.529c20.365-7.897,54.861-13.672,95.58-15.519
						c1.857-0.092,3.724-0.163,5.612-0.235c7.387-0.265,14.967-0.408,22.691-0.408c7.846,0,15.549,0.143,23.058,0.418
						c1.877,0.071,3.745,0.143,5.591,0.235C349.847,94.76,399.198,107.962,399.198,123.777z"/>
					<path id="XMLID_14_" style="fill:#FAC99E;" d="M382.724,125.115c0,2.648-6.148,4.795-13.731,4.795
						c-7.584,0-13.731-2.147-13.731-4.795c0-2.648,6.148-4.795,13.731-4.795C376.576,120.32,382.724,122.467,382.724,125.115z"/>
					<path id="XMLID_13_" style="fill:#FAC99E;" d="M157.921,125.115c0,2.648-6.148,4.795-13.731,4.795
						c-7.584,0-13.731-2.147-13.731-4.795c0-2.648,6.148-4.795,13.731-4.795C151.773,120.32,157.921,122.467,157.921,125.115z"/>
					<path id="XMLID_11_" style="fill:#FAC99E;" d="M262.628,151.995c0,0.566-0.921,1.075-2.381,1.421
						c-1.232,0.293-2.85,0.47-4.619,0.47c-3.865,0-6.998-0.847-6.998-1.891c0-0.479,0.66-0.917,1.747-1.25
						c1.283-0.393,3.159-0.641,5.251-0.641C259.494,150.104,262.628,150.95,262.628,151.995z"/>
					<path id="XMLID_10_" style="fill:#FAC99E;" d="M271.683,100.386c0,1.299-2.112,2.465-5.461,3.26
						c-2.827,0.671-6.536,1.078-10.595,1.078c-8.865,0-16.052-1.942-16.052-4.338c0-1.1,1.513-2.104,4.007-2.868
						c2.942-0.902,7.247-1.471,12.046-1.471C264.495,96.047,271.683,97.989,271.683,100.386z"/>
					<path id="XMLID_22_" style="fill:#162630;" d="M255.695,122.267v13.437c0,0-123.659,5.142-143.35-9.825
						c-0.194-0.694-0.296-1.398-0.296-2.102c0-6.03,7.173-11.682,19.692-16.529c-0.837,0.592-4.112,3.51,6.969,6.856
						C151.116,117.849,255.695,122.267,255.695,122.267z"/>
					<path id="XMLID_12_" style="fill:#162630;" d="M255.555,122.267v13.437c0,0,123.659,5.142,143.35-9.825
						c0.194-0.694,0.296-1.398,0.296-2.102c0-6.03-7.173-11.682-19.691-16.529c0.837,0.592,4.112,3.51-6.969,6.856
						C360.134,117.849,255.555,122.267,255.555,122.267z"/>
					<path id="XMLID_24_" style="fill:#162630;" d="M266.449,138.245l-2.5,18.161c-2.755,0.031-5.53,0.051-8.326,0.051
						c-2.673,0-5.336-0.021-7.968-0.051l-2.5-18.161c-0.245-0.337,6.581-1.184,9.815-1.571v-0.194c0,0,0.316,0.041,0.826,0.102
						c0.52-0.061,0.837-0.102,0.837-0.102v0.194C259.868,137.061,266.693,137.908,266.449,138.245z"/>
					<path id="XMLID_23_" style="fill:#162630;" d="M284.273,91.74l-5.601,29.486c-7.387,0.265-14.968,0.408-22.691,0.408
						c-7.846,0-15.549-0.143-23.058-0.418l-5.601-29.486c1.857-0.092,3.724-0.163,5.612-0.235
						c7.387-0.265,14.967-0.408,22.691-0.408c7.846,0,15.549,0.143,23.058,0.418C280.559,91.577,282.426,91.648,284.273,91.74z"/>
					<g id="XMLID_4_">
						<ellipse id="XMLID_8_" style="fill:#273B4C;" cx="255.626" cy="127.856" rx="86.546" ry="18.343"/>
						<ellipse id="XMLID_7_" style="fill:#FAC99E;" cx="255.626" cy="128.494" rx="64.081" ry="12.944"/>
						<ellipse id="XMLID_5_" style="fill:#F9E0CD;" cx="255.626" cy="128.494" rx="36.973" ry="7.468"/>
					</g>
				</g>
				<path id="XMLID_57_" style="opacity:0.35;fill:#F9E0CD;" d="M365.477,362.748c-4.489-4.153-52.045-7.407-110.048-7.407
					c-58.738,0-106.763,3.346-110.201,7.57l72.91-234.523h74.481L365.477,362.748z"/>
				<path id="XMLID_62_" style="opacity:0.61;fill:#F7F3F0;" d="M365.763,363.666c-0.143,0.316-0.52,0.622-1.133,0.918
					c-0.01,0-0.01,0.01-0.02,0.01c-7.928,3.877-53.8,6.856-109.181,6.856c-55.391,0-101.263-2.979-109.191-6.856
					c0,0-0.01,0-0.01-0.01c-0.265-0.122-0.49-0.265-0.673-0.398c-0.061-0.051-0.112-0.092-0.163-0.143
					c-0.204-0.184-0.316-0.357-0.347-0.541l0.184-0.592c3.438-4.224,51.463-7.57,110.201-7.57c58.003,0,105.559,3.255,110.048,7.407
					L365.763,363.666z"/>
				<path id="XMLID_40_" style="fill:#F9E0CD;" d="M214.973,283.76l-26.9,40.123l7.417,1.473l2.924-14.726l23.015,4.57
					l-2.924,14.726l8.726,1.733l-3.573,17.997l-8.726-1.733l-2.945,14.834l-23.015-4.57l2.945-14.834l-32.614-6.476l3.249-16.361
					l28.643-41.477L214.973,283.76z"/>
				<path id="XMLID_49_" style="fill:#F9E0CD;" d="M284.371,292.842c-6.537,24.727-21.006,35.511-40.572,30.339
					c-19.782-5.23-26.924-21.726-20.387-46.454c6.537-24.727,20.898-35.539,40.68-30.309
					C283.659,251.591,290.908,268.115,284.371,292.842z M246.958,282.952c-4.178,15.805-4.1,22.037,1.276,23.458
					c5.267,1.392,8.415-3.987,12.594-19.791c4.206-15.911,4.099-22.036-1.168-23.428
					C254.283,261.769,251.164,267.04,246.958,282.952z"/>
				<path id="XMLID_52_" style="fill:#F9E0CD;" d="M325.012,282.057l-18.57,44.594h7.561v-15.013h23.464v15.013h8.897v18.348h-8.897
					v15.124h-23.464v-15.124h-33.25v-16.68l20.017-46.262H325.012z"/>
			</g>
			<g id="XMLID_67_">
				<path id="XMLID_3_" style="opacity:0.38;fill:#722A2A;" d="M227.507,365.178c0,1.066-11.465,1.931-25.607,1.931
					c-14.143,0-25.607-0.865-25.607-1.931c0-1.066,11.465-1.931,25.607-1.931C216.043,363.246,227.507,364.111,227.507,365.178z"/>
				<ellipse id="XMLID_69_" style="opacity:0.38;fill:#722A2A;" cx="320.785" cy="363.666" rx="25.607" ry="1.931"/>
				<path id="XMLID_68_" style="opacity:0.38;fill:#722A2A;" d="M270.998,363.918c0,0.801-8.608,1.45-19.227,1.45
					s-19.227-0.649-19.227-1.45c0-0.801,8.608-1.45,19.227-1.45S270.998,363.117,270.998,363.918z"/>
			</g>
		</g>
		<g id="XMLID_220_">
			<path id="XMLID_216_" style="fill:#C48653;" d="M307.958,447.599H203.292c-7.408,0-13.413-6.005-13.413-13.413v0
				c0-7.408,6.005-13.413,13.413-13.413h104.666c7.408,0,13.413,6.005,13.413,13.413v0
				C321.371,441.594,315.366,447.599,307.958,447.599z"/>
			<rect id="XMLID_35_" x="222.587" y="428.797" style="fill:none;" width="66.076" height="11.548"/>
			
				<text id="XMLID_218_" transform="matrix(1 0 0 1 222.5859 439.0765)" style="fill:#FFFFFF; font-family:'Montserrat-Bold'; font-size:13.8529px;">Go </text>
		</g>
	</g>
</g>
<g id="DESIGNED_BY_FREEPIK">
	<g>
		<!-- <g>
			<path style="fill:#592121;" d="M181.896,474.081v-0.161c-0.218,0.249-0.433,0.452-0.644,0.608
				c-0.212,0.157-0.441,0.276-0.689,0.357c-0.247,0.082-0.517,0.122-0.81,0.122c-0.388,0-0.747-0.082-1.078-0.246
				c-0.33-0.164-0.616-0.399-0.857-0.704c-0.242-0.305-0.425-0.662-0.549-1.074c-0.124-0.412-0.187-0.857-0.187-1.335
				c0-1.013,0.247-1.804,0.742-2.369c0.495-0.565,1.146-0.848,1.953-0.848c0.467,0,0.861,0.081,1.181,0.24
				c0.321,0.16,0.633,0.408,0.938,0.739v-2.392c0-0.333,0.066-0.583,0.199-0.754c0.132-0.17,0.321-0.255,0.567-0.255
				c0.245,0,0.434,0.078,0.567,0.234c0.133,0.157,0.199,0.386,0.199,0.691v7.147c0,0.309-0.071,0.54-0.214,0.694
				c-0.142,0.154-0.326,0.231-0.552,0.231c-0.221,0-0.405-0.08-0.549-0.24C181.968,474.606,181.896,474.378,181.896,474.081z
				 M178.708,471.701c0,0.439,0.068,0.813,0.205,1.122c0.137,0.309,0.324,0.541,0.561,0.697c0.238,0.157,0.497,0.236,0.778,0.236
				c0.285,0,0.545-0.075,0.781-0.223c0.235-0.148,0.423-0.376,0.564-0.682c0.141-0.307,0.21-0.691,0.21-1.149
				c0-0.432-0.07-0.803-0.21-1.114c-0.14-0.31-0.33-0.548-0.57-0.712c-0.24-0.164-0.502-0.245-0.787-0.245
				c-0.297,0-0.562,0.084-0.795,0.252c-0.234,0.168-0.415,0.409-0.543,0.724C178.772,470.92,178.708,471.285,178.708,471.701z"/>
			<path style="fill:#592121;" d="M189.042,472.111h-3.169c0.004,0.367,0.078,0.692,0.223,0.973
				c0.144,0.281,0.336,0.493,0.575,0.635c0.24,0.143,0.504,0.213,0.793,0.213c0.194,0,0.371-0.022,0.531-0.067
				c0.161-0.046,0.316-0.117,0.466-0.214c0.15-0.096,0.289-0.201,0.415-0.312c0.126-0.111,0.29-0.262,0.493-0.452
				c0.083-0.071,0.202-0.107,0.357-0.107c0.166,0,0.3,0.046,0.403,0.137c0.103,0.092,0.155,0.219,0.155,0.386
				c0,0.147-0.058,0.317-0.172,0.513c-0.116,0.196-0.289,0.384-0.52,0.564c-0.232,0.18-0.522,0.329-0.873,0.448
				c-0.35,0.119-0.753,0.178-1.208,0.178c-1.04,0-1.85-0.297-2.428-0.891c-0.578-0.593-0.866-1.399-0.866-2.416
				c0-0.479,0.071-0.923,0.213-1.332c0.143-0.41,0.351-0.761,0.623-1.054c0.273-0.293,0.609-0.517,1.009-0.674
				c0.4-0.156,0.843-0.234,1.33-0.234c0.633,0,1.176,0.133,1.629,0.4c0.454,0.267,0.794,0.612,1.019,1.035
				c0.225,0.424,0.339,0.856,0.339,1.294c0,0.408-0.117,0.672-0.35,0.794C189.795,472.05,189.466,472.111,189.042,472.111z
				 M185.872,471.19h2.938c-0.039-0.554-0.189-0.969-0.448-1.244c-0.259-0.275-0.6-0.413-1.024-0.413
				c-0.404,0-0.735,0.139-0.994,0.418C186.085,470.231,185.928,470.644,185.872,471.19z"/>
			<path style="fill:#592121;" d="M196.426,472.887c0,0.447-0.108,0.831-0.327,1.149c-0.217,0.319-0.539,0.56-0.965,0.725
				c-0.425,0.164-0.943,0.246-1.552,0.246c-0.582,0-1.08-0.089-1.496-0.267c-0.415-0.178-0.722-0.401-0.92-0.667
				c-0.198-0.268-0.297-0.535-0.297-0.805c0-0.178,0.063-0.33,0.19-0.457c0.126-0.126,0.287-0.19,0.481-0.19
				c0.17,0,0.3,0.042,0.391,0.124c0.091,0.083,0.178,0.2,0.261,0.35c0.166,0.29,0.366,0.504,0.597,0.648
				c0.231,0.142,0.547,0.214,0.947,0.214c0.324,0,0.591-0.073,0.798-0.217c0.208-0.145,0.311-0.31,0.311-0.496
				c0-0.285-0.107-0.492-0.324-0.622c-0.216-0.131-0.571-0.256-1.066-0.375c-0.558-0.138-1.012-0.284-1.362-0.436
				c-0.35-0.151-0.63-0.353-0.84-0.602c-0.21-0.25-0.315-0.557-0.315-0.92c0-0.324,0.097-0.631,0.291-0.92
				c0.194-0.288,0.48-0.519,0.858-0.691c0.377-0.173,0.833-0.259,1.368-0.259c0.419,0,0.797,0.043,1.131,0.131
				c0.335,0.086,0.614,0.204,0.837,0.35c0.224,0.146,0.394,0.308,0.51,0.486c0.117,0.178,0.175,0.352,0.175,0.523
				c0,0.186-0.062,0.338-0.186,0.457c-0.125,0.118-0.302,0.178-0.532,0.178c-0.166,0-0.308-0.048-0.424-0.143
				c-0.117-0.095-0.25-0.237-0.401-0.427c-0.123-0.158-0.266-0.285-0.433-0.38c-0.166-0.095-0.392-0.142-0.677-0.142
				c-0.293,0-0.536,0.062-0.73,0.187c-0.194,0.124-0.291,0.279-0.291,0.465c0,0.171,0.071,0.31,0.213,0.419
				c0.143,0.109,0.334,0.2,0.576,0.27c0.241,0.071,0.573,0.158,0.997,0.261c0.502,0.123,0.912,0.27,1.231,0.44
				c0.318,0.17,0.56,0.371,0.725,0.603C196.344,472.327,196.426,472.59,196.426,472.887z"/>
			<path style="fill:#592121;" d="M198.082,467.664c-0.226,0-0.418-0.07-0.579-0.208c-0.16-0.138-0.24-0.334-0.24-0.588
				c0-0.23,0.082-0.418,0.246-0.567c0.164-0.149,0.355-0.223,0.573-0.223c0.21,0,0.396,0.067,0.558,0.202
				c0.162,0.135,0.244,0.33,0.244,0.588c0,0.25-0.08,0.444-0.238,0.585C198.487,467.593,198.299,467.664,198.082,467.664z
				 M198.883,469.338v4.683c0,0.325-0.077,0.571-0.232,0.737c-0.155,0.166-0.35,0.249-0.588,0.249c-0.238,0-0.431-0.085-0.579-0.255
				c-0.149-0.17-0.222-0.414-0.222-0.73v-4.636c0-0.32,0.074-0.561,0.222-0.724c0.148-0.162,0.341-0.243,0.579-0.243
				c0.238,0,0.433,0.081,0.588,0.243C198.806,468.823,198.883,469.049,198.883,469.338z"/>
			<path style="fill:#592121;" d="M205.983,469.605v4.707c0,0.538-0.058,1.001-0.173,1.39c-0.114,0.387-0.298,0.708-0.552,0.961
				c-0.253,0.253-0.585,0.441-0.994,0.563c-0.41,0.123-0.919,0.184-1.529,0.184c-0.558,0-1.057-0.078-1.496-0.234
				c-0.439-0.157-0.777-0.358-1.015-0.605c-0.237-0.247-0.357-0.502-0.357-0.763c0-0.198,0.068-0.359,0.202-0.483
				c0.134-0.125,0.297-0.187,0.487-0.187c0.237,0,0.445,0.105,0.623,0.314c0.087,0.107,0.177,0.216,0.27,0.324
				c0.093,0.109,0.197,0.202,0.309,0.28c0.113,0.076,0.249,0.134,0.406,0.172c0.158,0.037,0.341,0.056,0.546,0.056
				c0.42,0,0.745-0.058,0.977-0.175c0.232-0.117,0.394-0.28,0.487-0.49c0.093-0.209,0.147-0.433,0.163-0.673
				c0.016-0.24,0.027-0.624,0.035-1.155c-0.25,0.349-0.537,0.615-0.864,0.797c-0.326,0.182-0.715,0.273-1.166,0.273
				c-0.542,0-1.016-0.138-1.422-0.416c-0.405-0.277-0.717-0.665-0.934-1.163c-0.218-0.499-0.326-1.074-0.326-1.727
				c0-0.486,0.066-0.927,0.198-1.318c0.133-0.393,0.322-0.723,0.567-0.992c0.245-0.269,0.528-0.472,0.849-0.609
				c0.32-0.136,0.673-0.204,1.057-0.204c0.459,0,0.857,0.089,1.193,0.264c0.336,0.177,0.649,0.453,0.938,0.829v-0.22
				c0-0.281,0.069-0.498,0.208-0.653c0.139-0.154,0.317-0.231,0.535-0.231c0.313,0,0.52,0.103,0.623,0.306
				C205.931,468.927,205.983,469.221,205.983,469.605z M201.287,471.659c0,0.657,0.143,1.154,0.43,1.49
				c0.287,0.337,0.658,0.505,1.113,0.505c0.269,0,0.523-0.073,0.762-0.217c0.24-0.145,0.435-0.362,0.585-0.653
				c0.15-0.291,0.226-0.644,0.226-1.06c0-0.66-0.145-1.176-0.436-1.543c-0.291-0.368-0.674-0.552-1.149-0.552
				c-0.463,0-0.834,0.176-1.113,0.529C201.426,470.509,201.287,471.01,201.287,471.659z"/>
			<path style="fill:#592121;" d="M208.558,469.314v0.196c0.284-0.376,0.596-0.652,0.935-0.828c0.338-0.176,0.727-0.264,1.166-0.264
				c0.427,0,0.809,0.093,1.146,0.28c0.336,0.186,0.588,0.449,0.754,0.789c0.107,0.198,0.176,0.413,0.208,0.642
				c0.032,0.23,0.048,0.522,0.048,0.879v3.015c0,0.325-0.075,0.571-0.223,0.737c-0.148,0.166-0.341,0.249-0.579,0.249
				c-0.242,0-0.437-0.085-0.588-0.255c-0.151-0.17-0.225-0.414-0.225-0.73v-2.701c0-0.534-0.074-0.943-0.223-1.226
				c-0.149-0.283-0.444-0.425-0.888-0.425c-0.288,0-0.552,0.086-0.789,0.258c-0.237,0.173-0.412,0.41-0.522,0.71
				c-0.079,0.242-0.119,0.692-0.119,1.353v2.03c0,0.328-0.077,0.576-0.228,0.74c-0.152,0.164-0.349,0.246-0.59,0.246
				c-0.234,0-0.426-0.085-0.576-0.255c-0.15-0.17-0.226-0.414-0.226-0.73v-4.683c0-0.309,0.067-0.54,0.202-0.692
				c0.135-0.152,0.319-0.228,0.552-0.228c0.143,0,0.272,0.034,0.387,0.101c0.114,0.068,0.207,0.168,0.276,0.302
				C208.523,468.956,208.558,469.121,208.558,469.314z"/>
			<path style="fill:#592121;" d="M218.417,472.111h-3.17c0.004,0.367,0.078,0.692,0.223,0.973c0.144,0.281,0.336,0.493,0.576,0.635
				c0.239,0.143,0.503,0.213,0.792,0.213c0.194,0,0.371-0.022,0.532-0.067c0.16-0.046,0.315-0.117,0.466-0.214
				c0.15-0.096,0.288-0.201,0.416-0.312c0.126-0.111,0.29-0.262,0.492-0.452c0.083-0.071,0.202-0.107,0.356-0.107
				c0.166,0,0.301,0.046,0.404,0.137c0.103,0.092,0.154,0.219,0.154,0.386c0,0.147-0.057,0.317-0.172,0.513
				c-0.115,0.196-0.288,0.384-0.52,0.564c-0.232,0.18-0.522,0.329-0.872,0.448c-0.35,0.119-0.753,0.178-1.208,0.178
				c-1.041,0-1.85-0.297-2.428-0.891c-0.577-0.593-0.866-1.399-0.866-2.416c0-0.479,0.071-0.923,0.214-1.332
				c0.143-0.41,0.351-0.761,0.624-1.054c0.273-0.293,0.609-0.517,1.009-0.674c0.399-0.156,0.843-0.234,1.33-0.234
				c0.633,0,1.176,0.133,1.629,0.4c0.453,0.267,0.793,0.612,1.019,1.035c0.225,0.424,0.338,0.856,0.338,1.294
				c0,0.408-0.117,0.672-0.35,0.794C219.17,472.05,218.841,472.111,218.417,472.111z M215.247,471.19h2.938
				c-0.039-0.554-0.189-0.969-0.448-1.244c-0.259-0.275-0.6-0.413-1.024-0.413c-0.404,0-0.736,0.139-0.995,0.418
				C215.46,470.231,215.303,470.644,215.247,471.19z"/>
			<path style="fill:#592121;" d="M225.023,474.081v-0.161c-0.218,0.249-0.432,0.452-0.644,0.608
				c-0.212,0.157-0.441,0.276-0.688,0.357c-0.247,0.082-0.517,0.122-0.81,0.122c-0.389,0-0.747-0.082-1.078-0.246
				c-0.33-0.164-0.616-0.399-0.858-0.704c-0.242-0.305-0.424-0.662-0.549-1.074c-0.125-0.412-0.187-0.857-0.187-1.335
				c0-1.013,0.247-1.804,0.742-2.369c0.495-0.565,1.146-0.848,1.953-0.848c0.467,0,0.861,0.081,1.181,0.24
				c0.32,0.16,0.633,0.408,0.938,0.739v-2.392c0-0.333,0.066-0.583,0.199-0.754c0.132-0.17,0.322-0.255,0.567-0.255
				c0.245,0,0.434,0.078,0.567,0.234c0.133,0.157,0.199,0.386,0.199,0.691v7.147c0,0.309-0.071,0.54-0.214,0.694
				c-0.142,0.154-0.326,0.231-0.552,0.231c-0.222,0-0.405-0.08-0.549-0.24C225.096,474.606,225.023,474.378,225.023,474.081z
				 M221.836,471.701c0,0.439,0.068,0.813,0.204,1.122c0.137,0.309,0.324,0.541,0.562,0.697c0.237,0.157,0.496,0.236,0.777,0.236
				c0.285,0,0.546-0.075,0.781-0.223c0.236-0.148,0.424-0.376,0.564-0.682c0.141-0.307,0.211-0.691,0.211-1.149
				c0-0.432-0.07-0.803-0.211-1.114c-0.14-0.31-0.33-0.548-0.57-0.712c-0.24-0.164-0.502-0.245-0.787-0.245
				c-0.296,0-0.562,0.084-0.795,0.252c-0.233,0.168-0.414,0.409-0.543,0.724C221.9,470.92,221.836,471.285,221.836,471.701z"/>
			<path style="fill:#592121;" d="M231.647,466.934v2.475c0.304-0.316,0.615-0.559,0.932-0.727c0.316-0.168,0.709-0.252,1.176-0.252
				c0.538,0,1.01,0.128,1.416,0.382c0.405,0.256,0.72,0.626,0.944,1.111c0.223,0.484,0.336,1.06,0.336,1.725
				c0,0.491-0.063,0.94-0.187,1.35c-0.125,0.41-0.306,0.765-0.543,1.065c-0.238,0.301-0.525,0.534-0.864,0.698
				c-0.339,0.164-0.712,0.246-1.119,0.246c-0.25,0-0.484-0.029-0.703-0.089c-0.22-0.059-0.407-0.137-0.561-0.234
				c-0.154-0.096-0.286-0.197-0.394-0.3c-0.109-0.103-0.253-0.258-0.431-0.463v0.161c0,0.305-0.073,0.535-0.22,0.692
				c-0.146,0.156-0.332,0.234-0.558,0.234c-0.229,0-0.413-0.078-0.549-0.234c-0.137-0.157-0.205-0.388-0.205-0.692v-7.077
				c0-0.328,0.066-0.577,0.198-0.745c0.133-0.168,0.318-0.252,0.555-0.252c0.25,0,0.441,0.08,0.576,0.24
				C231.58,466.409,231.647,466.636,231.647,466.934z M231.724,471.748c0,0.645,0.147,1.14,0.442,1.486
				c0.295,0.347,0.682,0.521,1.161,0.521c0.407,0,0.759-0.177,1.053-0.532c0.295-0.355,0.442-0.862,0.442-1.523
				c0-0.427-0.061-0.796-0.184-1.104c-0.123-0.309-0.297-0.548-0.522-0.715c-0.226-0.168-0.489-0.252-0.79-0.252
				c-0.309,0-0.584,0.084-0.825,0.252c-0.242,0.168-0.431,0.411-0.57,0.73C231.794,470.929,231.724,471.309,231.724,471.748z"/>
			<path style="fill:#592121;" d="M238.551,475.209l0.148-0.363l-1.995-5.022c-0.122-0.288-0.184-0.499-0.184-0.629
				c0-0.139,0.036-0.267,0.107-0.385c0.071-0.119,0.169-0.214,0.294-0.285c0.125-0.072,0.255-0.107,0.389-0.107
				c0.233,0,0.409,0.075,0.529,0.223c0.119,0.148,0.223,0.361,0.314,0.638l1.372,3.989l1.3-3.71c0.103-0.3,0.196-0.536,0.279-0.706
				c0.083-0.17,0.171-0.285,0.264-0.344c0.093-0.06,0.225-0.09,0.395-0.09c0.123,0,0.241,0.032,0.353,0.098
				c0.113,0.065,0.2,0.153,0.261,0.264c0.061,0.111,0.092,0.227,0.092,0.35c-0.016,0.075-0.042,0.182-0.077,0.321
				c-0.036,0.138-0.079,0.279-0.13,0.421l-2.113,5.533c-0.183,0.487-0.361,0.868-0.535,1.145c-0.174,0.277-0.404,0.491-0.691,0.638
				c-0.287,0.149-0.674,0.223-1.161,0.223c-0.475,0-0.831-0.051-1.068-0.154c-0.238-0.104-0.356-0.292-0.356-0.565
				c0-0.186,0.056-0.33,0.169-0.43c0.112-0.101,0.28-0.152,0.501-0.152c0.087,0,0.173,0.012,0.256,0.037
				c0.103,0.023,0.192,0.035,0.267,0.035c0.186,0,0.333-0.028,0.44-0.084c0.107-0.055,0.202-0.151,0.288-0.288
				C238.342,475.675,238.44,475.474,238.551,475.209z"/>
		</g> -->
		<!-- <g>
			<path style="fill:#592121;" d="M262.027,468.558h0.386v-0.487c0-0.509,0.062-0.911,0.192-1.211
				c0.128-0.299,0.347-0.516,0.654-0.653c0.306-0.135,0.727-0.204,1.26-0.204c0.95,0,1.42,0.23,1.42,0.697
				c0,0.149-0.049,0.278-0.15,0.385c-0.096,0.106-0.214,0.16-0.349,0.16c-0.062,0-0.174-0.012-0.329-0.037
				c-0.148-0.021-0.283-0.035-0.39-0.035c-0.292,0-0.479,0.088-0.566,0.259c-0.079,0.172-0.122,0.418-0.122,0.74v0.386h0.395
				c0.62,0,0.926,0.185,0.926,0.56c0,0.262-0.079,0.432-0.245,0.503c-0.164,0.071-0.39,0.107-0.681,0.107h-0.395v4.294
				c0,0.319-0.075,0.563-0.231,0.73c-0.151,0.17-0.346,0.254-0.589,0.254c-0.23,0-0.419-0.084-0.574-0.254
				c-0.153-0.167-0.228-0.411-0.228-0.73v-4.294h-0.446c-0.243,0-0.427-0.052-0.558-0.164c-0.131-0.107-0.197-0.25-0.197-0.423
				C261.213,468.75,261.484,468.558,262.027,468.558"/>
			<path style="fill:#592121;" d="M267.333,472.667v1.355c0,0.327-0.083,0.574-0.234,0.737c-0.154,0.166-0.349,0.247-0.586,0.247
				c-0.239,0-0.43-0.082-0.579-0.25c-0.148-0.165-0.225-0.41-0.225-0.734v-4.514c0-0.729,0.262-1.093,0.788-1.093
				c0.271,0,0.464,0.084,0.583,0.255c0.118,0.171,0.184,0.421,0.198,0.755c0.192-0.334,0.39-0.584,0.593-0.755
				c0.208-0.171,0.477-0.255,0.819-0.255c0.343,0,0.67,0.084,0.991,0.255c0.322,0.171,0.482,0.398,0.482,0.678
				c0,0.197-0.069,0.363-0.204,0.488c-0.137,0.131-0.284,0.195-0.441,0.195c-0.062,0-0.207-0.039-0.433-0.112
				c-0.228-0.071-0.43-0.108-0.602-0.108c-0.237,0-0.433,0.064-0.582,0.186c-0.151,0.128-0.269,0.311-0.353,0.554
				c-0.081,0.247-0.137,0.541-0.17,0.878C267.347,471.767,267.333,472.18,267.333,472.667"/>
			<path style="fill:#592121;" d="M274.784,472.109h-3.171c0.006,0.367,0.078,0.694,0.222,0.974
				c0.147,0.279,0.338,0.491,0.578,0.635c0.24,0.142,0.502,0.212,0.793,0.212c0.194,0,0.37-0.021,0.531-0.07
				c0.159-0.043,0.316-0.116,0.466-0.213c0.151-0.095,0.287-0.199,0.415-0.313c0.126-0.109,0.292-0.26,0.494-0.449
				c0.084-0.071,0.203-0.109,0.355-0.109c0.168,0,0.301,0.046,0.406,0.139c0.104,0.092,0.152,0.219,0.152,0.386
				c0,0.147-0.056,0.317-0.167,0.512c-0.117,0.198-0.289,0.385-0.522,0.567c-0.234,0.178-0.524,0.329-0.873,0.446
				c-0.35,0.119-0.754,0.179-1.207,0.179c-1.044,0-1.852-0.296-2.429-0.889c-0.578-0.595-0.87-1.401-0.87-2.418
				c0-0.479,0.073-0.924,0.217-1.334c0.14-0.411,0.349-0.76,0.624-1.055c0.272-0.294,0.606-0.518,1.008-0.674
				c0.399-0.156,0.842-0.234,1.33-0.234c0.632,0,1.176,0.134,1.629,0.404c0.452,0.264,0.796,0.61,1.018,1.034
				c0.226,0.426,0.339,0.855,0.339,1.296c0,0.405-0.118,0.669-0.351,0.791C275.535,472.048,275.207,472.109,274.784,472.109
				 M271.612,471.187h2.938c-0.039-0.553-0.186-0.969-0.446-1.241c-0.261-0.277-0.599-0.413-1.025-0.413
				c-0.403,0-0.736,0.137-0.995,0.418C271.826,470.23,271.667,470.642,271.612,471.187"/>
			<path style="fill:#592121;" d="M281.526,472.109h-3.171c0.004,0.367,0.078,0.694,0.221,0.974
				c0.145,0.279,0.337,0.491,0.576,0.635c0.239,0.142,0.504,0.212,0.795,0.212c0.192,0,0.371-0.021,0.528-0.07
				c0.162-0.043,0.316-0.116,0.469-0.213c0.151-0.095,0.287-0.199,0.415-0.313c0.125-0.109,0.29-0.26,0.493-0.449
				c0.084-0.071,0.204-0.109,0.355-0.109c0.168,0,0.302,0.046,0.406,0.139c0.103,0.092,0.15,0.219,0.15,0.386
				c0,0.147-0.054,0.317-0.171,0.512c-0.111,0.198-0.285,0.385-0.519,0.567c-0.231,0.178-0.525,0.329-0.872,0.446
				c-0.349,0.119-0.755,0.179-1.209,0.179c-1.042,0-1.849-0.296-2.429-0.889c-0.577-0.595-0.868-1.401-0.868-2.418
				c0-0.479,0.073-0.924,0.217-1.334c0.142-0.411,0.349-0.76,0.623-1.055c0.272-0.294,0.608-0.518,1.009-0.674
				c0.398-0.156,0.844-0.234,1.33-0.234c0.631,0,1.174,0.134,1.633,0.404c0.45,0.264,0.791,0.61,1.013,1.034
				c0.225,0.426,0.341,0.855,0.341,1.296c0,0.405-0.12,0.669-0.351,0.791C282.276,472.048,281.948,472.109,281.526,472.109
				 M278.355,471.187h2.938c-0.04-0.553-0.19-0.969-0.447-1.241c-0.263-0.277-0.601-0.413-1.027-0.413
				c-0.403,0-0.735,0.137-0.995,0.418C278.566,470.23,278.408,470.642,278.355,471.187"/>
			<path style="fill:#592121;" d="M285.076,469.326v0.194c0.304-0.375,0.621-0.651,0.953-0.828c0.324-0.178,0.699-0.267,1.114-0.267
				c0.497,0,0.959,0.13,1.379,0.386c0.419,0.259,0.749,0.635,0.993,1.129c0.244,0.497,0.366,1.081,0.366,1.758
				c0,0.497-0.07,0.957-0.21,1.376c-0.14,0.417-0.336,0.767-0.581,1.05c-0.246,0.281-0.535,0.501-0.868,0.654
				c-0.339,0.151-0.695,0.227-1.08,0.227c-0.461,0-0.853-0.093-1.166-0.28c-0.314-0.183-0.614-0.458-0.901-0.816v2.433
				c0,0.71-0.26,1.069-0.778,1.069c-0.306,0-0.505-0.092-0.607-0.275c-0.095-0.187-0.146-0.452-0.146-0.807v-6.996
				c0-0.309,0.066-0.537,0.2-0.692c0.134-0.15,0.32-0.228,0.553-0.228c0.231,0,0.416,0.078,0.56,0.234
				C285.005,468.807,285.076,469.03,285.076,469.326 M288.253,471.681c0-0.428-0.067-0.796-0.197-1.102
				c-0.131-0.308-0.312-0.542-0.541-0.705c-0.23-0.164-0.489-0.248-0.77-0.248c-0.446,0-0.824,0.178-1.13,0.527
				c-0.308,0.354-0.462,0.872-0.462,1.558c0,0.642,0.153,1.146,0.46,1.504c0.305,0.358,0.679,0.536,1.133,0.536
				c0.268,0,0.519-0.079,0.748-0.233c0.232-0.158,0.416-0.392,0.552-0.704C288.184,472.502,288.253,472.123,288.253,471.681"/>
			<path style="fill:#592121;" d="M291.513,467.66c-0.226,0-0.418-0.071-0.577-0.209c-0.162-0.139-0.242-0.333-0.242-0.585
				c0-0.23,0.082-0.419,0.248-0.569c0.164-0.146,0.354-0.222,0.571-0.222c0.212,0,0.397,0.067,0.559,0.2
				c0.162,0.137,0.244,0.334,0.244,0.591c0,0.25-0.079,0.444-0.236,0.585C291.921,467.589,291.733,467.66,291.513,467.66
				 M292.316,469.334v4.689c0,0.322-0.077,0.568-0.231,0.732c-0.156,0.168-0.35,0.25-0.588,0.25c-0.238,0-0.428-0.084-0.58-0.254
				c-0.146-0.173-0.222-0.416-0.222-0.729v-4.642c0-0.319,0.076-0.559,0.222-0.722c0.152-0.165,0.342-0.245,0.58-0.245
				c0.238,0,0.432,0.079,0.588,0.245C292.238,468.821,292.316,469.048,292.316,469.334"/>
			<path style="fill:#592121;" d="M297.54,474.266l-1.428-2.354l-0.88,0.83v1.291c0,0.312-0.083,0.551-0.248,0.718
				c-0.16,0.17-0.354,0.254-0.566,0.254c-0.249,0-0.447-0.082-0.588-0.25c-0.142-0.165-0.215-0.41-0.215-0.734v-6.915
				c0-0.358,0.071-0.632,0.207-0.821c0.139-0.19,0.341-0.283,0.596-0.283c0.25,0,0.446,0.086,0.593,0.257
				c0.146,0.169,0.221,0.421,0.221,0.751v3.933l1.823-1.914c0.227-0.235,0.396-0.4,0.517-0.486c0.118-0.087,0.262-0.13,0.431-0.13
				c0.204,0,0.371,0.065,0.51,0.193c0.132,0.129,0.2,0.291,0.2,0.483c0,0.237-0.221,0.555-0.659,0.951l-0.861,0.789l1.662,2.614
				c0.121,0.196,0.212,0.34,0.265,0.441c0.053,0.099,0.081,0.2,0.081,0.289c0,0.258-0.071,0.459-0.213,0.61
				c-0.14,0.148-0.327,0.221-0.554,0.221c-0.198,0-0.352-0.051-0.458-0.16C297.87,474.738,297.721,474.543,297.54,474.266"/>
			<path style="fill:#592121;" d="M301.063,475.006c-0.245,0-0.455-0.079-0.634-0.238c-0.178-0.156-0.268-0.378-0.268-0.665
				c0-0.241,0.086-0.449,0.256-0.622c0.172-0.174,0.38-0.262,0.63-0.262c0.248,0,0.46,0.087,0.639,0.258
				c0.174,0.172,0.264,0.383,0.264,0.626c0,0.283-0.089,0.505-0.264,0.662C301.507,474.927,301.299,475.006,301.063,475.006"/>
			<path style="fill:#592121;" d="M309.124,472.999c0,0.2-0.06,0.418-0.182,0.646c-0.12,0.231-0.305,0.449-0.553,0.656
				c-0.247,0.208-0.557,0.377-0.935,0.502c-0.375,0.126-0.8,0.192-1.269,0.192c-1.004,0-1.786-0.293-2.349-0.876
				c-0.56-0.585-0.841-1.368-0.841-2.35c0-0.667,0.128-1.254,0.387-1.765c0.255-0.509,0.628-0.905,1.113-1.184
				c0.487-0.28,1.072-0.419,1.746-0.419c0.421,0,0.805,0.061,1.158,0.184c0.35,0.122,0.645,0.282,0.89,0.474
				c0.242,0.197,0.429,0.402,0.556,0.62c0.129,0.22,0.192,0.426,0.192,0.617c0,0.192-0.071,0.357-0.214,0.492
				c-0.147,0.134-0.322,0.203-0.524,0.203c-0.137,0-0.249-0.035-0.338-0.104c-0.09-0.07-0.19-0.181-0.299-0.339
				c-0.198-0.299-0.404-0.526-0.623-0.674c-0.214-0.152-0.488-0.226-0.821-0.226c-0.476,0-0.865,0.186-1.158,0.561
				c-0.292,0.372-0.44,0.888-0.44,1.534c0,0.305,0.039,0.587,0.114,0.842c0.073,0.254,0.182,0.472,0.325,0.652
				c0.144,0.179,0.315,0.315,0.516,0.409c0.203,0.096,0.425,0.141,0.665,0.141c0.326,0,0.604-0.075,0.836-0.225
				c0.235-0.151,0.439-0.38,0.616-0.689c0.099-0.182,0.204-0.323,0.318-0.427c0.114-0.102,0.256-0.156,0.422-0.156
				c0.198,0,0.363,0.077,0.491,0.227C309.058,472.668,309.124,472.83,309.124,472.999"/>
			<path style="fill:#592121;" d="M316.118,471.711c0,0.481-0.076,0.928-0.222,1.337c-0.155,0.408-0.37,0.758-0.656,1.049
				c-0.285,0.293-0.626,0.518-1.02,0.675c-0.4,0.154-0.844,0.234-1.337,0.234c-0.491,0-0.933-0.08-1.326-0.239
				c-0.389-0.156-0.732-0.384-1.016-0.676c-0.288-0.298-0.505-0.646-0.657-1.048c-0.143-0.402-0.219-0.847-0.219-1.332
				c0-0.491,0.078-0.941,0.224-1.349c0.151-0.409,0.368-0.758,0.649-1.046c0.282-0.289,0.621-0.511,1.019-0.669
				c0.402-0.156,0.844-0.234,1.326-0.234c0.49,0,0.936,0.078,1.337,0.239c0.398,0.157,0.739,0.384,1.027,0.674
				c0.286,0.297,0.502,0.643,0.65,1.045C316.043,470.779,316.118,471.223,316.118,471.711 M314.491,471.711
				c0-0.662-0.146-1.176-0.436-1.543c-0.289-0.372-0.681-0.555-1.171-0.555c-0.317,0-0.597,0.082-0.839,0.246
				c-0.242,0.163-0.425,0.406-0.556,0.727c-0.131,0.321-0.197,0.696-0.197,1.124c0,0.424,0.064,0.792,0.193,1.108
				c0.13,0.319,0.314,0.561,0.554,0.729c0.241,0.167,0.522,0.253,0.845,0.253c0.49,0,0.882-0.185,1.171-0.557
				C314.344,472.875,314.491,472.362,314.491,471.711"/>
			<path style="fill:#592121;" d="M322.3,471.831v2.154c0,0.342-0.075,0.594-0.231,0.767c-0.156,0.17-0.357,0.255-0.611,0.255
				c-0.245,0-0.446-0.085-0.594-0.255c-0.154-0.173-0.233-0.425-0.233-0.767v-2.582c0-0.408-0.013-0.726-0.04-0.953
				c-0.029-0.221-0.105-0.41-0.226-0.552c-0.123-0.147-0.318-0.22-0.582-0.22c-0.532,0-0.879,0.181-1.048,0.551
				c-0.167,0.36-0.254,0.883-0.254,1.567v2.189c0,0.336-0.076,0.591-0.226,0.765c-0.156,0.171-0.355,0.258-0.603,0.258
				c-0.247,0-0.448-0.087-0.604-0.258c-0.157-0.173-0.235-0.428-0.235-0.765v-4.637c0-0.306,0.07-0.538,0.209-0.695
				c0.143-0.161,0.329-0.239,0.556-0.239c0.223,0,0.407,0.077,0.557,0.222c0.148,0.149,0.221,0.354,0.221,0.615v0.153
				c0.283-0.334,0.584-0.582,0.903-0.738c0.323-0.162,0.676-0.241,1.07-0.241c0.407,0,0.757,0.082,1.049,0.244
				c0.293,0.163,0.533,0.41,0.725,0.735c0.275-0.33,0.568-0.577,0.881-0.738c0.313-0.161,0.658-0.241,1.039-0.241
				c0.441,0,0.826,0.089,1.146,0.262c0.319,0.174,0.558,0.425,0.717,0.747c0.138,0.295,0.206,0.756,0.206,1.385v3.164
				c0,0.342-0.076,0.594-0.23,0.767c-0.154,0.17-0.359,0.255-0.612,0.255c-0.247,0-0.446-0.087-0.603-0.258
				c-0.156-0.173-0.235-0.428-0.235-0.765v-2.726c0-0.349-0.015-0.627-0.043-0.836c-0.029-0.211-0.11-0.388-0.239-0.529
				c-0.133-0.142-0.332-0.215-0.596-0.215c-0.214,0-0.416,0.066-0.609,0.192c-0.192,0.124-0.342,0.298-0.45,0.508
				C322.362,470.652,322.3,471.137,322.3,471.831"/>
		</g> -->
		<!-- <g>
			<path style="fill:#592121;" d="M246.86,471.319c-0.001-0.003-0.001-0.006-0.001-0.011
				C246.859,471.313,246.859,471.316,246.86,471.319z"/>
			<path style="fill:#592121;" d="M246.942,471.837c0.001,0,0.001,0,0.001,0c-0.031-0.148-0.055-0.294-0.074-0.439
				C246.888,471.544,246.912,471.691,246.942,471.837z"/>
			<path style="fill:#592121;" d="M247.478,473.341c-0.004-0.006-0.007-0.013-0.011-0.021
				C247.472,473.328,247.475,473.335,247.478,473.341z"/>
			<path style="fill:#592121;" d="M247.427,473.241c-0.014-0.027-0.027-0.056-0.041-0.084
				C247.4,473.187,247.413,473.214,247.427,473.241z"/>
			<path style="fill:#592121;" d="M247.092,472.416c0.079,0.25,0.175,0.493,0.286,0.724c-0.113-0.236-0.206-0.479-0.283-0.724
				C247.094,472.416,247.093,472.416,247.092,472.416z"/>
			<path style="fill:#592121;" d="M253.133,465.109c0.313,0,0.544,0.025,0.809,0.069l0.075-0.477c0,0-0.732-0.225-1.694-0.146
				l-0.076-0.259c0.299-0.063,0.524-0.329,0.524-0.646c0-0.364-0.296-0.659-0.661-0.659c-0.364,0-0.66,0.295-0.66,0.659
				c0,0.317,0.224,0.583,0.522,0.646l0.084,0.289c-1.021,0.14-1.834,0.539-1.834,0.539l0.144,0.441
				c0.618-0.206,1.154-0.331,1.64-0.383C252.483,465.131,252.841,465.109,253.133,465.109z"/>
			<path style="fill:#592121;" d="M247.466,467.52l0.004-0.005c0.024-0.031,0.047-0.06,0.071-0.089l-0.196-0.141l-0.305-0.223
				c-0.017,0.024-0.497,0.465-0.876,1.28c-0.016-0.026-0.035-0.051-0.056-0.074c-0.114-0.124-0.272-0.187-0.474-0.184
				c-0.003,0-0.006,0-0.009,0c-0.125,0-0.211-0.042-0.267-0.092c0.056-0.071,0.089-0.16,0.089-0.258c0-0.23-0.187-0.418-0.418-0.418
				c-0.23,0-0.418,0.188-0.418,0.418c0,0.231,0.187,0.418,0.418,0.418c0.036,0,0.071-0.006,0.104-0.013
				c0.103,0.114,0.266,0.214,0.505,0.209c0.123-0.001,0.213,0.03,0.273,0.097c0.069,0.076,0.093,0.185,0.1,0.267
				c-0.001,0.001-0.001,0.003-0.002,0.003c-0.272,0.743-0.194,1.669-0.194,1.669l0.661,0.026c0.013-0.337,0.062-0.926,0.232-1.394
				C247.037,468.11,247.449,467.544,247.466,467.52z"/>
			<path style="fill:#592121;" d="M258.883,465.661c-0.23,0-0.418,0.187-0.418,0.418c0,0.036,0.005,0.07,0.015,0.103
				c-0.115,0.104-0.214,0.267-0.211,0.507c0.002,0.123-0.03,0.212-0.096,0.273c-0.053,0.047-0.12,0.072-0.185,0.088
				c-0.492-0.689-1.097-1.11-1.097-1.11l-0.474,0.508c0.358,0.326,0.724,0.734,1.08,1.244c0.246,0.352,0.499,0.806,0.71,1.259
				l0.64-0.304c0,0-0.292-0.722-0.704-1.37c0.072-0.025,0.144-0.064,0.207-0.12c0.125-0.113,0.187-0.273,0.183-0.474
				c-0.001-0.13,0.042-0.218,0.093-0.276c0.071,0.054,0.161,0.089,0.258,0.089c0.232,0,0.419-0.187,0.419-0.418
				C259.302,465.848,259.115,465.661,258.883,465.661z"/>
			<path style="fill:#592121;" d="M257.222,471.412c-0.881,0.429-2.33,0.996-4.238,1.262c-0.749,0.104-1.475,0.142-2.143,0.142
				c-0.869,0-1.637-0.065-2.227-0.139c-0.673-0.085-1.199-0.189-1.52-0.261c0.077,0.245,0.171,0.488,0.283,0.724
				c0.002,0.006,0.005,0.013,0.008,0.017c0.014,0.027,0.027,0.056,0.041,0.084c0.013,0.027,0.027,0.054,0.041,0.079
				c0.004,0.007,0.007,0.015,0.011,0.021c0.189,0.357,0.417,0.684,0.675,0.968c0.9,0.984,1.817,1.14,1.826,1.141l0.014,0.002
				l0.013,0.005c0.008,0.003,0.821,0.265,2.057,0.265c1.216,0,2.409-0.245,3.546-0.729c0.842-0.431,1.639-1.085,2.034-1.669
				c0.305-0.452,0.525-0.933,0.656-1.434c0.07-0.266,0.125-0.692,0.092-1.141C258.145,470.917,257.753,471.154,257.222,471.412z"/>
			<path style="fill:#592121;" d="M247.749,467.729c-0.026,0.037-0.408,0.578-0.71,1.408c-0.226,0.622-0.216,1.527-0.216,1.538
				v0.002c0,0.212,0.012,0.423,0.035,0.632c0,0.005,0,0.008,0.001,0.011c0.002,0.027,0.007,0.052,0.009,0.079
				c0.019,0.145,0.043,0.291,0.074,0.439c0.438,0.111,3.049,0.72,5.968,0.314c1.829-0.255,3.218-0.795,4.062-1.204
				c0.701-0.34,1.151-0.648,1.325-0.774c-0.173-0.643-0.651-1.65-1.089-2.279c-1.253-1.791-2.604-2.25-3.298-2.365
				c-0.265-0.043-0.477-0.068-0.777-0.068c-0.28,0-0.626,0.022-1.089,0.071c-0.465,0.048-0.982,0.17-1.583,0.372
				c-0.842,0.282-1.605,0.724-2.204,1.28l-0.021,0.019C248.148,467.285,247.962,467.457,247.749,467.729z M255.417,467.312
				c0.601,0,1.09,0.488,1.09,1.09c0,0.601-0.489,1.09-1.09,1.09c-0.601,0-1.089-0.489-1.089-1.09
				C254.329,467.8,254.816,467.312,255.417,467.312z M250.266,467.269c0.973,0,1.76,0.789,1.76,1.761s-0.788,1.759-1.76,1.759
				c-0.972,0-1.76-0.787-1.76-1.759S249.295,467.269,250.266,467.269z"/>
		</g> -->
	</g>
</g>
</svg>
