<?xml version="1.0" encoding="UTF-8" standalone="no"?>
<!-- <?xml version="1.0" encoding="utf-8"?> -->

<!-- Generator: Adobe Illustrator 27.5.0, SVG Export Plug-In . SVG Version: 6.00 Build 0)  -->

<svg
   version="1.1"
   x="0px"
   y="0px"
   viewBox="0 0 500 500"
   style="enable-background:new 0 0 500 500;"
   xml:space="preserve"
   id="svg2"
   sodipodi:docname="1815910_254556-P4G9NA-543.svg"
   inkscape:version="1.4.2 (f4327f4, 2025-05-13)"
   xmlns:inkscape="http://www.inkscape.org/namespaces/inkscape"
   xmlns:sodipodi="http://sodipodi.sourceforge.net/DTD/sodipodi-0.dtd"
   xmlns="http://www.w3.org/2000/svg"
   xmlns:svg="http://www.w3.org/2000/svg"><defs
   id="defs2" /><sodipodi:namedview
   id="namedview2"
   pagecolor="#ffffff"
   bordercolor="#000000"
   borderopacity="0.25"
   inkscape:showpageshadow="2"
   inkscape:pageopacity="0.0"
   inkscape:pagecheckerboard="0"
   inkscape:deskcolor="#d1d1d1"
   inkscape:zoom="0.82872915"
   inkscape:cx="336.66005"
   inkscape:cy="349.93339"
   inkscape:window-width="1440"
   inkscape:window-height="830"
   inkscape:window-x="-6"
   inkscape:window-y="-6"
   inkscape:window-maximized="1"
   inkscape:current-layer="XMLID_34_" />

<g
   id="OBJECTS">
	<g
   id="g2">
		<rect
   id="XMLID_19_"
   x="104.667"
   y="384.488"
   style="fill:none;"
   width="301.915"
   height="40.972" />
		<text
   id="XMLID_65_"
   x="255.625"
   y="393.46"
   text-anchor="middle"
   style="fill:#FAC99E; font-family:'Montserrat-Black'; font-size:12.09px;">
    <tspan
   x="255.625"
   y="393.46"
   id="tspan1">Looks like the page you are looking for </tspan>
    <tspan
   x="255.625"
   y="407.968"
   id="tspan2">has been taken...</tspan>
</text>
		<g
   id="XMLID_1_">
			<g
   id="XMLID_34_">
				<!-- Geimskipið -->
				<g
   id="XMLID_6_"
   transform="matrix(1.2814018,0,0,1.2814018,-74.485957,-41.067137)">
					<path
   id="XMLID_17_"
   style="fill:#fac99e"
   d="m 302.393,97.103 c 0,13.998 -6.152,26.568 -15.906,35.139 -8.234,7.234 -19.039,11.621 -30.864,11.621 -25.823,0 -46.76,-20.936 -46.76,-46.76 0,-11.856 4.408,-22.681 11.672,-30.915 8.57,-9.723 21.11,-15.855 35.088,-15.855 25.834,0 46.77,20.937 46.77,46.77 z" />
					<path
   id="XMLID_16_"
   style="fill:#273b4c"
   d="m 298.179,101.307 c 0,11.856 -4.418,22.691 -11.692,30.935 -8.234,7.234 -19.039,11.621 -30.864,11.621 -25.823,0 -46.76,-20.936 -46.76,-46.76 0,-11.856 4.408,-22.681 11.672,-30.915 8.234,-7.244 19.049,-11.641 30.884,-11.641 25.824,0 46.76,20.936 46.76,46.76 z" />
					<ellipse
   id="XMLID_15_"
   style="fill:#fac99e"
   cx="255.62601"
   cy="119.354"
   rx="143.573"
   ry="32.686001" />
					<path
   id="XMLID_18_"
   style="fill:#162630"
   d="m 399.198,122.119 c 0,17.416 -59.829,31.639 -135.249,32.629 -2.755,0.031 -5.53,0.051 -8.326,0.051 -2.673,0 -5.336,-0.02 -7.968,-0.051 -72.522,-0.898 -130.719,-14.059 -135.31,-30.527 -0.194,-0.694 -0.296,-1.398 -0.296,-2.102 0,-6.03 7.173,-11.682 19.692,-16.529 20.365,-7.897 54.861,-13.672 95.58,-15.518 1.857,-0.092 3.724,-0.163 5.612,-0.235 7.387,-0.265 14.967,-0.408 22.691,-0.408 7.846,0 15.549,0.143 23.058,0.418 1.877,0.071 3.745,0.143 5.591,0.235 65.574,3.02 114.925,16.222 114.925,32.037 z" />
					<path
   id="XMLID_28_"
   style="fill:#273b4c"
   d="m 399.198,123.777 c 0,17.416 -59.829,31.639 -135.249,32.629 -2.755,0.031 -5.53,0.051 -8.326,0.051 -2.673,0 -5.336,-0.021 -7.968,-0.051 -72.522,-0.898 -130.719,-14.06 -135.31,-30.527 -0.194,-0.694 -0.296,-1.398 -0.296,-2.102 0,-6.03 7.173,-11.682 19.692,-16.529 20.365,-7.897 54.861,-13.672 95.58,-15.519 1.857,-0.092 3.724,-0.163 5.612,-0.235 7.387,-0.265 14.967,-0.408 22.691,-0.408 7.846,0 15.549,0.143 23.058,0.418 1.877,0.071 3.745,0.143 5.591,0.235 65.574,3.021 114.925,16.223 114.925,32.038 z" />
					<path
   id="XMLID_14_"
   style="fill:#fac99e"
   d="m 382.724,125.115 c 0,2.648 -6.148,4.795 -13.731,4.795 -7.584,0 -13.731,-2.147 -13.731,-4.795 0,-2.648 6.148,-4.795 13.731,-4.795 7.583,0 13.731,2.147 13.731,4.795 z" />
					<path
   id="XMLID_13_"
   style="fill:#fac99e"
   d="m 157.921,125.115 c 0,2.648 -6.148,4.795 -13.731,4.795 -7.584,0 -13.731,-2.147 -13.731,-4.795 0,-2.648 6.148,-4.795 13.731,-4.795 7.583,0 13.731,2.147 13.731,4.795 z" />
					<path
   id="XMLID_11_"
   style="fill:#fac99e"
   d="m 262.628,151.995 c 0,0.566 -0.921,1.075 -2.381,1.421 -1.232,0.293 -2.85,0.47 -4.619,0.47 -3.865,0 -6.998,-0.847 -6.998,-1.891 0,-0.479 0.66,-0.917 1.747,-1.25 1.283,-0.393 3.159,-0.641 5.251,-0.641 3.866,0 7,0.846 7,1.891 z" />
					<path
   id="XMLID_10_"
   style="fill:#fac99e"
   d="m 271.683,100.386 c 0,1.299 -2.112,2.465 -5.461,3.26 -2.827,0.671 -6.536,1.078 -10.595,1.078 -8.865,0 -16.052,-1.942 -16.052,-4.338 0,-1.1 1.513,-2.104 4.007,-2.868 2.942,-0.902 7.247,-1.471 12.046,-1.471 8.867,0 16.055,1.942 16.055,4.339 z" />
					<path
   id="XMLID_22_"
   style="fill:#162630"
   d="m 255.695,122.267 v 13.437 c 0,0 -123.659,5.142 -143.35,-9.825 -0.194,-0.694 -0.296,-1.398 -0.296,-2.102 0,-6.03 7.173,-11.682 19.692,-16.529 -0.837,0.592 -4.112,3.51 6.969,6.856 12.406,3.745 116.985,8.163 116.985,8.163 z" />
					<path
   id="XMLID_12_"
   style="fill:#162630"
   d="m 255.555,122.267 v 13.437 c 0,0 123.659,5.142 143.35,-9.825 0.194,-0.694 0.296,-1.398 0.296,-2.102 0,-6.03 -7.173,-11.682 -19.691,-16.529 0.837,0.592 4.112,3.51 -6.969,6.856 -12.407,3.745 -116.986,8.163 -116.986,8.163 z" />
					<path
   id="XMLID_24_"
   style="fill:#162630"
   d="m 266.449,138.245 -2.5,18.161 c -2.755,0.031 -5.53,0.051 -8.326,0.051 -2.673,0 -5.336,-0.021 -7.968,-0.051 l -2.5,-18.161 c -0.245,-0.337 6.581,-1.184 9.815,-1.571 v -0.194 c 0,0 0.316,0.041 0.826,0.102 0.52,-0.061 0.837,-0.102 0.837,-0.102 v 0.194 c 3.235,0.387 10.06,1.234 9.816,1.571 z" />
					<path
   id="XMLID_23_"
   style="fill:#162630"
   d="m 284.273,91.74 -5.601,29.486 c -7.387,0.265 -14.968,0.408 -22.691,0.408 -7.846,0 -15.549,-0.143 -23.058,-0.418 L 227.322,91.73 c 1.857,-0.092 3.724,-0.163 5.612,-0.235 7.387,-0.265 14.967,-0.408 22.691,-0.408 7.846,0 15.549,0.143 23.058,0.418 1.876,0.072 3.743,0.143 5.59,0.235 z" />
					<g
   id="XMLID_4_">
						<ellipse
   id="XMLID_8_"
   style="fill:#273b4c"
   cx="255.62601"
   cy="127.856"
   rx="86.545998"
   ry="18.343" />
						<ellipse
   id="XMLID_7_"
   style="fill:#fac99e"
   cx="255.62601"
   cy="128.494"
   rx="64.081001"
   ry="12.944" />
						<ellipse
   id="XMLID_5_"
   style="fill:#f9e0cd"
   cx="255.62601"
   cy="128.494"
   rx="36.973"
   ry="7.4679999" />
					</g>
				</g>
				<!-- Geimskip búið -->

				<!-- Geislinn -->

				<!-- Sjálfur geislinn -->
				<path
   id="XMLID_57_"
   style="opacity:0.35;fill:#F9E0CD;"
   d="M365.477,362.748c-4.489-4.153-52.045-7.407-110.048-7.407      c-58.738,0-106.763,3.346-110.201,7.57l72.91-234.523h74.481L365.477,362.748z" />
					
				<!-- Skuggi undir geislanum -->
				<path
   id="XMLID_62_"
   style="opacity:0.61;fill:#F7F3F0;"
   d="M365.763,363.666c-0.143,0.316-0.52,0.622-1.133,0.918      c-0.01,0-0.01,0.01-0.02,0.01c-7.928,3.877-53.8,6.856-109.181,6.856c-55.391,0-101.263-2.979-109.191-6.856      c0,0-0.01,0-0.01-0.01c-0.265-0.122-0.49-0.265-0.673-0.398c-0.061-0.051-0.112-0.092-0.163-0.143      c-0.204-0.184-0.316-0.357-0.347-0.541l0.184-0.592c3.438-4.224,51.463-7.57,110.201-7.57c58.003,0,105.559,3.255,110.048,7.407      L365.763,363.666z" />

				<!-- Fyrsti 4 -->
				<path
   id="XMLID_40_"
   style="fill:#F9E0CD;"
   d="M214.973,283.76l-26.9,40.123l7.417,1.473l2.924-14.726l23.015,4.57      l-2.924,14.726l8.726,1.733l-3.573,17.997l-8.726-1.733l-2.945,14.834l-23.015-4.57l2.945-14.834l-32.614-6.476l3.249-16.361      l28.643-41.477L214.973,283.76z" />

				<!-- 0 -->
				<path
   id="XMLID_49_"
   style="fill:#F9E0CD;"
   d="M284.371,292.842c-6.537,24.727-21.006,35.511-40.572,30.339      c-19.782-5.23-26.924-21.726-20.387-46.454c6.537-24.727,20.898-35.539,40.68-30.309      C283.659,251.591,290.908,268.115,284.371,292.842z M246.958,282.952c-4.178,15.805-4.1,22.037,1.276,23.458      c5.267,1.392,8.415-3.987,12.594-19.791c4.206-15.911,4.099-22.036-1.168-23.428      C254.283,261.769,251.164,267.04,246.958,282.952z" />

				<!-- Síðasti 4 -->
				<path
   id="XMLID_52_"
   style="fill:#F9E0CD;"
   d="M325.012,282.057l-18.57,44.594h7.561v-15.013h23.464v15.013h8.897v18.348h-8.897      v15.124h-23.464v-15.124h-33.25v-16.68l20.017-46.262H325.012z" />
				<!-- Geislinn búinn -->
			</g>

			<!-- Skuggi undir númerunum -->
			<g
   id="XMLID_67_">
				<path
   id="XMLID_3_"
   style="opacity:0.38;fill:#722A2A;"
   d="M227.507,365.178c0,1.066-11.465,1.931-25.607,1.931      c-14.143,0-25.607-0.865-25.607-1.931c0-1.066,11.465-1.931,25.607-1.931C216.043,363.246,227.507,364.111,227.507,365.178z" />
				<ellipse
   id="XMLID_69_"
   style="opacity:0.38;fill:#722A2A;"
   cx="320.785"
   cy="363.666"
   rx="25.607"
   ry="1.931" />
				<path
   id="XMLID_68_"
   style="opacity:0.38;fill:#722A2A;"
   d="M270.998,363.918c0,0.801-8.608,1.45-19.227,1.45      s-19.227-0.649-19.227-1.45c0-0.801,8.608-1.45,19.227-1.45S270.998,363.117,270.998,363.918z" />
			</g>
		</g>
		<g
   id="XMLID_220_">
			<path
   id="XMLID_216_"
   style="fill:#C48653;"
   d="M307.958,447.599H203.292c-7.408,0-13.413-6.005-13.413-13.413v0     c0-7.408,6.005-13.413,13.413-13.413h104.666c7.408,0,13.413,6.005,13.413,13.413v0     C321.371,441.594,315.366,447.599,307.958,447.599z" />
			<rect
   id="XMLID_35_"
   x="222.587"
   y="428.797"
   style="fill:none;"
   width="66.076"
   height="11.548" />
			<text
   id="XMLID_218_"
   x="255.625"
   y="439.0765"
   text-anchor="middle"
   style="fill:#FFFFFF; font-family:'Montserrat-Bold'; font-size:13.8529px;">
				Go back
			</text>
		</g>
	</g>
</g>
</svg>
